<svg width="530" height="218" viewBox="0 0 530 218" fill="none" xmlns="http://www.w3.org/2000/svg">
<rect y="102" width="78" height="116" rx="4" fill="url(#paint0_linear)"/>
<rect y="82" width="78" height="25" rx="4" fill="url(#paint1_linear)"/>
<path d="M24.1207 188.872H31.8167V187.656H26.3127C28.3767 185.976 31.4807 183.528 31.4807 180.648C31.4807 178.504 30.0727 177.224 27.8967 177.224C25.8167 177.224 24.2647 178.504 24.1687 180.968H25.5767C25.6407 179.512 26.4087 178.472 27.9127 178.472C29.4807 178.472 30.0407 179.432 30.0407 180.712C30.0407 183.08 27.1607 185.384 24.1207 187.832V188.872ZM33.4998 183.096C33.4998 186.456 34.3318 189 37.5318 189C40.7158 189 41.5478 186.456 41.5478 183.096C41.5478 179.784 40.7158 177.256 37.5318 177.256C34.3318 177.256 33.4998 179.784 33.4998 183.096ZM40.1078 183.096C40.1078 185.592 39.8038 187.672 37.5318 187.672C35.2438 187.672 34.9398 185.592 34.9398 183.096C34.9398 180.696 35.2438 178.584 37.5318 178.584C39.8038 178.584 40.1078 180.696 40.1078 183.096ZM43.2267 180.04C43.2267 181.544 44.2347 182.44 45.5627 182.44C46.9067 182.44 47.8987 181.544 47.8987 180.04C47.8987 178.552 46.9067 177.656 45.5627 177.656C44.2347 177.656 43.2267 178.552 43.2267 180.04ZM45.5627 178.552C46.2667 178.552 46.7467 179.032 46.7467 180.04C46.7467 181.032 46.2667 181.544 45.5627 181.544C44.8587 181.544 44.3947 181.032 44.3947 180.04C44.3947 179.032 44.8587 178.552 45.5627 178.552ZM44.6507 189H46.0907L52.5707 177.832H51.1307L44.6507 189ZM49.3547 186.792C49.3547 188.28 50.3467 189.192 51.6907 189.192C53.0187 189.192 54.0107 188.28 54.0107 186.792C54.0107 185.288 53.0187 184.392 51.6907 184.392C50.3467 184.392 49.3547 185.288 49.3547 186.792ZM51.6747 185.304C52.3787 185.304 52.8587 185.784 52.8587 186.792C52.8587 187.784 52.3787 188.264 51.6747 188.264C50.9707 188.264 50.4907 187.784 50.4907 186.792C50.4907 185.784 50.9707 185.304 51.6747 185.304Z" fill="white"/>
<path d="M24.1319 62.344H25.5559C25.6999 61.224 26.5159 60.456 27.8759 60.456C29.2679 60.456 30.0039 61.224 30.0039 62.328C30.0039 63.672 28.9639 64.264 27.0279 64.28H26.6439V65.496H27.0119C29.0919 65.496 30.2279 66.12 30.2279 67.752C30.2279 68.936 29.4919 69.848 27.9399 69.848C26.4039 69.848 25.5079 68.904 25.3639 67.672H23.9559C24.1319 69.912 25.7639 71.08 27.9559 71.08C30.3719 71.08 31.6199 69.672 31.6199 67.88C31.6199 66.216 30.7079 65.224 29.3639 64.904V64.824C30.5799 64.552 31.4119 63.512 31.4119 62.184C31.4119 60.52 30.1799 59.208 27.9239 59.208C25.7799 59.208 24.2759 60.36 24.1319 62.344ZM35.6978 64.984C34.4018 65.368 33.5538 66.424 33.5538 67.88C33.5538 69.976 35.2018 71.32 37.6338 71.32C40.0818 71.32 41.7458 69.976 41.7458 67.88C41.7458 66.44 40.8978 65.384 39.5858 64.984C40.7218 64.536 41.4418 63.576 41.4418 62.328C41.4418 60.648 40.1458 59.256 37.6338 59.256C35.1218 59.256 33.8418 60.632 33.8418 62.328C33.8418 63.624 34.5138 64.52 35.6978 64.984ZM37.6338 64.504C36.2258 64.504 35.2498 63.72 35.2498 62.52C35.2498 61.16 36.2098 60.472 37.6338 60.472C39.0898 60.472 40.0338 61.176 40.0338 62.504C40.0338 63.704 39.0578 64.504 37.6338 64.504ZM37.6338 65.624C39.1538 65.624 40.3058 66.344 40.3058 67.832C40.3058 69.176 39.2818 70.104 37.6338 70.104C35.9858 70.104 34.9457 69.192 34.9457 67.832C34.9457 66.296 36.1458 65.624 37.6338 65.624ZM43.3595 62.04C43.3595 63.544 44.3675 64.44 45.6955 64.44C47.0395 64.44 48.0315 63.544 48.0315 62.04C48.0315 60.552 47.0395 59.656 45.6955 59.656C44.3675 59.656 43.3595 60.552 43.3595 62.04ZM45.6955 60.552C46.3995 60.552 46.8795 61.032 46.8795 62.04C46.8795 63.032 46.3995 63.544 45.6955 63.544C44.9915 63.544 44.5275 63.032 44.5275 62.04C44.5275 61.032 44.9915 60.552 45.6955 60.552ZM44.7835 71H46.2235L52.7035 59.832H51.2635L44.7835 71ZM49.4875 68.792C49.4875 70.28 50.4795 71.192 51.8235 71.192C53.1515 71.192 54.1435 70.28 54.1435 68.792C54.1435 67.288 53.1515 66.392 51.8235 66.392C50.4795 66.392 49.4875 67.288 49.4875 68.792ZM51.8075 67.304C52.5115 67.304 52.9915 67.784 52.9915 68.792C52.9915 69.784 52.5115 70.264 51.8075 70.264C51.1035 70.264 50.6235 69.784 50.6235 68.792C50.6235 67.784 51.1035 67.304 51.8075 67.304Z" fill="#070707"/>
<rect x="112" y="86" width="78" height="132" rx="4" fill="url(#paint2_linear)"/>
<rect x="112" y="63" width="78" height="28" rx="4" fill="url(#paint3_linear)"/>
<path d="M136.121 183.872H143.817V182.656H138.313C140.377 180.976 143.481 178.528 143.481 175.648C143.481 173.504 142.073 172.224 139.897 172.224C137.817 172.224 136.265 173.504 136.169 175.968H137.577C137.641 174.512 138.409 173.472 139.913 173.472C141.481 173.472 142.041 174.432 142.041 175.712C142.041 178.08 139.161 180.384 136.121 182.832V183.872ZM145.5 178.096C145.5 181.456 146.332 184 149.532 184C152.716 184 153.548 181.456 153.548 178.096C153.548 174.784 152.716 172.256 149.532 172.256C146.332 172.256 145.5 174.784 145.5 178.096ZM152.108 178.096C152.108 180.592 151.804 182.672 149.532 182.672C147.244 182.672 146.94 180.592 146.94 178.096C146.94 175.696 147.244 173.584 149.532 173.584C151.804 173.584 152.108 175.696 152.108 178.096ZM155.227 175.04C155.227 176.544 156.235 177.44 157.563 177.44C158.907 177.44 159.899 176.544 159.899 175.04C159.899 173.552 158.907 172.656 157.563 172.656C156.235 172.656 155.227 173.552 155.227 175.04ZM157.563 173.552C158.267 173.552 158.747 174.032 158.747 175.04C158.747 176.032 158.267 176.544 157.563 176.544C156.859 176.544 156.395 176.032 156.395 175.04C156.395 174.032 156.859 173.552 157.563 173.552ZM156.651 184H158.091L164.571 172.832H163.131L156.651 184ZM161.355 181.792C161.355 183.28 162.347 184.192 163.691 184.192C165.019 184.192 166.011 183.28 166.011 181.792C166.011 180.288 165.019 179.392 163.691 179.392C162.347 179.392 161.355 180.288 161.355 181.792ZM163.675 180.304C164.379 180.304 164.859 180.784 164.859 181.792C164.859 182.784 164.379 183.264 163.675 183.264C162.971 183.264 162.491 182.784 162.491 181.792C162.491 180.784 162.971 180.304 163.675 180.304Z" fill="white"/>
<path d="M136.132 40.344H137.556C137.7 39.224 138.516 38.456 139.876 38.456C141.268 38.456 142.004 39.224 142.004 40.328C142.004 41.672 140.964 42.264 139.028 42.28H138.644V43.496H139.012C141.092 43.496 142.228 44.12 142.228 45.752C142.228 46.936 141.492 47.848 139.94 47.848C138.404 47.848 137.508 46.904 137.364 45.672H135.956C136.132 47.912 137.764 49.08 139.956 49.08C142.372 49.08 143.62 47.672 143.62 45.88C143.62 44.216 142.708 43.224 141.364 42.904V42.824C142.58 42.552 143.412 41.512 143.412 40.184C143.412 38.52 142.18 37.208 139.924 37.208C137.78 37.208 136.276 38.36 136.132 40.344ZM147.698 42.984C146.402 43.368 145.554 44.424 145.554 45.88C145.554 47.976 147.202 49.32 149.634 49.32C152.082 49.32 153.746 47.976 153.746 45.88C153.746 44.44 152.898 43.384 151.586 42.984C152.722 42.536 153.442 41.576 153.442 40.328C153.442 38.648 152.146 37.256 149.634 37.256C147.122 37.256 145.842 38.632 145.842 40.328C145.842 41.624 146.514 42.52 147.698 42.984ZM149.634 42.504C148.226 42.504 147.25 41.72 147.25 40.52C147.25 39.16 148.21 38.472 149.634 38.472C151.09 38.472 152.034 39.176 152.034 40.504C152.034 41.704 151.058 42.504 149.634 42.504ZM149.634 43.624C151.154 43.624 152.306 44.344 152.306 45.832C152.306 47.176 151.282 48.104 149.634 48.104C147.986 48.104 146.946 47.192 146.946 45.832C146.946 44.296 148.146 43.624 149.634 43.624ZM155.36 40.04C155.36 41.544 156.368 42.44 157.696 42.44C159.04 42.44 160.032 41.544 160.032 40.04C160.032 38.552 159.04 37.656 157.696 37.656C156.368 37.656 155.36 38.552 155.36 40.04ZM157.696 38.552C158.4 38.552 158.88 39.032 158.88 40.04C158.88 41.032 158.4 41.544 157.696 41.544C156.992 41.544 156.528 41.032 156.528 40.04C156.528 39.032 156.992 38.552 157.696 38.552ZM156.784 49H158.224L164.704 37.832H163.264L156.784 49ZM161.488 46.792C161.488 48.28 162.48 49.192 163.824 49.192C165.152 49.192 166.144 48.28 166.144 46.792C166.144 45.288 165.152 44.392 163.824 44.392C162.48 44.392 161.488 45.288 161.488 46.792ZM163.808 45.304C164.512 45.304 164.992 45.784 164.992 46.792C164.992 47.784 164.512 48.264 163.808 48.264C163.104 48.264 162.624 47.784 162.624 46.792C162.624 45.784 163.104 45.304 163.808 45.304Z" fill="#070707"/>
<rect x="227" y="74" width="78" height="144" rx="4" fill="url(#paint4_linear)"/>
<rect x="227" y="49" width="78" height="30" rx="4" fill="url(#paint5_linear)"/>
<path d="M251.121 179.872H258.817V178.656H253.313C255.377 176.976 258.481 174.528 258.481 171.648C258.481 169.504 257.073 168.224 254.897 168.224C252.817 168.224 251.265 169.504 251.169 171.968H252.577C252.641 170.512 253.409 169.472 254.913 169.472C256.481 169.472 257.041 170.432 257.041 171.712C257.041 174.08 254.161 176.384 251.121 178.832V179.872ZM260.5 174.096C260.5 177.456 261.332 180 264.532 180C267.716 180 268.548 177.456 268.548 174.096C268.548 170.784 267.716 168.256 264.532 168.256C261.332 168.256 260.5 170.784 260.5 174.096ZM267.108 174.096C267.108 176.592 266.804 178.672 264.532 178.672C262.244 178.672 261.94 176.592 261.94 174.096C261.94 171.696 262.244 169.584 264.532 169.584C266.804 169.584 267.108 171.696 267.108 174.096ZM270.227 171.04C270.227 172.544 271.235 173.44 272.563 173.44C273.907 173.44 274.899 172.544 274.899 171.04C274.899 169.552 273.907 168.656 272.563 168.656C271.235 168.656 270.227 169.552 270.227 171.04ZM272.563 169.552C273.267 169.552 273.747 170.032 273.747 171.04C273.747 172.032 273.267 172.544 272.563 172.544C271.859 172.544 271.395 172.032 271.395 171.04C271.395 170.032 271.859 169.552 272.563 169.552ZM271.651 180H273.091L279.571 168.832H278.131L271.651 180ZM276.355 177.792C276.355 179.28 277.347 180.192 278.691 180.192C280.019 180.192 281.011 179.28 281.011 177.792C281.011 176.288 280.019 175.392 278.691 175.392C277.347 175.392 276.355 176.288 276.355 177.792ZM278.675 176.304C279.379 176.304 279.859 176.784 279.859 177.792C279.859 178.784 279.379 179.264 278.675 179.264C277.971 179.264 277.491 178.784 277.491 177.792C277.491 176.784 277.971 176.304 278.675 176.304Z" fill="white"/>
<path d="M251.132 24.344H252.556C252.7 23.224 253.516 22.456 254.876 22.456C256.268 22.456 257.004 23.224 257.004 24.328C257.004 25.672 255.964 26.264 254.028 26.28H253.644V27.496H254.012C256.092 27.496 257.228 28.12 257.228 29.752C257.228 30.936 256.492 31.848 254.94 31.848C253.404 31.848 252.508 30.904 252.364 29.672H250.956C251.132 31.912 252.764 33.08 254.956 33.08C257.372 33.08 258.62 31.672 258.62 29.88C258.62 28.216 257.708 27.224 256.364 26.904V26.824C257.58 26.552 258.412 25.512 258.412 24.184C258.412 22.52 257.18 21.208 254.924 21.208C252.78 21.208 251.276 22.36 251.132 24.344ZM262.698 26.984C261.402 27.368 260.554 28.424 260.554 29.88C260.554 31.976 262.202 33.32 264.634 33.32C267.082 33.32 268.746 31.976 268.746 29.88C268.746 28.44 267.898 27.384 266.586 26.984C267.722 26.536 268.442 25.576 268.442 24.328C268.442 22.648 267.146 21.256 264.634 21.256C262.122 21.256 260.842 22.632 260.842 24.328C260.842 25.624 261.514 26.52 262.698 26.984ZM264.634 26.504C263.226 26.504 262.25 25.72 262.25 24.52C262.25 23.16 263.21 22.472 264.634 22.472C266.09 22.472 267.034 23.176 267.034 24.504C267.034 25.704 266.058 26.504 264.634 26.504ZM264.634 27.624C266.154 27.624 267.306 28.344 267.306 29.832C267.306 31.176 266.282 32.104 264.634 32.104C262.986 32.104 261.946 31.192 261.946 29.832C261.946 28.296 263.146 27.624 264.634 27.624ZM270.36 24.04C270.36 25.544 271.368 26.44 272.696 26.44C274.04 26.44 275.032 25.544 275.032 24.04C275.032 22.552 274.04 21.656 272.696 21.656C271.368 21.656 270.36 22.552 270.36 24.04ZM272.696 22.552C273.4 22.552 273.88 23.032 273.88 24.04C273.88 25.032 273.4 25.544 272.696 25.544C271.992 25.544 271.528 25.032 271.528 24.04C271.528 23.032 271.992 22.552 272.696 22.552ZM271.784 33H273.224L279.704 21.832H278.264L271.784 33ZM276.488 30.792C276.488 32.28 277.48 33.192 278.824 33.192C280.152 33.192 281.144 32.28 281.144 30.792C281.144 29.288 280.152 28.392 278.824 28.392C277.48 28.392 276.488 29.288 276.488 30.792ZM278.808 29.304C279.512 29.304 279.992 29.784 279.992 30.792C279.992 31.784 279.512 32.264 278.808 32.264C278.104 32.264 277.624 31.784 277.624 30.792C277.624 29.784 278.104 29.304 278.808 29.304Z" fill="#070707"/>
<rect x="339" y="64" width="78" height="154" rx="4" fill="url(#paint6_linear)"/>
<rect x="339" y="38" width="78" height="32" rx="4" fill="url(#paint7_linear)"/>
<path d="M363.121 176.872H370.817V175.656H365.313C367.377 173.976 370.481 171.528 370.481 168.648C370.481 166.504 369.073 165.224 366.897 165.224C364.817 165.224 363.265 166.504 363.169 168.968H364.577C364.641 167.512 365.409 166.472 366.913 166.472C368.481 166.472 369.041 167.432 369.041 168.712C369.041 171.08 366.161 173.384 363.121 175.832V176.872ZM372.5 171.096C372.5 174.456 373.332 177 376.532 177C379.716 177 380.548 174.456 380.548 171.096C380.548 167.784 379.716 165.256 376.532 165.256C373.332 165.256 372.5 167.784 372.5 171.096ZM379.108 171.096C379.108 173.592 378.804 175.672 376.532 175.672C374.244 175.672 373.94 173.592 373.94 171.096C373.94 168.696 374.244 166.584 376.532 166.584C378.804 166.584 379.108 168.696 379.108 171.096ZM382.227 168.04C382.227 169.544 383.235 170.44 384.563 170.44C385.907 170.44 386.899 169.544 386.899 168.04C386.899 166.552 385.907 165.656 384.563 165.656C383.235 165.656 382.227 166.552 382.227 168.04ZM384.563 166.552C385.267 166.552 385.747 167.032 385.747 168.04C385.747 169.032 385.267 169.544 384.563 169.544C383.859 169.544 383.395 169.032 383.395 168.04C383.395 167.032 383.859 166.552 384.563 166.552ZM383.651 177H385.091L391.571 165.832H390.131L383.651 177ZM388.355 174.792C388.355 176.28 389.347 177.192 390.691 177.192C392.019 177.192 393.011 176.28 393.011 174.792C393.011 173.288 392.019 172.392 390.691 172.392C389.347 172.392 388.355 173.288 388.355 174.792ZM390.675 173.304C391.379 173.304 391.859 173.784 391.859 174.792C391.859 175.784 391.379 176.264 390.675 176.264C389.971 176.264 389.491 175.784 389.491 174.792C389.491 173.784 389.971 173.304 390.675 173.304Z" fill="white"/>
<path d="M363.132 12.344H364.556C364.7 11.224 365.516 10.456 366.876 10.456C368.268 10.456 369.004 11.224 369.004 12.328C369.004 13.672 367.964 14.264 366.028 14.28H365.644V15.496H366.012C368.092 15.496 369.228 16.12 369.228 17.752C369.228 18.936 368.492 19.848 366.94 19.848C365.404 19.848 364.508 18.904 364.364 17.672H362.956C363.132 19.912 364.764 21.08 366.956 21.08C369.372 21.08 370.62 19.672 370.62 17.88C370.62 16.216 369.708 15.224 368.364 14.904V14.824C369.58 14.552 370.412 13.512 370.412 12.184C370.412 10.52 369.18 9.208 366.924 9.208C364.78 9.208 363.276 10.36 363.132 12.344ZM374.698 14.984C373.402 15.368 372.554 16.424 372.554 17.88C372.554 19.976 374.202 21.32 376.634 21.32C379.082 21.32 380.746 19.976 380.746 17.88C380.746 16.44 379.898 15.384 378.586 14.984C379.722 14.536 380.442 13.576 380.442 12.328C380.442 10.648 379.146 9.256 376.634 9.256C374.122 9.256 372.842 10.632 372.842 12.328C372.842 13.624 373.514 14.52 374.698 14.984ZM376.634 14.504C375.226 14.504 374.25 13.72 374.25 12.52C374.25 11.16 375.21 10.472 376.634 10.472C378.09 10.472 379.034 11.176 379.034 12.504C379.034 13.704 378.058 14.504 376.634 14.504ZM376.634 15.624C378.154 15.624 379.306 16.344 379.306 17.832C379.306 19.176 378.282 20.104 376.634 20.104C374.986 20.104 373.946 19.192 373.946 17.832C373.946 16.296 375.146 15.624 376.634 15.624ZM382.36 12.04C382.36 13.544 383.368 14.44 384.696 14.44C386.04 14.44 387.032 13.544 387.032 12.04C387.032 10.552 386.04 9.656 384.696 9.656C383.368 9.656 382.36 10.552 382.36 12.04ZM384.696 10.552C385.4 10.552 385.88 11.032 385.88 12.04C385.88 13.032 385.4 13.544 384.696 13.544C383.992 13.544 383.528 13.032 383.528 12.04C383.528 11.032 383.992 10.552 384.696 10.552ZM383.784 21H385.224L391.704 9.832H390.264L383.784 21ZM388.488 18.792C388.488 20.28 389.48 21.192 390.824 21.192C392.152 21.192 393.144 20.28 393.144 18.792C393.144 17.288 392.152 16.392 390.824 16.392C389.48 16.392 388.488 17.288 388.488 18.792ZM390.808 17.304C391.512 17.304 391.992 17.784 391.992 18.792C391.992 19.784 391.512 20.264 390.808 20.264C390.104 20.264 389.624 19.784 389.624 18.792C389.624 17.784 390.104 17.304 390.808 17.304Z" fill="#070707"/>
<rect x="452" y="57" width="78" height="161" rx="4" fill="url(#paint8_linear)"/>
<rect x="452" y="30" width="78" height="33" rx="4" fill="url(#paint9_linear)"/>
<path d="M476.121 174.872H483.817V173.656H478.313C480.377 171.976 483.481 169.528 483.481 166.648C483.481 164.504 482.073 163.224 479.897 163.224C477.817 163.224 476.265 164.504 476.169 166.968H477.577C477.641 165.512 478.409 164.472 479.913 164.472C481.481 164.472 482.041 165.432 482.041 166.712C482.041 169.08 479.161 171.384 476.121 173.832V174.872ZM485.5 169.096C485.5 172.456 486.332 175 489.532 175C492.716 175 493.548 172.456 493.548 169.096C493.548 165.784 492.716 163.256 489.532 163.256C486.332 163.256 485.5 165.784 485.5 169.096ZM492.108 169.096C492.108 171.592 491.804 173.672 489.532 173.672C487.244 173.672 486.94 171.592 486.94 169.096C486.94 166.696 487.244 164.584 489.532 164.584C491.804 164.584 492.108 166.696 492.108 169.096ZM495.227 166.04C495.227 167.544 496.235 168.44 497.563 168.44C498.907 168.44 499.899 167.544 499.899 166.04C499.899 164.552 498.907 163.656 497.563 163.656C496.235 163.656 495.227 164.552 495.227 166.04ZM497.563 164.552C498.267 164.552 498.747 165.032 498.747 166.04C498.747 167.032 498.267 167.544 497.563 167.544C496.859 167.544 496.395 167.032 496.395 166.04C496.395 165.032 496.859 164.552 497.563 164.552ZM496.651 175H498.091L504.571 163.832H503.131L496.651 175ZM501.355 172.792C501.355 174.28 502.347 175.192 503.691 175.192C505.019 175.192 506.011 174.28 506.011 172.792C506.011 171.288 505.019 170.392 503.691 170.392C502.347 170.392 501.355 171.288 501.355 172.792ZM503.675 171.304C504.379 171.304 504.859 171.784 504.859 172.792C504.859 173.784 504.379 174.264 503.675 174.264C502.971 174.264 502.491 173.784 502.491 172.792C502.491 171.784 502.971 171.304 503.675 171.304Z" fill="white"/>
<path d="M476.132 3.344H477.556C477.7 2.224 478.516 1.456 479.876 1.456C481.268 1.456 482.004 2.224 482.004 3.328C482.004 4.672 480.964 5.264 479.028 5.28H478.644V6.496H479.012C481.092 6.496 482.228 7.12 482.228 8.752C482.228 9.936 481.492 10.848 479.94 10.848C478.404 10.848 477.508 9.904 477.364 8.672H475.956C476.132 10.912 477.764 12.08 479.956 12.08C482.372 12.08 483.62 10.672 483.62 8.88C483.62 7.216 482.708 6.224 481.364 5.904V5.824C482.58 5.552 483.412 4.512 483.412 3.184C483.412 1.52 482.18 0.207999 479.924 0.207999C477.78 0.207999 476.276 1.36 476.132 3.344ZM487.698 5.984C486.402 6.368 485.554 7.424 485.554 8.88C485.554 10.976 487.202 12.32 489.634 12.32C492.082 12.32 493.746 10.976 493.746 8.88C493.746 7.44 492.898 6.384 491.586 5.984C492.722 5.536 493.442 4.576 493.442 3.328C493.442 1.648 492.146 0.256 489.634 0.256C487.122 0.256 485.842 1.632 485.842 3.328C485.842 4.624 486.514 5.52 487.698 5.984ZM489.634 5.504C488.226 5.504 487.25 4.72 487.25 3.52C487.25 2.16 488.21 1.472 489.634 1.472C491.09 1.472 492.034 2.176 492.034 3.504C492.034 4.704 491.058 5.504 489.634 5.504ZM489.634 6.624C491.154 6.624 492.306 7.344 492.306 8.832C492.306 10.176 491.282 11.104 489.634 11.104C487.986 11.104 486.946 10.192 486.946 8.832C486.946 7.296 488.146 6.624 489.634 6.624ZM495.36 3.04C495.36 4.544 496.368 5.44 497.696 5.44C499.04 5.44 500.032 4.544 500.032 3.04C500.032 1.552 499.04 0.655999 497.696 0.655999C496.368 0.655999 495.36 1.552 495.36 3.04ZM497.696 1.552C498.4 1.552 498.88 2.032 498.88 3.04C498.88 4.032 498.4 4.544 497.696 4.544C496.992 4.544 496.528 4.032 496.528 3.04C496.528 2.032 496.992 1.552 497.696 1.552ZM496.784 12H498.224L504.704 0.832H503.264L496.784 12ZM501.488 9.792C501.488 11.28 502.48 12.192 503.824 12.192C505.152 12.192 506.144 11.28 506.144 9.792C506.144 8.288 505.152 7.392 503.824 7.392C502.48 7.392 501.488 8.288 501.488 9.792ZM503.808 8.304C504.512 8.304 504.992 8.784 504.992 9.792C504.992 10.784 504.512 11.264 503.808 11.264C503.104 11.264 502.624 10.784 502.624 9.792C502.624 8.784 503.104 8.304 503.808 8.304Z" fill="#070707"/>
<rect y="102" width="78" height="116" rx="4" fill="url(#paint10_linear)"/>
<rect y="82" width="78" height="25" rx="4" fill="url(#paint11_linear)"/>
<path d="M24.1207 188.872H31.8167V187.656H26.3127C28.3767 185.976 31.4807 183.528 31.4807 180.648C31.4807 178.504 30.0727 177.224 27.8967 177.224C25.8167 177.224 24.2647 178.504 24.1687 180.968H25.5767C25.6407 179.512 26.4087 178.472 27.9127 178.472C29.4807 178.472 30.0407 179.432 30.0407 180.712C30.0407 183.08 27.1607 185.384 24.1207 187.832V188.872ZM33.4998 183.096C33.4998 186.456 34.3318 189 37.5318 189C40.7158 189 41.5478 186.456 41.5478 183.096C41.5478 179.784 40.7158 177.256 37.5318 177.256C34.3318 177.256 33.4998 179.784 33.4998 183.096ZM40.1078 183.096C40.1078 185.592 39.8038 187.672 37.5318 187.672C35.2438 187.672 34.9398 185.592 34.9398 183.096C34.9398 180.696 35.2438 178.584 37.5318 178.584C39.8038 178.584 40.1078 180.696 40.1078 183.096ZM43.2267 180.04C43.2267 181.544 44.2347 182.44 45.5627 182.44C46.9067 182.44 47.8987 181.544 47.8987 180.04C47.8987 178.552 46.9067 177.656 45.5627 177.656C44.2347 177.656 43.2267 178.552 43.2267 180.04ZM45.5627 178.552C46.2667 178.552 46.7467 179.032 46.7467 180.04C46.7467 181.032 46.2667 181.544 45.5627 181.544C44.8587 181.544 44.3947 181.032 44.3947 180.04C44.3947 179.032 44.8587 178.552 45.5627 178.552ZM44.6507 189H46.0907L52.5707 177.832H51.1307L44.6507 189ZM49.3547 186.792C49.3547 188.28 50.3467 189.192 51.6907 189.192C53.0187 189.192 54.0107 188.28 54.0107 186.792C54.0107 185.288 53.0187 184.392 51.6907 184.392C50.3467 184.392 49.3547 185.288 49.3547 186.792ZM51.6747 185.304C52.3787 185.304 52.8587 185.784 52.8587 186.792C52.8587 187.784 52.3787 188.264 51.6747 188.264C50.9707 188.264 50.4907 187.784 50.4907 186.792C50.4907 185.784 50.9707 185.304 51.6747 185.304Z" fill="white"/>
<path d="M24.1319 62.344H25.5559C25.6999 61.224 26.5159 60.456 27.8759 60.456C29.2679 60.456 30.0039 61.224 30.0039 62.328C30.0039 63.672 28.9639 64.264 27.0279 64.28H26.6439V65.496H27.0119C29.0919 65.496 30.2279 66.12 30.2279 67.752C30.2279 68.936 29.4919 69.848 27.9399 69.848C26.4039 69.848 25.5079 68.904 25.3639 67.672H23.9559C24.1319 69.912 25.7639 71.08 27.9559 71.08C30.3719 71.08 31.6199 69.672 31.6199 67.88C31.6199 66.216 30.7079 65.224 29.3639 64.904V64.824C30.5799 64.552 31.4119 63.512 31.4119 62.184C31.4119 60.52 30.1799 59.208 27.9239 59.208C25.7799 59.208 24.2759 60.36 24.1319 62.344ZM35.6978 64.984C34.4018 65.368 33.5538 66.424 33.5538 67.88C33.5538 69.976 35.2018 71.32 37.6338 71.32C40.0818 71.32 41.7458 69.976 41.7458 67.88C41.7458 66.44 40.8978 65.384 39.5858 64.984C40.7218 64.536 41.4418 63.576 41.4418 62.328C41.4418 60.648 40.1458 59.256 37.6338 59.256C35.1218 59.256 33.8418 60.632 33.8418 62.328C33.8418 63.624 34.5138 64.52 35.6978 64.984ZM37.6338 64.504C36.2258 64.504 35.2498 63.72 35.2498 62.52C35.2498 61.16 36.2098 60.472 37.6338 60.472C39.0898 60.472 40.0338 61.176 40.0338 62.504C40.0338 63.704 39.0578 64.504 37.6338 64.504ZM37.6338 65.624C39.1538 65.624 40.3058 66.344 40.3058 67.832C40.3058 69.176 39.2818 70.104 37.6338 70.104C35.9858 70.104 34.9457 69.192 34.9457 67.832C34.9457 66.296 36.1458 65.624 37.6338 65.624ZM43.3595 62.04C43.3595 63.544 44.3675 64.44 45.6955 64.44C47.0395 64.44 48.0315 63.544 48.0315 62.04C48.0315 60.552 47.0395 59.656 45.6955 59.656C44.3675 59.656 43.3595 60.552 43.3595 62.04ZM45.6955 60.552C46.3995 60.552 46.8795 61.032 46.8795 62.04C46.8795 63.032 46.3995 63.544 45.6955 63.544C44.9915 63.544 44.5275 63.032 44.5275 62.04C44.5275 61.032 44.9915 60.552 45.6955 60.552ZM44.7835 71H46.2235L52.7035 59.832H51.2635L44.7835 71ZM49.4875 68.792C49.4875 70.28 50.4795 71.192 51.8235 71.192C53.1515 71.192 54.1435 70.28 54.1435 68.792C54.1435 67.288 53.1515 66.392 51.8235 66.392C50.4795 66.392 49.4875 67.288 49.4875 68.792ZM51.8075 67.304C52.5115 67.304 52.9915 67.784 52.9915 68.792C52.9915 69.784 52.5115 70.264 51.8075 70.264C51.1035 70.264 50.6235 69.784 50.6235 68.792C50.6235 67.784 51.1035 67.304 51.8075 67.304Z" fill="#070707"/>
<rect x="112" y="86" width="78" height="132" rx="4" fill="url(#paint12_linear)"/>
<rect x="112" y="63" width="78" height="28" rx="4" fill="url(#paint13_linear)"/>
<path d="M136.121 183.872H143.817V182.656H138.313C140.377 180.976 143.481 178.528 143.481 175.648C143.481 173.504 142.073 172.224 139.897 172.224C137.817 172.224 136.265 173.504 136.169 175.968H137.577C137.641 174.512 138.409 173.472 139.913 173.472C141.481 173.472 142.041 174.432 142.041 175.712C142.041 178.08 139.161 180.384 136.121 182.832V183.872ZM145.5 178.096C145.5 181.456 146.332 184 149.532 184C152.716 184 153.548 181.456 153.548 178.096C153.548 174.784 152.716 172.256 149.532 172.256C146.332 172.256 145.5 174.784 145.5 178.096ZM152.108 178.096C152.108 180.592 151.804 182.672 149.532 182.672C147.244 182.672 146.94 180.592 146.94 178.096C146.94 175.696 147.244 173.584 149.532 173.584C151.804 173.584 152.108 175.696 152.108 178.096ZM155.227 175.04C155.227 176.544 156.235 177.44 157.563 177.44C158.907 177.44 159.899 176.544 159.899 175.04C159.899 173.552 158.907 172.656 157.563 172.656C156.235 172.656 155.227 173.552 155.227 175.04ZM157.563 173.552C158.267 173.552 158.747 174.032 158.747 175.04C158.747 176.032 158.267 176.544 157.563 176.544C156.859 176.544 156.395 176.032 156.395 175.04C156.395 174.032 156.859 173.552 157.563 173.552ZM156.651 184H158.091L164.571 172.832H163.131L156.651 184ZM161.355 181.792C161.355 183.28 162.347 184.192 163.691 184.192C165.019 184.192 166.011 183.28 166.011 181.792C166.011 180.288 165.019 179.392 163.691 179.392C162.347 179.392 161.355 180.288 161.355 181.792ZM163.675 180.304C164.379 180.304 164.859 180.784 164.859 181.792C164.859 182.784 164.379 183.264 163.675 183.264C162.971 183.264 162.491 182.784 162.491 181.792C162.491 180.784 162.971 180.304 163.675 180.304Z" fill="white"/>
<path d="M136.132 40.344H137.556C137.7 39.224 138.516 38.456 139.876 38.456C141.268 38.456 142.004 39.224 142.004 40.328C142.004 41.672 140.964 42.264 139.028 42.28H138.644V43.496H139.012C141.092 43.496 142.228 44.12 142.228 45.752C142.228 46.936 141.492 47.848 139.94 47.848C138.404 47.848 137.508 46.904 137.364 45.672H135.956C136.132 47.912 137.764 49.08 139.956 49.08C142.372 49.08 143.62 47.672 143.62 45.88C143.62 44.216 142.708 43.224 141.364 42.904V42.824C142.58 42.552 143.412 41.512 143.412 40.184C143.412 38.52 142.18 37.208 139.924 37.208C137.78 37.208 136.276 38.36 136.132 40.344ZM147.698 42.984C146.402 43.368 145.554 44.424 145.554 45.88C145.554 47.976 147.202 49.32 149.634 49.32C152.082 49.32 153.746 47.976 153.746 45.88C153.746 44.44 152.898 43.384 151.586 42.984C152.722 42.536 153.442 41.576 153.442 40.328C153.442 38.648 152.146 37.256 149.634 37.256C147.122 37.256 145.842 38.632 145.842 40.328C145.842 41.624 146.514 42.52 147.698 42.984ZM149.634 42.504C148.226 42.504 147.25 41.72 147.25 40.52C147.25 39.16 148.21 38.472 149.634 38.472C151.09 38.472 152.034 39.176 152.034 40.504C152.034 41.704 151.058 42.504 149.634 42.504ZM149.634 43.624C151.154 43.624 152.306 44.344 152.306 45.832C152.306 47.176 151.282 48.104 149.634 48.104C147.986 48.104 146.946 47.192 146.946 45.832C146.946 44.296 148.146 43.624 149.634 43.624ZM155.36 40.04C155.36 41.544 156.368 42.44 157.696 42.44C159.04 42.44 160.032 41.544 160.032 40.04C160.032 38.552 159.04 37.656 157.696 37.656C156.368 37.656 155.36 38.552 155.36 40.04ZM157.696 38.552C158.4 38.552 158.88 39.032 158.88 40.04C158.88 41.032 158.4 41.544 157.696 41.544C156.992 41.544 156.528 41.032 156.528 40.04C156.528 39.032 156.992 38.552 157.696 38.552ZM156.784 49H158.224L164.704 37.832H163.264L156.784 49ZM161.488 46.792C161.488 48.28 162.48 49.192 163.824 49.192C165.152 49.192 166.144 48.28 166.144 46.792C166.144 45.288 165.152 44.392 163.824 44.392C162.48 44.392 161.488 45.288 161.488 46.792ZM163.808 45.304C164.512 45.304 164.992 45.784 164.992 46.792C164.992 47.784 164.512 48.264 163.808 48.264C163.104 48.264 162.624 47.784 162.624 46.792C162.624 45.784 163.104 45.304 163.808 45.304Z" fill="#070707"/>
<rect x="227" y="74" width="78" height="144" rx="4" fill="url(#paint14_linear)"/>
<rect x="227" y="49" width="78" height="30" rx="4" fill="url(#paint15_linear)"/>
<path d="M251.121 179.872H258.817V178.656H253.313C255.377 176.976 258.481 174.528 258.481 171.648C258.481 169.504 257.073 168.224 254.897 168.224C252.817 168.224 251.265 169.504 251.169 171.968H252.577C252.641 170.512 253.409 169.472 254.913 169.472C256.481 169.472 257.041 170.432 257.041 171.712C257.041 174.08 254.161 176.384 251.121 178.832V179.872ZM260.5 174.096C260.5 177.456 261.332 180 264.532 180C267.716 180 268.548 177.456 268.548 174.096C268.548 170.784 267.716 168.256 264.532 168.256C261.332 168.256 260.5 170.784 260.5 174.096ZM267.108 174.096C267.108 176.592 266.804 178.672 264.532 178.672C262.244 178.672 261.94 176.592 261.94 174.096C261.94 171.696 262.244 169.584 264.532 169.584C266.804 169.584 267.108 171.696 267.108 174.096ZM270.227 171.04C270.227 172.544 271.235 173.44 272.563 173.44C273.907 173.44 274.899 172.544 274.899 171.04C274.899 169.552 273.907 168.656 272.563 168.656C271.235 168.656 270.227 169.552 270.227 171.04ZM272.563 169.552C273.267 169.552 273.747 170.032 273.747 171.04C273.747 172.032 273.267 172.544 272.563 172.544C271.859 172.544 271.395 172.032 271.395 171.04C271.395 170.032 271.859 169.552 272.563 169.552ZM271.651 180H273.091L279.571 168.832H278.131L271.651 180ZM276.355 177.792C276.355 179.28 277.347 180.192 278.691 180.192C280.019 180.192 281.011 179.28 281.011 177.792C281.011 176.288 280.019 175.392 278.691 175.392C277.347 175.392 276.355 176.288 276.355 177.792ZM278.675 176.304C279.379 176.304 279.859 176.784 279.859 177.792C279.859 178.784 279.379 179.264 278.675 179.264C277.971 179.264 277.491 178.784 277.491 177.792C277.491 176.784 277.971 176.304 278.675 176.304Z" fill="white"/>
<path d="M251.132 24.344H252.556C252.7 23.224 253.516 22.456 254.876 22.456C256.268 22.456 257.004 23.224 257.004 24.328C257.004 25.672 255.964 26.264 254.028 26.28H253.644V27.496H254.012C256.092 27.496 257.228 28.12 257.228 29.752C257.228 30.936 256.492 31.848 254.94 31.848C253.404 31.848 252.508 30.904 252.364 29.672H250.956C251.132 31.912 252.764 33.08 254.956 33.08C257.372 33.08 258.62 31.672 258.62 29.88C258.62 28.216 257.708 27.224 256.364 26.904V26.824C257.58 26.552 258.412 25.512 258.412 24.184C258.412 22.52 257.18 21.208 254.924 21.208C252.78 21.208 251.276 22.36 251.132 24.344ZM262.698 26.984C261.402 27.368 260.554 28.424 260.554 29.88C260.554 31.976 262.202 33.32 264.634 33.32C267.082 33.32 268.746 31.976 268.746 29.88C268.746 28.44 267.898 27.384 266.586 26.984C267.722 26.536 268.442 25.576 268.442 24.328C268.442 22.648 267.146 21.256 264.634 21.256C262.122 21.256 260.842 22.632 260.842 24.328C260.842 25.624 261.514 26.52 262.698 26.984ZM264.634 26.504C263.226 26.504 262.25 25.72 262.25 24.52C262.25 23.16 263.21 22.472 264.634 22.472C266.09 22.472 267.034 23.176 267.034 24.504C267.034 25.704 266.058 26.504 264.634 26.504ZM264.634 27.624C266.154 27.624 267.306 28.344 267.306 29.832C267.306 31.176 266.282 32.104 264.634 32.104C262.986 32.104 261.946 31.192 261.946 29.832C261.946 28.296 263.146 27.624 264.634 27.624ZM270.36 24.04C270.36 25.544 271.368 26.44 272.696 26.44C274.04 26.44 275.032 25.544 275.032 24.04C275.032 22.552 274.04 21.656 272.696 21.656C271.368 21.656 270.36 22.552 270.36 24.04ZM272.696 22.552C273.4 22.552 273.88 23.032 273.88 24.04C273.88 25.032 273.4 25.544 272.696 25.544C271.992 25.544 271.528 25.032 271.528 24.04C271.528 23.032 271.992 22.552 272.696 22.552ZM271.784 33H273.224L279.704 21.832H278.264L271.784 33ZM276.488 30.792C276.488 32.28 277.48 33.192 278.824 33.192C280.152 33.192 281.144 32.28 281.144 30.792C281.144 29.288 280.152 28.392 278.824 28.392C277.48 28.392 276.488 29.288 276.488 30.792ZM278.808 29.304C279.512 29.304 279.992 29.784 279.992 30.792C279.992 31.784 279.512 32.264 278.808 32.264C278.104 32.264 277.624 31.784 277.624 30.792C277.624 29.784 278.104 29.304 278.808 29.304Z" fill="#070707"/>
<rect x="339" y="64" width="78" height="154" rx="4" fill="url(#paint16_linear)"/>
<rect x="339" y="38" width="78" height="32" rx="4" fill="url(#paint17_linear)"/>
<path d="M363.121 176.872H370.817V175.656H365.313C367.377 173.976 370.481 171.528 370.481 168.648C370.481 166.504 369.073 165.224 366.897 165.224C364.817 165.224 363.265 166.504 363.169 168.968H364.577C364.641 167.512 365.409 166.472 366.913 166.472C368.481 166.472 369.041 167.432 369.041 168.712C369.041 171.08 366.161 173.384 363.121 175.832V176.872ZM372.5 171.096C372.5 174.456 373.332 177 376.532 177C379.716 177 380.548 174.456 380.548 171.096C380.548 167.784 379.716 165.256 376.532 165.256C373.332 165.256 372.5 167.784 372.5 171.096ZM379.108 171.096C379.108 173.592 378.804 175.672 376.532 175.672C374.244 175.672 373.94 173.592 373.94 171.096C373.94 168.696 374.244 166.584 376.532 166.584C378.804 166.584 379.108 168.696 379.108 171.096ZM382.227 168.04C382.227 169.544 383.235 170.44 384.563 170.44C385.907 170.44 386.899 169.544 386.899 168.04C386.899 166.552 385.907 165.656 384.563 165.656C383.235 165.656 382.227 166.552 382.227 168.04ZM384.563 166.552C385.267 166.552 385.747 167.032 385.747 168.04C385.747 169.032 385.267 169.544 384.563 169.544C383.859 169.544 383.395 169.032 383.395 168.04C383.395 167.032 383.859 166.552 384.563 166.552ZM383.651 177H385.091L391.571 165.832H390.131L383.651 177ZM388.355 174.792C388.355 176.28 389.347 177.192 390.691 177.192C392.019 177.192 393.011 176.28 393.011 174.792C393.011 173.288 392.019 172.392 390.691 172.392C389.347 172.392 388.355 173.288 388.355 174.792ZM390.675 173.304C391.379 173.304 391.859 173.784 391.859 174.792C391.859 175.784 391.379 176.264 390.675 176.264C389.971 176.264 389.491 175.784 389.491 174.792C389.491 173.784 389.971 173.304 390.675 173.304Z" fill="white"/>
<path d="M363.132 12.344H364.556C364.7 11.224 365.516 10.456 366.876 10.456C368.268 10.456 369.004 11.224 369.004 12.328C369.004 13.672 367.964 14.264 366.028 14.28H365.644V15.496H366.012C368.092 15.496 369.228 16.12 369.228 17.752C369.228 18.936 368.492 19.848 366.94 19.848C365.404 19.848 364.508 18.904 364.364 17.672H362.956C363.132 19.912 364.764 21.08 366.956 21.08C369.372 21.08 370.62 19.672 370.62 17.88C370.62 16.216 369.708 15.224 368.364 14.904V14.824C369.58 14.552 370.412 13.512 370.412 12.184C370.412 10.52 369.18 9.208 366.924 9.208C364.78 9.208 363.276 10.36 363.132 12.344ZM374.698 14.984C373.402 15.368 372.554 16.424 372.554 17.88C372.554 19.976 374.202 21.32 376.634 21.32C379.082 21.32 380.746 19.976 380.746 17.88C380.746 16.44 379.898 15.384 378.586 14.984C379.722 14.536 380.442 13.576 380.442 12.328C380.442 10.648 379.146 9.256 376.634 9.256C374.122 9.256 372.842 10.632 372.842 12.328C372.842 13.624 373.514 14.52 374.698 14.984ZM376.634 14.504C375.226 14.504 374.25 13.72 374.25 12.52C374.25 11.16 375.21 10.472 376.634 10.472C378.09 10.472 379.034 11.176 379.034 12.504C379.034 13.704 378.058 14.504 376.634 14.504ZM376.634 15.624C378.154 15.624 379.306 16.344 379.306 17.832C379.306 19.176 378.282 20.104 376.634 20.104C374.986 20.104 373.946 19.192 373.946 17.832C373.946 16.296 375.146 15.624 376.634 15.624ZM382.36 12.04C382.36 13.544 383.368 14.44 384.696 14.44C386.04 14.44 387.032 13.544 387.032 12.04C387.032 10.552 386.04 9.656 384.696 9.656C383.368 9.656 382.36 10.552 382.36 12.04ZM384.696 10.552C385.4 10.552 385.88 11.032 385.88 12.04C385.88 13.032 385.4 13.544 384.696 13.544C383.992 13.544 383.528 13.032 383.528 12.04C383.528 11.032 383.992 10.552 384.696 10.552ZM383.784 21H385.224L391.704 9.832H390.264L383.784 21ZM388.488 18.792C388.488 20.28 389.48 21.192 390.824 21.192C392.152 21.192 393.144 20.28 393.144 18.792C393.144 17.288 392.152 16.392 390.824 16.392C389.48 16.392 388.488 17.288 388.488 18.792ZM390.808 17.304C391.512 17.304 391.992 17.784 391.992 18.792C391.992 19.784 391.512 20.264 390.808 20.264C390.104 20.264 389.624 19.784 389.624 18.792C389.624 17.784 390.104 17.304 390.808 17.304Z" fill="#070707"/>
<rect x="452" y="57" width="78" height="161" rx="4" fill="url(#paint18_linear)"/>
<rect x="452" y="30" width="78" height="33" rx="4" fill="url(#paint19_linear)"/>
<path d="M476.121 174.872H483.817V173.656H478.313C480.377 171.976 483.481 169.528 483.481 166.648C483.481 164.504 482.073 163.224 479.897 163.224C477.817 163.224 476.265 164.504 476.169 166.968H477.577C477.641 165.512 478.409 164.472 479.913 164.472C481.481 164.472 482.041 165.432 482.041 166.712C482.041 169.08 479.161 171.384 476.121 173.832V174.872ZM485.5 169.096C485.5 172.456 486.332 175 489.532 175C492.716 175 493.548 172.456 493.548 169.096C493.548 165.784 492.716 163.256 489.532 163.256C486.332 163.256 485.5 165.784 485.5 169.096ZM492.108 169.096C492.108 171.592 491.804 173.672 489.532 173.672C487.244 173.672 486.94 171.592 486.94 169.096C486.94 166.696 487.244 164.584 489.532 164.584C491.804 164.584 492.108 166.696 492.108 169.096ZM495.227 166.04C495.227 167.544 496.235 168.44 497.563 168.44C498.907 168.44 499.899 167.544 499.899 166.04C499.899 164.552 498.907 163.656 497.563 163.656C496.235 163.656 495.227 164.552 495.227 166.04ZM497.563 164.552C498.267 164.552 498.747 165.032 498.747 166.04C498.747 167.032 498.267 167.544 497.563 167.544C496.859 167.544 496.395 167.032 496.395 166.04C496.395 165.032 496.859 164.552 497.563 164.552ZM496.651 175H498.091L504.571 163.832H503.131L496.651 175ZM501.355 172.792C501.355 174.28 502.347 175.192 503.691 175.192C505.019 175.192 506.011 174.28 506.011 172.792C506.011 171.288 505.019 170.392 503.691 170.392C502.347 170.392 501.355 171.288 501.355 172.792ZM503.675 171.304C504.379 171.304 504.859 171.784 504.859 172.792C504.859 173.784 504.379 174.264 503.675 174.264C502.971 174.264 502.491 173.784 502.491 172.792C502.491 171.784 502.971 171.304 503.675 171.304Z" fill="white"/>
<path d="M476.132 3.344H477.556C477.7 2.224 478.516 1.456 479.876 1.456C481.268 1.456 482.004 2.224 482.004 3.328C482.004 4.672 480.964 5.264 479.028 5.28H478.644V6.496H479.012C481.092 6.496 482.228 7.12 482.228 8.752C482.228 9.936 481.492 10.848 479.94 10.848C478.404 10.848 477.508 9.904 477.364 8.672H475.956C476.132 10.912 477.764 12.08 479.956 12.08C482.372 12.08 483.62 10.672 483.62 8.88C483.62 7.216 482.708 6.224 481.364 5.904V5.824C482.58 5.552 483.412 4.512 483.412 3.184C483.412 1.52 482.18 0.207999 479.924 0.207999C477.78 0.207999 476.276 1.36 476.132 3.344ZM487.698 5.984C486.402 6.368 485.554 7.424 485.554 8.88C485.554 10.976 487.202 12.32 489.634 12.32C492.082 12.32 493.746 10.976 493.746 8.88C493.746 7.44 492.898 6.384 491.586 5.984C492.722 5.536 493.442 4.576 493.442 3.328C493.442 1.648 492.146 0.256 489.634 0.256C487.122 0.256 485.842 1.632 485.842 3.328C485.842 4.624 486.514 5.52 487.698 5.984ZM489.634 5.504C488.226 5.504 487.25 4.72 487.25 3.52C487.25 2.16 488.21 1.472 489.634 1.472C491.09 1.472 492.034 2.176 492.034 3.504C492.034 4.704 491.058 5.504 489.634 5.504ZM489.634 6.624C491.154 6.624 492.306 7.344 492.306 8.832C492.306 10.176 491.282 11.104 489.634 11.104C487.986 11.104 486.946 10.192 486.946 8.832C486.946 7.296 488.146 6.624 489.634 6.624ZM495.36 3.04C495.36 4.544 496.368 5.44 497.696 5.44C499.04 5.44 500.032 4.544 500.032 3.04C500.032 1.552 499.04 0.655999 497.696 0.655999C496.368 0.655999 495.36 1.552 495.36 3.04ZM497.696 1.552C498.4 1.552 498.88 2.032 498.88 3.04C498.88 4.032 498.4 4.544 497.696 4.544C496.992 4.544 496.528 4.032 496.528 3.04C496.528 2.032 496.992 1.552 497.696 1.552ZM496.784 12H498.224L504.704 0.832H503.264L496.784 12ZM501.488 9.792C501.488 11.28 502.48 12.192 503.824 12.192C505.152 12.192 506.144 11.28 506.144 9.792C506.144 8.288 505.152 7.392 503.824 7.392C502.48 7.392 501.488 8.288 501.488 9.792ZM503.808 8.304C504.512 8.304 504.992 8.784 504.992 9.792C504.992 10.784 504.512 11.264 503.808 11.264C503.104 11.264 502.624 10.784 502.624 9.792C502.624 8.784 503.104 8.304 503.808 8.304Z" fill="#070707"/>
<defs>
<linearGradient id="paint0_linear" x1="-14.2221" y1="234.455" x2="99.738" y2="208.519" gradientUnits="userSpaceOnUse">
<stop offset="0.073699" stop-color="#16161C"/>
<stop offset="1" stop-color="#33333E"/>
</linearGradient>
<linearGradient id="paint1_linear" x1="-27.1867" y1="69.7734" x2="79.7422" y2="61.3355" gradientUnits="userSpaceOnUse">
<stop offset="0.132808" stop-color="#EE6501"/>
<stop offset="1" stop-color="#FBA600"/>
</linearGradient>
<linearGradient id="paint2_linear" x1="97.7779" y1="236.725" x2="213.031" y2="213.674" gradientUnits="userSpaceOnUse">
<stop offset="0.073699" stop-color="#16161C"/>
<stop offset="1" stop-color="#33333E"/>
</linearGradient>
<linearGradient id="paint3_linear" x1="84.8133" y1="49.3063" x2="191.877" y2="41.7629" gradientUnits="userSpaceOnUse">
<stop offset="0.132808" stop-color="#EE6501"/>
<stop offset="1" stop-color="#FBA600"/>
</linearGradient>
<linearGradient id="paint4_linear" x1="212.778" y1="238.427" x2="328.743" y2="217.166" gradientUnits="userSpaceOnUse">
<stop offset="0.073699" stop-color="#16161C"/>
<stop offset="1" stop-color="#33333E"/>
</linearGradient>
<linearGradient id="paint5_linear" x1="199.813" y1="34.3281" x2="306.945" y2="27.2832" gradientUnits="userSpaceOnUse">
<stop offset="0.132808" stop-color="#EE6501"/>
<stop offset="1" stop-color="#FBA600"/>
</linearGradient>
<linearGradient id="paint6_linear" x1="324.778" y1="239.846" x2="441.219" y2="219.884" gradientUnits="userSpaceOnUse">
<stop offset="0.073699" stop-color="#16161C"/>
<stop offset="1" stop-color="#33333E"/>
</linearGradient>
<linearGradient id="paint7_linear" x1="311.813" y1="22.35" x2="419.001" y2="15.7419" gradientUnits="userSpaceOnUse">
<stop offset="0.132808" stop-color="#EE6501"/>
<stop offset="1" stop-color="#FBA600"/>
</linearGradient>
<linearGradient id="paint8_linear" x1="437.778" y1="240.838" x2="554.502" y2="221.698" gradientUnits="userSpaceOnUse">
<stop offset="0.073699" stop-color="#16161C"/>
<stop offset="1" stop-color="#33333E"/>
</linearGradient>
<linearGradient id="paint9_linear" x1="424.813" y1="13.8609" x2="532.025" y2="7.45166" gradientUnits="userSpaceOnUse">
<stop offset="0.132808" stop-color="#EE6501"/>
<stop offset="1" stop-color="#FBA600"/>
</linearGradient>
<linearGradient id="paint10_linear" x1="-14.2221" y1="234.455" x2="99.738" y2="208.519" gradientUnits="userSpaceOnUse">
<stop offset="0.073699" stop-color="#16161C"/>
<stop offset="1" stop-color="#33333E"/>
</linearGradient>
<linearGradient id="paint11_linear" x1="-27.1867" y1="69.7734" x2="79.7422" y2="61.3355" gradientUnits="userSpaceOnUse">
<stop offset="0.132808" stop-color="#EE6501"/>
<stop offset="1" stop-color="#FBA600"/>
</linearGradient>
<linearGradient id="paint12_linear" x1="97.7779" y1="236.725" x2="213.031" y2="213.674" gradientUnits="userSpaceOnUse">
<stop offset="0.073699" stop-color="#16161C"/>
<stop offset="1" stop-color="#33333E"/>
</linearGradient>
<linearGradient id="paint13_linear" x1="84.8133" y1="49.3063" x2="191.877" y2="41.7629" gradientUnits="userSpaceOnUse">
<stop offset="0.132808" stop-color="#EE6501"/>
<stop offset="1" stop-color="#FBA600"/>
</linearGradient>
<linearGradient id="paint14_linear" x1="212.778" y1="238.427" x2="328.743" y2="217.166" gradientUnits="userSpaceOnUse">
<stop offset="0.073699" stop-color="#16161C"/>
<stop offset="1" stop-color="#33333E"/>
</linearGradient>
<linearGradient id="paint15_linear" x1="199.813" y1="34.3281" x2="306.945" y2="27.2832" gradientUnits="userSpaceOnUse">
<stop offset="0.132808" stop-color="#EE6501"/>
<stop offset="1" stop-color="#FBA600"/>
</linearGradient>
<linearGradient id="paint16_linear" x1="324.778" y1="239.846" x2="441.219" y2="219.884" gradientUnits="userSpaceOnUse">
<stop offset="0.073699" stop-color="#16161C"/>
<stop offset="1" stop-color="#33333E"/>
</linearGradient>
<linearGradient id="paint17_linear" x1="311.813" y1="22.35" x2="419.001" y2="15.7419" gradientUnits="userSpaceOnUse">
<stop offset="0.132808" stop-color="#EE6501"/>
<stop offset="1" stop-color="#FBA600"/>
</linearGradient>
<linearGradient id="paint18_linear" x1="437.778" y1="240.838" x2="554.502" y2="221.698" gradientUnits="userSpaceOnUse">
<stop offset="0.073699" stop-color="#16161C"/>
<stop offset="1" stop-color="#33333E"/>
</linearGradient>
<linearGradient id="paint19_linear" x1="424.813" y1="13.8609" x2="532.025" y2="7.45166" gradientUnits="userSpaceOnUse">
<stop offset="0.132808" stop-color="#EE6501"/>
<stop offset="1" stop-color="#FBA600"/>
</linearGradient>
</defs>
</svg>
