<svg width="543" height="282" viewBox="0 0 543 282" fill="none" xmlns="http://www.w3.org/2000/svg">
<rect y="228" width="78" height="18" rx="5" fill="white"/>
<path d="M22.5894 280.872H30.2854V279.656H24.7814C26.8454 277.976 29.9494 275.528 29.9494 272.648C29.9494 270.504 28.5414 269.224 26.3654 269.224C24.2854 269.224 22.7334 270.504 22.6374 272.968H24.0454C24.1094 271.512 24.8774 270.472 26.3814 270.472C27.9494 270.472 28.5094 271.432 28.5094 272.712C28.5094 275.08 25.6294 277.384 22.5894 279.832V280.872ZM31.9686 275.096C31.9686 278.456 32.8006 281 36.0006 281C39.1846 281 40.0166 278.456 40.0166 275.096C40.0166 271.784 39.1846 269.256 36.0006 269.256C32.8006 269.256 31.9686 271.784 31.9686 275.096ZM38.5766 275.096C38.5766 277.592 38.2726 279.672 36.0006 279.672C33.7126 279.672 33.4086 277.592 33.4086 275.096C33.4086 272.696 33.7126 270.584 36.0006 270.584C38.2726 270.584 38.5766 272.696 38.5766 275.096ZM43.1674 281H44.6394V269.432H41.6314V270.76H43.1674V281ZM47.6684 277.896C47.8284 279.592 48.9484 281.016 51.2524 281.016C54.2924 281.016 55.1724 278.856 55.1724 275C55.1724 271.416 54.2604 269.208 51.1244 269.208C48.6284 269.208 47.3164 270.808 47.3164 273.016C47.3164 275.464 48.9004 276.792 51.0284 276.792C52.2764 276.792 53.4284 276.232 53.8924 275.256C53.9404 278.648 53.0284 279.8 51.3324 279.8C49.9884 279.8 49.2204 279.096 49.0124 277.896H47.6684ZM51.2684 275.56C49.5404 275.56 48.7084 274.472 48.7084 272.984C48.7084 271.448 49.6524 270.424 51.1564 270.424C52.8204 270.424 53.7164 271.528 53.7164 273.096C53.7164 274.648 52.6604 275.56 51.2684 275.56Z" fill="white"/>
<path d="M29.1441 215.872H36.8401V214.656H31.3361C33.4001 212.976 36.5041 210.528 36.5041 207.648C36.5041 205.504 35.0961 204.224 32.9201 204.224C30.8401 204.224 29.2881 205.504 29.1921 207.968H30.6001C30.6641 206.512 31.4321 205.472 32.9361 205.472C34.5041 205.472 35.0641 206.432 35.0641 207.712C35.0641 210.08 32.1841 212.384 29.1441 214.832V215.872ZM38.2033 207.04C38.2033 208.544 39.2113 209.44 40.5393 209.44C41.8833 209.44 42.8753 208.544 42.8753 207.04C42.8753 205.552 41.8833 204.656 40.5393 204.656C39.2113 204.656 38.2033 205.552 38.2033 207.04ZM40.5393 205.552C41.2433 205.552 41.7233 206.032 41.7233 207.04C41.7233 208.032 41.2433 208.544 40.5393 208.544C39.8353 208.544 39.3713 208.032 39.3713 207.04C39.3713 206.032 39.8353 205.552 40.5393 205.552ZM39.6273 216H41.0673L47.5473 204.832H46.1073L39.6273 216ZM44.3313 213.792C44.3313 215.28 45.3233 216.192 46.6673 216.192C47.9953 216.192 48.9873 215.28 48.9873 213.792C48.9873 212.288 47.9953 211.392 46.6673 211.392C45.3233 211.392 44.3313 212.288 44.3313 213.792ZM46.6513 212.304C47.3553 212.304 47.8353 212.784 47.8353 213.792C47.8353 214.784 47.3553 215.264 46.6513 215.264C45.9473 215.264 45.4673 214.784 45.4673 213.792C45.4673 212.784 45.9473 212.304 46.6513 212.304Z" fill="white"/>
<rect x="93" y="193" width="78" height="53" rx="5" fill="white"/>
<path d="M113.566 280.872H121.262V279.656H115.758C117.822 277.976 120.926 275.528 120.926 272.648C120.926 270.504 119.518 269.224 117.342 269.224C115.262 269.224 113.71 270.504 113.614 272.968H115.022C115.086 271.512 115.854 270.472 117.358 270.472C118.926 270.472 119.486 271.432 119.486 272.712C119.486 275.08 116.606 277.384 113.566 279.832V280.872ZM122.945 275.096C122.945 278.456 123.777 281 126.977 281C130.161 281 130.993 278.456 130.993 275.096C130.993 271.784 130.161 269.256 126.977 269.256C123.777 269.256 122.945 271.784 122.945 275.096ZM129.553 275.096C129.553 277.592 129.249 279.672 126.977 279.672C124.689 279.672 124.385 277.592 124.385 275.096C124.385 272.696 124.689 270.584 126.977 270.584C129.249 270.584 129.553 272.696 129.553 275.096ZM132.816 280.872H140.512V279.656H135.008C137.072 277.976 140.176 275.528 140.176 272.648C140.176 270.504 138.768 269.224 136.592 269.224C134.512 269.224 132.96 270.504 132.864 272.968H134.272C134.336 271.512 135.104 270.472 136.608 270.472C138.176 270.472 138.736 271.432 138.736 272.712C138.736 275.08 135.856 277.384 132.816 279.832V280.872ZM142.195 275.096C142.195 278.456 143.027 281 146.227 281C149.411 281 150.243 278.456 150.243 275.096C150.243 271.784 149.411 269.256 146.227 269.256C143.027 269.256 142.195 271.784 142.195 275.096ZM148.803 275.096C148.803 277.592 148.499 279.672 146.227 279.672C143.939 279.672 143.635 277.592 143.635 275.096C143.635 272.696 143.939 270.584 146.227 270.584C148.499 270.584 148.803 272.696 148.803 275.096Z" fill="white"/>
<path d="M122.411 176.896C122.571 178.592 123.691 180.016 125.995 180.016C129.035 180.016 129.915 177.856 129.915 174C129.915 170.416 129.003 168.208 125.867 168.208C123.371 168.208 122.059 169.808 122.059 172.016C122.059 174.464 123.643 175.792 125.771 175.792C127.019 175.792 128.171 175.232 128.635 174.256C128.683 177.648 127.771 178.8 126.075 178.8C124.731 178.8 123.963 178.096 123.755 176.896H122.411ZM126.011 174.56C124.283 174.56 123.451 173.472 123.451 171.984C123.451 170.448 124.395 169.424 125.899 169.424C127.563 169.424 128.459 170.528 128.459 172.096C128.459 173.648 127.403 174.56 126.011 174.56ZM131.641 171.04C131.641 172.544 132.649 173.44 133.977 173.44C135.321 173.44 136.313 172.544 136.313 171.04C136.313 169.552 135.321 168.656 133.977 168.656C132.649 168.656 131.641 169.552 131.641 171.04ZM133.977 169.552C134.681 169.552 135.161 170.032 135.161 171.04C135.161 172.032 134.681 172.544 133.977 172.544C133.273 172.544 132.809 172.032 132.809 171.04C132.809 170.032 133.273 169.552 133.977 169.552ZM133.065 180H134.505L140.985 168.832H139.545L133.065 180ZM137.769 177.792C137.769 179.28 138.761 180.192 140.105 180.192C141.433 180.192 142.425 179.28 142.425 177.792C142.425 176.288 141.433 175.392 140.105 175.392C138.761 175.392 137.769 176.288 137.769 177.792ZM140.089 176.304C140.793 176.304 141.273 176.784 141.273 177.792C141.273 178.784 140.793 179.264 140.089 179.264C139.385 179.264 138.905 178.784 138.905 177.792C138.905 176.784 139.385 176.304 140.089 176.304Z" fill="white"/>
<rect x="186" y="172" width="78" height="74" rx="5" fill="white"/>
<path d="M209.027 280.872H216.723V279.656H211.219C213.283 277.976 216.387 275.528 216.387 272.648C216.387 270.504 214.979 269.224 212.803 269.224C210.723 269.224 209.171 270.504 209.075 272.968H210.483C210.547 271.512 211.315 270.472 212.819 270.472C214.387 270.472 214.947 271.432 214.947 272.712C214.947 275.08 212.067 277.384 209.027 279.832V280.872ZM218.406 275.096C218.406 278.456 219.238 281 222.438 281C225.622 281 226.454 278.456 226.454 275.096C226.454 271.784 225.622 269.256 222.438 269.256C219.238 269.256 218.406 271.784 218.406 275.096ZM225.014 275.096C225.014 277.592 224.71 279.672 222.438 279.672C220.15 279.672 219.846 277.592 219.846 275.096C219.846 272.696 220.15 270.584 222.438 270.584C224.71 270.584 225.014 272.696 225.014 275.096ZM228.277 280.872H235.973V279.656H230.469C232.533 277.976 235.637 275.528 235.637 272.648C235.637 270.504 234.229 269.224 232.053 269.224C229.973 269.224 228.421 270.504 228.325 272.968H229.733C229.797 271.512 230.565 270.472 232.069 270.472C233.637 270.472 234.197 271.432 234.197 272.712C234.197 275.08 231.317 277.384 228.277 279.832V280.872ZM238.808 281H240.28V269.432H237.272V270.76H238.808V281Z" fill="white"/>
<path d="M213.8 153H215.272V141.432H212.264V142.76H213.8V153ZM217.741 144.344H219.165C219.309 143.224 220.125 142.456 221.485 142.456C222.877 142.456 223.613 143.224 223.613 144.328C223.613 145.672 222.573 146.264 220.637 146.28H220.253V147.496H220.621C222.701 147.496 223.837 148.12 223.837 149.752C223.837 150.936 223.101 151.848 221.549 151.848C220.013 151.848 219.117 150.904 218.973 149.672H217.565C217.741 151.912 219.373 153.08 221.565 153.08C223.981 153.08 225.229 151.672 225.229 149.88C225.229 148.216 224.317 147.224 222.973 146.904V146.824C224.189 146.552 225.021 145.512 225.021 144.184C225.021 142.52 223.789 141.208 221.533 141.208C219.389 141.208 217.885 142.36 217.741 144.344ZM226.875 144.04C226.875 145.544 227.883 146.44 229.211 146.44C230.555 146.44 231.547 145.544 231.547 144.04C231.547 142.552 230.555 141.656 229.211 141.656C227.883 141.656 226.875 142.552 226.875 144.04ZM229.211 142.552C229.915 142.552 230.395 143.032 230.395 144.04C230.395 145.032 229.915 145.544 229.211 145.544C228.507 145.544 228.043 145.032 228.043 144.04C228.043 143.032 228.507 142.552 229.211 142.552ZM228.299 153H229.739L236.219 141.832H234.779L228.299 153ZM233.003 150.792C233.003 152.28 233.995 153.192 235.339 153.192C236.667 153.192 237.659 152.28 237.659 150.792C237.659 149.288 236.667 148.392 235.339 148.392C233.995 148.392 233.003 149.288 233.003 150.792ZM235.323 149.304C236.027 149.304 236.507 149.784 236.507 150.792C236.507 151.784 236.027 152.264 235.323 152.264C234.619 152.264 234.139 151.784 234.139 150.792C234.139 149.784 234.619 149.304 235.323 149.304Z" fill="white"/>
<rect x="279" y="148" width="78" height="98" rx="5" fill="white"/>
<path d="M299.988 280.872H307.684V279.656H302.18C304.244 277.976 307.348 275.528 307.348 272.648C307.348 270.504 305.94 269.224 303.764 269.224C301.684 269.224 300.132 270.504 300.036 272.968H301.444C301.508 271.512 302.276 270.472 303.78 270.472C305.348 270.472 305.908 271.432 305.908 272.712C305.908 275.08 303.028 277.384 299.988 279.832V280.872ZM309.367 275.096C309.367 278.456 310.199 281 313.399 281C316.583 281 317.415 278.456 317.415 275.096C317.415 271.784 316.583 269.256 313.399 269.256C310.199 269.256 309.367 271.784 309.367 275.096ZM315.975 275.096C315.975 277.592 315.671 279.672 313.399 279.672C311.111 279.672 310.807 277.592 310.807 275.096C310.807 272.696 311.111 270.584 313.399 270.584C315.671 270.584 315.975 272.696 315.975 275.096ZM319.238 280.872H326.934V279.656H321.43C323.494 277.976 326.598 275.528 326.598 272.648C326.598 270.504 325.19 269.224 323.014 269.224C320.934 269.224 319.382 270.504 319.286 272.968H320.694C320.758 271.512 321.526 270.472 323.03 270.472C324.598 270.472 325.158 271.432 325.158 272.712C325.158 275.08 322.278 277.384 319.238 279.832V280.872ZM328.441 280.872H336.137V279.656H330.633C332.697 277.976 335.801 275.528 335.801 272.648C335.801 270.504 334.393 269.224 332.217 269.224C330.137 269.224 328.585 270.504 328.489 272.968H329.897C329.961 271.512 330.729 270.472 332.233 270.472C333.801 270.472 334.361 271.432 334.361 272.712C334.361 275.08 331.481 277.384 328.441 279.832V280.872Z" fill="white"/>
<path d="M305.582 132.872H313.278V131.656H307.774C309.838 129.976 312.942 127.528 312.942 124.648C312.942 122.504 311.534 121.224 309.358 121.224C307.278 121.224 305.726 122.504 305.63 124.968H307.038C307.102 123.512 307.87 122.472 309.374 122.472C310.942 122.472 311.502 123.432 311.502 124.712C311.502 127.08 308.622 129.384 305.582 131.832V132.872ZM316.113 133H317.585V121.432H314.577V122.76H316.113V133ZM319.766 124.04C319.766 125.544 320.774 126.44 322.102 126.44C323.446 126.44 324.438 125.544 324.438 124.04C324.438 122.552 323.446 121.656 322.102 121.656C320.774 121.656 319.766 122.552 319.766 124.04ZM322.102 122.552C322.806 122.552 323.286 123.032 323.286 124.04C323.286 125.032 322.806 125.544 322.102 125.544C321.398 125.544 320.934 125.032 320.934 124.04C320.934 123.032 321.398 122.552 322.102 122.552ZM321.19 133H322.63L329.11 121.832H327.67L321.19 133ZM325.894 130.792C325.894 132.28 326.886 133.192 328.23 133.192C329.558 133.192 330.55 132.28 330.55 130.792C330.55 129.288 329.558 128.392 328.23 128.392C326.886 128.392 325.894 129.288 325.894 130.792ZM328.214 129.304C328.918 129.304 329.398 129.784 329.398 130.792C329.398 131.784 328.918 132.264 328.214 132.264C327.51 132.264 327.03 131.784 327.03 130.792C327.03 129.784 327.51 129.304 328.214 129.304Z" fill="white"/>
<rect x="372" y="130" width="78" height="116" rx="5" fill="white"/>
<path d="M392.879 280.872H400.575V279.656H395.071C397.135 277.976 400.239 275.528 400.239 272.648C400.239 270.504 398.831 269.224 396.655 269.224C394.575 269.224 393.023 270.504 392.927 272.968H394.335C394.399 271.512 395.167 270.472 396.671 270.472C398.239 270.472 398.799 271.432 398.799 272.712C398.799 275.08 395.919 277.384 392.879 279.832V280.872ZM402.258 275.096C402.258 278.456 403.09 281 406.29 281C409.474 281 410.306 278.456 410.306 275.096C410.306 271.784 409.474 269.256 406.29 269.256C403.09 269.256 402.258 271.784 402.258 275.096ZM408.866 275.096C408.866 277.592 408.562 279.672 406.29 279.672C404.002 279.672 403.698 277.592 403.698 275.096C403.698 272.696 404.002 270.584 406.29 270.584C408.562 270.584 408.866 272.696 408.866 275.096ZM412.129 280.872H419.825V279.656H414.321C416.385 277.976 419.489 275.528 419.489 272.648C419.489 270.504 418.081 269.224 415.905 269.224C413.825 269.224 412.273 270.504 412.177 272.968H413.585C413.649 271.512 414.417 270.472 415.921 270.472C417.489 270.472 418.049 271.432 418.049 272.712C418.049 275.08 415.169 277.384 412.129 279.832V280.872ZM421.476 272.344H422.9C423.044 271.224 423.86 270.456 425.22 270.456C426.612 270.456 427.348 271.224 427.348 272.328C427.348 273.672 426.308 274.264 424.372 274.28H423.988V275.496H424.356C426.436 275.496 427.572 276.12 427.572 277.752C427.572 278.936 426.836 279.848 425.284 279.848C423.748 279.848 422.852 278.904 422.708 277.672H421.3C421.476 279.912 423.108 281.08 425.3 281.08C427.716 281.08 428.964 279.672 428.964 277.88C428.964 276.216 428.052 275.224 426.708 274.904V274.824C427.924 274.552 428.756 273.512 428.756 272.184C428.756 270.52 427.524 269.208 425.268 269.208C423.124 269.208 421.62 270.36 421.476 272.344Z" fill="white"/>
<path d="M396.132 104.344H397.556C397.7 103.224 398.516 102.456 399.876 102.456C401.268 102.456 402.004 103.224 402.004 104.328C402.004 105.672 400.964 106.264 399.028 106.28H398.644V107.496H399.012C401.092 107.496 402.228 108.12 402.228 109.752C402.228 110.936 401.492 111.848 399.94 111.848C398.404 111.848 397.508 110.904 397.364 109.672H395.956C396.132 111.912 397.764 113.08 399.956 113.08C402.372 113.08 403.62 111.672 403.62 109.88C403.62 108.216 402.708 107.224 401.364 106.904V106.824C402.58 106.552 403.412 105.512 403.412 104.184C403.412 102.52 402.18 101.208 399.924 101.208C397.78 101.208 396.276 102.36 396.132 104.344ZM407.698 106.984C406.402 107.368 405.554 108.424 405.554 109.88C405.554 111.976 407.202 113.32 409.634 113.32C412.082 113.32 413.746 111.976 413.746 109.88C413.746 108.44 412.898 107.384 411.586 106.984C412.722 106.536 413.442 105.576 413.442 104.328C413.442 102.648 412.146 101.256 409.634 101.256C407.122 101.256 405.842 102.632 405.842 104.328C405.842 105.624 406.514 106.52 407.698 106.984ZM409.634 106.504C408.226 106.504 407.25 105.72 407.25 104.52C407.25 103.16 408.21 102.472 409.634 102.472C411.09 102.472 412.034 103.176 412.034 104.504C412.034 105.704 411.058 106.504 409.634 106.504ZM409.634 107.624C411.154 107.624 412.306 108.344 412.306 109.832C412.306 111.176 411.282 112.104 409.634 112.104C407.986 112.104 406.946 111.192 406.946 109.832C406.946 108.296 408.146 107.624 409.634 107.624ZM415.36 104.04C415.36 105.544 416.368 106.44 417.696 106.44C419.04 106.44 420.032 105.544 420.032 104.04C420.032 102.552 419.04 101.656 417.696 101.656C416.368 101.656 415.36 102.552 415.36 104.04ZM417.696 102.552C418.4 102.552 418.88 103.032 418.88 104.04C418.88 105.032 418.4 105.544 417.696 105.544C416.992 105.544 416.528 105.032 416.528 104.04C416.528 103.032 416.992 102.552 417.696 102.552ZM416.784 113H418.224L424.704 101.832H423.264L416.784 113ZM421.488 110.792C421.488 112.28 422.48 113.192 423.824 113.192C425.152 113.192 426.144 112.28 426.144 110.792C426.144 109.288 425.152 108.392 423.824 108.392C422.48 108.392 421.488 109.288 421.488 110.792ZM423.808 109.304C424.512 109.304 424.992 109.784 424.992 110.792C424.992 111.784 424.512 112.264 423.808 112.264C423.104 112.264 422.624 111.784 422.624 110.792C422.624 109.784 423.104 109.304 423.808 109.304Z" fill="white"/>
<rect x="465" y="28" width="78" height="218" rx="5" fill="#F17301"/>
<path d="M485.558 280.872H493.254V279.656H487.75C489.814 277.976 492.918 275.528 492.918 272.648C492.918 270.504 491.51 269.224 489.334 269.224C487.254 269.224 485.702 270.504 485.606 272.968H487.014C487.078 271.512 487.846 270.472 489.35 270.472C490.918 270.472 491.478 271.432 491.478 272.712C491.478 275.08 488.598 277.384 485.558 279.832V280.872ZM494.937 275.096C494.937 278.456 495.769 281 498.969 281C502.153 281 502.985 278.456 502.985 275.096C502.985 271.784 502.153 269.256 498.969 269.256C495.769 269.256 494.937 271.784 494.937 275.096ZM501.545 275.096C501.545 277.592 501.241 279.672 498.969 279.672C496.681 279.672 496.377 277.592 496.377 275.096C496.377 272.696 496.681 270.584 498.969 270.584C501.241 270.584 501.545 272.696 501.545 275.096ZM504.808 280.872H512.504V279.656H507C509.064 277.976 512.168 275.528 512.168 272.648C512.168 270.504 510.76 269.224 508.584 269.224C506.504 269.224 504.952 270.504 504.856 272.968H506.264C506.328 271.512 507.096 270.472 508.6 270.472C510.168 270.472 510.728 271.432 510.728 272.712C510.728 275.08 507.848 277.384 504.808 279.832V280.872ZM519.755 281H521.195V278.424H522.795V277.16H521.195V269.544H519.451L513.835 277.32V278.424H519.755V281ZM515.515 277.16L519.819 271.064V277.16H515.515Z" fill="white"/>
<path d="M489.067 0.464V1.712H495.243L490.731 12H492.203L496.651 1.568V0.464H489.067ZM498.265 6.096C498.265 9.456 499.097 12 502.297 12C505.481 12 506.313 9.456 506.313 6.096C506.313 2.784 505.481 0.256 502.297 0.256C499.097 0.256 498.265 2.784 498.265 6.096ZM504.873 6.096C504.873 8.592 504.569 10.672 502.297 10.672C500.009 10.672 499.705 8.592 499.705 6.096C499.705 3.696 500.009 1.584 502.297 1.584C504.569 1.584 504.873 3.696 504.873 6.096ZM507.992 3.04C507.992 4.544 509 5.44 510.328 5.44C511.672 5.44 512.664 4.544 512.664 3.04C512.664 1.552 511.672 0.655999 510.328 0.655999C509 0.655999 507.992 1.552 507.992 3.04ZM510.328 1.552C511.032 1.552 511.512 2.032 511.512 3.04C511.512 4.032 511.032 4.544 510.328 4.544C509.624 4.544 509.16 4.032 509.16 3.04C509.16 2.032 509.624 1.552 510.328 1.552ZM509.416 12H510.856L517.336 0.832H515.896L509.416 12ZM514.12 9.792C514.12 11.28 515.112 12.192 516.456 12.192C517.784 12.192 518.776 11.28 518.776 9.792C518.776 8.288 517.784 7.392 516.456 7.392C515.112 7.392 514.12 8.288 514.12 9.792ZM516.44 8.304C517.144 8.304 517.624 8.784 517.624 9.792C517.624 10.784 517.144 11.264 516.44 11.264C515.736 11.264 515.256 10.784 515.256 9.792C515.256 8.784 515.736 8.304 516.44 8.304Z" fill="white"/>
</svg>
