<svg width="558" height="307" viewBox="0 0 558 307" fill="none" xmlns="http://www.w3.org/2000/svg">
<path d="M479.321 20.568H482.327C482.381 19.848 482.741 19.128 483.731 19.128C484.559 19.128 485.081 19.614 485.081 20.496C485.081 21.684 484.073 21.936 483.029 21.936H482.453V24.438H483.029C484.631 24.438 485.333 24.906 485.333 26.076C485.333 26.94 484.811 27.552 483.857 27.552C482.723 27.552 482.165 26.868 482.147 25.842H479.159C479.249 28.812 481.229 30.108 483.965 30.108C486.719 30.108 488.303 28.524 488.303 26.31C488.303 24.582 487.403 23.574 486.089 23.142V23.07C486.989 22.764 488.069 21.846 488.069 20.118C488.069 18.138 486.575 16.554 483.803 16.554C481.121 16.554 479.429 17.976 479.321 20.568ZM489.806 16.878V19.506H495.404L490.832 30H493.982L498.5 19.164V16.878H489.806ZM499.493 20.172C499.493 22.17 500.789 23.214 502.499 23.214C504.209 23.214 505.487 22.17 505.487 20.172C505.487 18.174 504.209 17.13 502.499 17.13C500.789 17.13 499.493 18.174 499.493 20.172ZM502.481 18.93C503.021 18.93 503.363 19.308 503.363 20.172C503.363 21.018 503.021 21.396 502.481 21.396C501.941 21.396 501.617 21.018 501.617 20.172C501.617 19.308 501.941 18.93 502.481 18.93ZM501.815 30H504.785L511.715 17.328H508.745L501.815 30ZM508.061 27.156C508.061 29.154 509.339 30.198 511.049 30.198C512.759 30.198 514.037 29.154 514.037 27.156C514.037 25.14 512.759 24.114 511.049 24.114C509.339 24.114 508.061 25.14 508.061 27.156ZM511.031 25.914C511.571 25.914 511.913 26.31 511.913 27.156C511.913 28.002 511.571 28.38 511.031 28.38C510.491 28.38 510.167 28.002 510.167 27.156C510.167 26.31 510.491 25.914 511.031 25.914Z" fill="#989DAE"/>
<rect x="489" y="44" width="16" height="2" fill="white"/>
<path d="M441.449 56.49H437.363V69H441.449C445.463 69 448.091 66.642 448.091 62.79C448.091 58.92 445.463 56.49 441.449 56.49ZM439.415 67.326V58.164H441.449C444.401 58.164 445.985 59.928 445.985 62.79C445.985 65.634 444.401 67.326 441.449 67.326H439.415ZM454.3 60.648C455.83 60.648 457.036 61.62 457.072 63.15H451.582C451.798 61.584 452.914 60.648 454.3 60.648ZM458.944 66.048H456.73C456.352 66.822 455.65 67.434 454.39 67.434C452.878 67.434 451.708 66.444 451.564 64.806H459.142C459.196 64.464 459.214 64.14 459.214 63.798C459.214 60.882 457.216 58.92 454.39 58.92C451.456 58.92 449.44 60.918 449.44 64.032C449.44 67.146 451.546 69.162 454.39 69.162C456.82 69.162 458.386 67.776 458.944 66.048ZM460.064 59.082L463.826 69H466.274L470.054 59.082H467.876L465.068 67.164L462.26 59.082H460.064ZM475.781 60.648C477.311 60.648 478.517 61.62 478.553 63.15H473.063C473.279 61.584 474.395 60.648 475.781 60.648ZM480.425 66.048H478.211C477.833 66.822 477.131 67.434 475.871 67.434C474.359 67.434 473.189 66.444 473.045 64.806H480.623C480.677 64.464 480.695 64.14 480.695 63.798C480.695 60.882 478.697 58.92 475.871 58.92C472.937 58.92 470.921 60.918 470.921 64.032C470.921 67.146 473.027 69.162 475.871 69.162C478.301 69.162 479.867 67.776 480.425 66.048ZM482.714 69H484.766V55.68H482.714V69ZM496.91 64.032C496.91 60.918 494.678 58.92 491.852 58.92C489.026 58.92 486.794 60.918 486.794 64.032C486.794 67.146 488.936 69.162 491.762 69.162C494.606 69.162 496.91 67.146 496.91 64.032ZM488.882 64.032C488.882 61.782 490.268 60.702 491.816 60.702C493.346 60.702 494.804 61.782 494.804 64.032C494.804 66.282 493.292 67.38 491.762 67.38C490.214 67.38 488.882 66.282 488.882 64.032ZM500.991 60.54V59.082H498.939V73.716H500.991V67.56C501.639 68.334 502.809 69.162 504.447 69.162C507.057 69.162 509.109 67.056 509.109 63.996C509.109 60.936 507.057 58.92 504.447 58.92C502.827 58.92 501.621 59.712 500.991 60.54ZM507.021 63.996C507.021 66.138 505.545 67.38 503.997 67.38C502.467 67.38 500.991 66.174 500.991 64.032C500.991 61.908 502.467 60.702 503.997 60.702C505.545 60.702 507.021 61.854 507.021 63.996ZM525.196 69H527.23V63.15C527.23 60.378 525.466 58.92 523.144 58.92C521.704 58.92 520.3 59.676 519.688 60.882C519.004 59.586 517.69 58.92 516.124 58.92C514.936 58.92 513.856 59.406 513.19 60.216V59.082H511.138V69H513.19V63.456C513.19 61.638 514.18 60.702 515.692 60.702C517.186 60.702 518.176 61.638 518.176 63.456V69H520.21V63.456C520.21 61.638 521.2 60.702 522.712 60.702C524.206 60.702 525.196 61.638 525.196 63.456V69ZM534.017 60.648C535.547 60.648 536.753 61.62 536.789 63.15H531.299C531.515 61.584 532.631 60.648 534.017 60.648ZM538.661 66.048H536.447C536.069 66.822 535.367 67.434 534.107 67.434C532.595 67.434 531.425 66.444 531.281 64.806H538.859C538.913 64.464 538.931 64.14 538.931 63.798C538.931 60.882 536.933 58.92 534.107 58.92C531.173 58.92 529.157 60.918 529.157 64.032C529.157 67.146 531.263 69.162 534.107 69.162C536.537 69.162 538.103 67.776 538.661 66.048ZM547.989 69H550.023V63.15C550.023 60.378 548.277 58.92 545.955 58.92C544.767 58.92 543.669 59.406 543.003 60.216V59.082H540.951V69H543.003V63.456C543.003 61.638 543.993 60.702 545.505 60.702C546.999 60.702 547.989 61.638 547.989 63.456V69ZM552.964 66.246C552.964 68.262 554.062 69 555.826 69H557.446V67.29H556.186C555.322 67.29 555.034 66.984 555.034 66.246V60.756H557.446V59.082H555.034V56.616H552.964V59.082H551.794V60.756H552.964V66.246Z" fill="#989DAE"/>
<path d="M482.412 146H485.616V132.86H480.63V135.722H482.412V146ZM487.613 145.82H496.649V143.318H491.789C493.877 141.716 496.451 139.412 496.451 136.532C496.451 134.318 495.119 132.572 492.131 132.572C489.737 132.572 487.667 133.94 487.577 137.126H490.547C490.547 135.884 491.087 135.164 492.005 135.164C492.941 135.164 493.373 135.776 493.373 136.73C493.373 138.944 490.403 141.23 487.613 143.534V145.82ZM497.752 136.172C497.752 138.17 499.048 139.214 500.758 139.214C502.468 139.214 503.746 138.17 503.746 136.172C503.746 134.174 502.468 133.13 500.758 133.13C499.048 133.13 497.752 134.174 497.752 136.172ZM500.74 134.93C501.28 134.93 501.622 135.308 501.622 136.172C501.622 137.018 501.28 137.396 500.74 137.396C500.2 137.396 499.876 137.018 499.876 136.172C499.876 135.308 500.2 134.93 500.74 134.93ZM500.074 146H503.044L509.974 133.328H507.004L500.074 146ZM506.32 143.156C506.32 145.154 507.598 146.198 509.308 146.198C511.018 146.198 512.296 145.154 512.296 143.156C512.296 141.14 511.018 140.114 509.308 140.114C507.598 140.114 506.32 141.14 506.32 143.156ZM509.29 141.914C509.83 141.914 510.172 142.31 510.172 143.156C510.172 144.002 509.83 144.38 509.29 144.38C508.75 144.38 508.426 144.002 508.426 143.156C508.426 142.31 508.75 141.914 509.29 141.914Z" fill="#989DAE"/>
<rect x="489" y="160" width="16" height="2" fill="#3B4053"/>
<rect x="489" y="44" width="16" height="2" fill="#3A3B3C"/>
<path d="M469.194 176.234C469.194 177.476 468.474 178.358 466.872 178.358H464.604V174.164H466.872C468.474 174.164 469.194 174.974 469.194 176.234ZM462.552 172.49V185H464.604V179.996H466.17L469.05 185H471.498L468.402 179.816C470.508 179.294 471.3 177.71 471.3 176.234C471.3 174.2 469.842 172.49 466.872 172.49H462.552ZM478.101 176.648C479.631 176.648 480.837 177.62 480.873 179.15H475.383C475.599 177.584 476.715 176.648 478.101 176.648ZM482.745 182.048H480.531C480.153 182.822 479.451 183.434 478.191 183.434C476.679 183.434 475.509 182.444 475.365 180.806H482.943C482.997 180.464 483.015 180.14 483.015 179.798C483.015 176.882 481.017 174.92 478.191 174.92C475.257 174.92 473.241 176.918 473.241 180.032C473.241 183.146 475.347 185.162 478.191 185.162C480.621 185.162 482.187 183.776 482.745 182.048ZM492.433 182.228C492.325 178.646 486.727 179.762 486.727 177.764C486.727 177.098 487.303 176.648 488.401 176.648C489.517 176.648 490.183 177.242 490.255 178.106H492.307C492.199 176.126 490.723 174.92 488.473 174.92C486.133 174.92 484.657 176.198 484.657 177.782C484.657 181.418 490.417 180.302 490.417 182.246C490.417 182.93 489.787 183.434 488.599 183.434C487.465 183.434 486.691 182.768 486.619 181.958H484.495C484.585 183.758 486.259 185.162 488.635 185.162C490.975 185.162 492.433 183.902 492.433 182.228ZM498.826 176.648C500.356 176.648 501.562 177.62 501.598 179.15H496.108C496.324 177.584 497.44 176.648 498.826 176.648ZM503.47 182.048H501.256C500.878 182.822 500.176 183.434 498.916 183.434C497.404 183.434 496.234 182.444 496.09 180.806H503.668C503.722 180.464 503.74 180.14 503.74 179.798C503.74 176.882 501.742 174.92 498.916 174.92C495.982 174.92 493.966 176.918 493.966 180.032C493.966 183.146 496.072 185.162 498.916 185.162C501.346 185.162 502.912 183.776 503.47 182.048ZM507.811 179.78C507.811 177.674 508.747 177.044 510.259 177.044H510.781V174.92C509.377 174.92 508.387 175.532 507.811 176.522V175.082H505.759V185H507.811V179.78ZM511.497 175.082L515.259 185H517.707L521.487 175.082H519.309L516.501 183.164L513.693 175.082H511.497ZM527.214 176.648C528.744 176.648 529.95 177.62 529.986 179.15H524.496C524.712 177.584 525.828 176.648 527.214 176.648ZM531.858 182.048H529.644C529.266 182.822 528.564 183.434 527.304 183.434C525.792 183.434 524.622 182.444 524.478 180.806H532.056C532.11 180.464 532.128 180.14 532.128 179.798C532.128 176.882 530.13 174.92 527.304 174.92C524.37 174.92 522.354 176.918 522.354 180.032C522.354 183.146 524.46 185.162 527.304 185.162C529.734 185.162 531.3 183.776 531.858 182.048Z" fill="#989DAE"/>
<path d="M484.971 249.842V257.672H487.941C488.103 257.06 488.607 256.592 489.471 256.592C490.569 256.592 491.163 257.222 491.163 258.41C491.163 259.544 490.659 260.39 489.489 260.39C488.481 260.39 487.959 259.778 487.833 259.094H484.827C484.935 261.362 486.645 263 489.597 263C492.513 263 494.133 261.2 494.133 258.428C494.133 256.304 493.035 254.126 490.173 254.126C489.129 254.126 488.229 254.504 487.761 255.026V252.542H493.377V249.842H484.971ZM495.58 253.172C495.58 255.17 496.876 256.214 498.586 256.214C500.296 256.214 501.574 255.17 501.574 253.172C501.574 251.174 500.296 250.13 498.586 250.13C496.876 250.13 495.58 251.174 495.58 253.172ZM498.568 251.93C499.108 251.93 499.45 252.308 499.45 253.172C499.45 254.018 499.108 254.396 498.568 254.396C498.028 254.396 497.704 254.018 497.704 253.172C497.704 252.308 498.028 251.93 498.568 251.93ZM497.902 263H500.872L507.802 250.328H504.832L497.902 263ZM504.148 260.156C504.148 262.154 505.426 263.198 507.136 263.198C508.846 263.198 510.124 262.154 510.124 260.156C510.124 258.14 508.846 257.114 507.136 257.114C505.426 257.114 504.148 258.14 504.148 260.156ZM507.118 258.914C507.658 258.914 508 259.31 508 260.156C508 261.002 507.658 261.38 507.118 261.38C506.578 261.38 506.254 261.002 506.254 260.156C506.254 259.31 506.578 258.914 507.118 258.914Z" fill="#989DAE"/>
<rect x="489" y="277" width="16" height="2" fill="#3B4053"/>
<path d="M464.82 289.49V302H471.102V300.344H466.872V289.49H464.82ZM472.818 302H474.87V292.082H472.818V302ZM473.862 290.768C474.582 290.768 475.158 290.192 475.158 289.454C475.158 288.716 474.582 288.14 473.862 288.14C473.124 288.14 472.548 288.716 472.548 289.454C472.548 290.192 473.124 290.768 473.862 290.768ZM476.88 297.032C476.88 300.146 478.896 302.162 481.74 302.162C484.17 302.162 485.754 300.812 486.312 298.868H484.098C483.72 299.894 482.964 300.434 481.74 300.434C480.084 300.434 478.986 299.21 478.986 297.032C478.986 294.872 480.084 293.648 481.74 293.648C482.964 293.648 483.756 294.26 484.098 295.214H486.312C485.754 293.126 484.17 291.92 481.74 291.92C478.896 291.92 476.88 293.936 476.88 297.032ZM492.533 293.648C494.063 293.648 495.269 294.62 495.305 296.15H489.815C490.031 294.584 491.147 293.648 492.533 293.648ZM497.177 299.048H494.963C494.585 299.822 493.883 300.434 492.623 300.434C491.111 300.434 489.941 299.444 489.797 297.806H497.375C497.429 297.464 497.447 297.14 497.447 296.798C497.447 293.882 495.449 291.92 492.623 291.92C489.689 291.92 487.673 293.918 487.673 297.032C487.673 300.146 489.779 302.162 492.623 302.162C495.053 302.162 496.619 300.776 497.177 299.048ZM506.504 302H508.538V296.15C508.538 293.378 506.792 291.92 504.47 291.92C503.282 291.92 502.184 292.406 501.518 293.216V292.082H499.466V302H501.518V296.456C501.518 294.638 502.508 293.702 504.02 293.702C505.514 293.702 506.504 294.638 506.504 296.456V302ZM518.554 299.228C518.446 295.646 512.848 296.762 512.848 294.764C512.848 294.098 513.424 293.648 514.522 293.648C515.638 293.648 516.304 294.242 516.376 295.106H518.428C518.32 293.126 516.844 291.92 514.594 291.92C512.254 291.92 510.778 293.198 510.778 294.782C510.778 298.418 516.538 297.302 516.538 299.246C516.538 299.93 515.908 300.434 514.72 300.434C513.586 300.434 512.812 299.768 512.74 298.958H510.616C510.706 300.758 512.38 302.162 514.756 302.162C517.096 302.162 518.554 300.902 518.554 299.228ZM524.947 293.648C526.477 293.648 527.683 294.62 527.719 296.15H522.229C522.445 294.584 523.561 293.648 524.947 293.648ZM529.591 299.048H527.377C526.999 299.822 526.297 300.434 525.037 300.434C523.525 300.434 522.355 299.444 522.211 297.806H529.789C529.843 297.464 529.861 297.14 529.861 296.798C529.861 293.882 527.863 291.92 525.037 291.92C522.103 291.92 520.087 293.918 520.087 297.032C520.087 300.146 522.193 302.162 525.037 302.162C527.467 302.162 529.033 300.776 529.591 299.048Z" fill="#989DAE"/>
<path d="M37.93 135H41.008V132.66H42.484V129.996H41.008V122.04H37.57L31.882 130.176V132.66H37.93V135ZM35.122 129.996L38.146 125.424V129.996H35.122ZM43.8836 134.82H52.9196V132.318H48.0596C50.1476 130.716 52.7216 128.412 52.7216 125.532C52.7216 123.318 51.3896 121.572 48.4016 121.572C46.0076 121.572 43.9376 122.94 43.8476 126.126H46.8176C46.8176 124.884 47.3576 124.164 48.2756 124.164C49.2116 124.164 49.6436 124.776 49.6436 125.73C49.6436 127.944 46.6736 130.23 43.8836 132.534V134.82ZM54.0228 125.172C54.0228 127.17 55.3188 128.214 57.0288 128.214C58.7388 128.214 60.0168 127.17 60.0168 125.172C60.0168 123.174 58.7388 122.13 57.0288 122.13C55.3188 122.13 54.0228 123.174 54.0228 125.172ZM57.0108 123.93C57.5508 123.93 57.8928 124.308 57.8928 125.172C57.8928 126.018 57.5508 126.396 57.0108 126.396C56.4708 126.396 56.1468 126.018 56.1468 125.172C56.1468 124.308 56.4708 123.93 57.0108 123.93ZM56.3448 135H59.3148L66.2448 122.328H63.2748L56.3448 135ZM62.5908 132.156C62.5908 134.154 63.8688 135.198 65.5788 135.198C67.2888 135.198 68.5668 134.154 68.5668 132.156C68.5668 130.14 67.2888 129.114 65.5788 129.114C63.8688 129.114 62.5908 130.14 62.5908 132.156ZM65.5608 130.914C66.1008 130.914 66.4428 131.31 66.4428 132.156C66.4428 133.002 66.1008 133.38 65.5608 133.38C65.0208 133.38 64.6968 133.002 64.6968 132.156C64.6968 131.31 65.0208 130.914 65.5608 130.914Z" fill="#989DAE"/>
<rect x="43" y="149" width="16" height="2" fill="#3B4053"/>
<path d="M18.6666 167.25V163.164H20.9346C22.5366 163.164 23.2566 163.92 23.2566 165.216C23.2566 166.476 22.5366 167.25 20.9346 167.25H18.6666ZM25.3626 165.216C25.3626 163.182 23.9046 161.49 20.9346 161.49H16.6146V174H18.6666V168.924H20.9346C24.1926 168.924 25.3626 166.998 25.3626 165.216ZM29.3717 168.78C29.3717 166.674 30.3077 166.044 31.8197 166.044H32.3417V163.92C30.9377 163.92 29.9477 164.532 29.3717 165.522V164.082H27.3197V174H29.3717V168.78ZM43.6779 169.032C43.6779 165.918 41.4459 163.92 38.6199 163.92C35.7939 163.92 33.5619 165.918 33.5619 169.032C33.5619 172.146 35.7039 174.162 38.5299 174.162C41.3739 174.162 43.6779 172.146 43.6779 169.032ZM35.6499 169.032C35.6499 166.782 37.0359 165.702 38.5839 165.702C40.1139 165.702 41.5719 166.782 41.5719 169.032C41.5719 171.282 40.0599 172.38 38.5299 172.38C36.9819 172.38 35.6499 171.282 35.6499 169.032ZM45.0224 168.996C45.0224 172.056 47.0924 174.162 49.7024 174.162C51.3224 174.162 52.5104 173.406 53.1404 172.506V174H55.2104V160.68H53.1404V165.468C52.3844 164.532 51.0164 163.92 49.7204 163.92C47.0924 163.92 45.0224 165.936 45.0224 168.996ZM53.1404 169.032C53.1404 171.174 51.6824 172.38 50.1344 172.38C48.6044 172.38 47.1284 171.138 47.1284 168.996C47.1284 166.854 48.6044 165.702 50.1344 165.702C51.6824 165.702 53.1404 166.908 53.1404 169.032ZM66.8877 164.082H64.8357V169.608C64.8357 171.426 63.8457 172.362 62.3337 172.362C60.8397 172.362 59.8497 171.426 59.8497 169.608V164.082H57.8157V169.914C57.8157 172.686 59.5797 174.144 61.9017 174.144C63.0717 174.144 64.1877 173.658 64.8357 172.812V174H66.8877V164.082ZM68.9111 169.032C68.9111 172.146 70.9271 174.162 73.7711 174.162C76.2011 174.162 77.7851 172.812 78.3431 170.868H76.1291C75.7511 171.894 74.9951 172.434 73.7711 172.434C72.1151 172.434 71.0171 171.21 71.0171 169.032C71.0171 166.872 72.1151 165.648 73.7711 165.648C74.9951 165.648 75.7871 166.26 76.1291 167.214H78.3431C77.7851 165.126 76.2011 163.92 73.7711 163.92C70.9271 163.92 68.9111 165.936 68.9111 169.032ZM80.7121 171.246C80.7121 173.262 81.8101 174 83.5741 174H85.1941V172.29H83.9341C83.0701 172.29 82.7821 171.984 82.7821 171.246V165.756H85.1941V164.082H82.7821V161.616H80.7121V164.082H79.5421V165.756H80.7121V171.246Z" fill="#989DAE"/>
<path d="M35.7172 20H38.9212V6.86H33.9352V9.722H35.7172V20ZM43.1868 12.944C41.9268 13.538 41.1888 14.654 41.1888 16.148C41.1888 18.776 43.3668 20.252 46.0488 20.252C48.7308 20.252 50.9088 18.776 50.9088 16.148C50.9088 14.654 50.1708 13.556 48.8928 12.944C49.8828 12.422 50.5848 11.468 50.5848 10.118C50.5848 8.246 49.1448 6.59 46.0488 6.59C42.9528 6.59 41.4948 8.246 41.4948 10.118C41.4948 11.504 42.1788 12.404 43.1868 12.944ZM46.0488 12.116C45.1668 12.116 44.5008 11.558 44.5008 10.604C44.5008 9.596 45.1308 9.038 46.0488 9.038C46.9668 9.038 47.5968 9.596 47.5968 10.586C47.5968 11.54 46.9308 12.116 46.0488 12.116ZM46.0488 14.276C47.1468 14.276 47.9028 14.924 47.9028 16.004C47.9028 16.976 47.2188 17.732 46.0488 17.732C44.8608 17.732 44.1588 16.994 44.1588 16.004C44.1588 14.888 44.9508 14.276 46.0488 14.276ZM52.4467 10.172C52.4467 12.17 53.7427 13.214 55.4527 13.214C57.1627 13.214 58.4407 12.17 58.4407 10.172C58.4407 8.174 57.1627 7.13 55.4527 7.13C53.7427 7.13 52.4467 8.174 52.4467 10.172ZM55.4347 8.93C55.9747 8.93 56.3167 9.308 56.3167 10.172C56.3167 11.018 55.9747 11.396 55.4347 11.396C54.8947 11.396 54.5707 11.018 54.5707 10.172C54.5707 9.308 54.8947 8.93 55.4347 8.93ZM54.7687 20H57.7387L64.6687 7.328H61.6987L54.7687 20ZM61.0147 17.156C61.0147 19.154 62.2927 20.198 64.0027 20.198C65.7127 20.198 66.9907 19.154 66.9907 17.156C66.9907 15.14 65.7127 14.114 64.0027 14.114C62.2927 14.114 61.0147 15.14 61.0147 17.156ZM63.9847 15.914C64.5247 15.914 64.8667 16.31 64.8667 17.156C64.8667 18.002 64.5247 18.38 63.9847 18.38C63.4447 18.38 63.1207 18.002 63.1207 17.156C63.1207 16.31 63.4447 15.914 63.9847 15.914Z" fill="#989DAE"/>
<rect x="43" y="34" width="16" height="2" fill="#3B4053"/>
<path d="M13.5671 52.718C13.5671 48.974 10.7411 46.328 7.17709 46.328C3.64909 46.328 0.787094 48.974 0.787094 52.718C0.787094 56.48 3.64909 59.126 7.17709 59.126C10.7411 59.126 13.5671 56.48 13.5671 52.718ZM2.89309 52.718C2.89309 49.892 4.69309 48.128 7.17709 48.128C9.66109 48.128 11.4611 49.892 11.4611 52.718C11.4611 55.544 9.66109 57.344 7.17709 57.344C4.69309 57.344 2.89309 55.544 2.89309 52.718ZM17.6383 50.54V49.082H15.5863V63.716H17.6383V57.56C18.2863 58.334 19.4563 59.162 21.0943 59.162C23.7043 59.162 25.7563 57.056 25.7563 53.996C25.7563 50.936 23.7043 48.92 21.0943 48.92C19.4743 48.92 18.2683 49.712 17.6383 50.54ZM23.6683 53.996C23.6683 56.138 22.1923 57.38 20.6443 57.38C19.1143 57.38 17.6383 56.174 17.6383 54.032C17.6383 51.908 19.1143 50.702 20.6443 50.702C22.1923 50.702 23.6683 51.854 23.6683 53.996ZM31.9615 50.648C33.4915 50.648 34.6975 51.62 34.7335 53.15H29.2435C29.4595 51.584 30.5755 50.648 31.9615 50.648ZM36.6055 56.048H34.3915C34.0135 56.822 33.3115 57.434 32.0515 57.434C30.5395 57.434 29.3695 56.444 29.2255 54.806H36.8035C36.8575 54.464 36.8755 54.14 36.8755 53.798C36.8755 50.882 34.8775 48.92 32.0515 48.92C29.1175 48.92 27.1015 50.918 27.1015 54.032C27.1015 57.146 29.2075 59.162 32.0515 59.162C34.4815 59.162 36.0475 57.776 36.6055 56.048ZM40.9469 53.78C40.9469 51.674 41.8829 51.044 43.3949 51.044H43.9169V48.92C42.5129 48.92 41.5229 49.532 40.9469 50.522V49.082H38.8949V59H40.9469V53.78ZM45.1191 53.996C45.1191 57.056 47.1891 59.162 49.7631 59.162C51.4191 59.162 52.6071 58.37 53.2371 57.524V59H55.3071V49.082H53.2371V50.522C52.6251 49.712 51.4731 48.92 49.7991 48.92C47.1891 48.92 45.1191 50.936 45.1191 53.996ZM53.2371 54.032C53.2371 56.174 51.7791 57.38 50.2311 57.38C48.7011 57.38 47.2251 56.138 47.2251 53.996C47.2251 51.854 48.7011 50.702 50.2311 50.702C51.7791 50.702 53.2371 51.908 53.2371 54.032ZM58.3263 56.246C58.3263 58.262 59.4243 59 61.1883 59H62.8083V57.29H61.5483C60.6843 57.29 60.3963 56.984 60.3963 56.246V50.756H62.8083V49.082H60.3963V46.616H58.3263V49.082H57.1563V50.756H58.3263V56.246ZM64.6996 59H66.7516V49.082H64.6996V59ZM65.7436 47.768C66.4636 47.768 67.0396 47.192 67.0396 46.454C67.0396 45.716 66.4636 45.14 65.7436 45.14C65.0056 45.14 64.4296 45.716 64.4296 46.454C64.4296 47.192 65.0056 47.768 65.7436 47.768ZM78.8957 54.032C78.8957 50.918 76.6637 48.92 73.8377 48.92C71.0117 48.92 68.7797 50.918 68.7797 54.032C68.7797 57.146 70.9217 59.162 73.7477 59.162C76.5917 59.162 78.8957 57.146 78.8957 54.032ZM70.8677 54.032C70.8677 51.782 72.2537 50.702 73.8017 50.702C75.3317 50.702 76.7897 51.782 76.7897 54.032C76.7897 56.282 75.2777 57.38 73.7477 57.38C72.1997 57.38 70.8677 56.282 70.8677 54.032ZM87.9622 59H89.9962V53.15C89.9962 50.378 88.2502 48.92 85.9282 48.92C84.7402 48.92 83.6422 49.406 82.9762 50.216V49.082H80.9242V59H82.9762V53.456C82.9762 51.638 83.9662 50.702 85.4782 50.702C86.9722 50.702 87.9622 51.638 87.9622 53.456V59ZM100.012 56.228C99.9037 52.646 94.3057 53.762 94.3057 51.764C94.3057 51.098 94.8817 50.648 95.9797 50.648C97.0957 50.648 97.7617 51.242 97.8337 52.106H99.8857C99.7777 50.126 98.3017 48.92 96.0517 48.92C93.7117 48.92 92.2357 50.198 92.2357 51.782C92.2357 55.418 97.9957 54.302 97.9957 56.246C97.9957 56.93 97.3657 57.434 96.1777 57.434C95.0437 57.434 94.2697 56.768 94.1977 55.958H92.0737C92.1637 57.758 93.8377 59.162 96.2137 59.162C98.5537 59.162 100.012 57.902 100.012 56.228Z" fill="#989DAE"/>
<path d="M35.6821 263H38.8861V249.86H33.9001V252.722H35.6821V263ZM40.9916 256.25C40.9916 260.138 42.3056 262.946 46.0496 262.946C49.7936 262.946 51.1076 260.138 51.1076 256.25C51.1076 252.398 49.7936 249.59 46.0496 249.59C42.3056 249.59 40.9916 252.398 40.9916 256.25ZM48.0836 256.25C48.0836 258.338 47.8676 260.066 46.0496 260.066C44.2316 260.066 44.0156 258.338 44.0156 256.25C44.0156 254.234 44.2316 252.47 46.0496 252.47C47.8676 252.47 48.0836 254.234 48.0836 256.25ZM52.4818 253.172C52.4818 255.17 53.7778 256.214 55.4878 256.214C57.1978 256.214 58.4758 255.17 58.4758 253.172C58.4758 251.174 57.1978 250.13 55.4878 250.13C53.7778 250.13 52.4818 251.174 52.4818 253.172ZM55.4698 251.93C56.0098 251.93 56.3518 252.308 56.3518 253.172C56.3518 254.018 56.0098 254.396 55.4698 254.396C54.9298 254.396 54.6058 254.018 54.6058 253.172C54.6058 252.308 54.9298 251.93 55.4698 251.93ZM54.8038 263H57.7738L64.7038 250.328H61.7338L54.8038 263ZM61.0498 260.156C61.0498 262.154 62.3278 263.198 64.0378 263.198C65.7478 263.198 67.0258 262.154 67.0258 260.156C67.0258 258.14 65.7478 257.114 64.0378 257.114C62.3278 257.114 61.0498 258.14 61.0498 260.156ZM64.0198 258.914C64.5598 258.914 64.9018 259.31 64.9018 260.156C64.9018 261.002 64.5598 261.38 64.0198 261.38C63.4798 261.38 63.1558 261.002 63.1558 260.156C63.1558 259.31 63.4798 258.914 64.0198 258.914Z" fill="#989DAE"/>
<rect x="43" y="277" width="16" height="2" fill="#3B4053"/>
<path d="M27.724 289.49V302H34.006V300.344H29.776V289.49H27.724ZM39.8981 293.648C41.4281 293.648 42.6341 294.62 42.6701 296.15H37.1801C37.3961 294.584 38.5121 293.648 39.8981 293.648ZM44.5421 299.048H42.3281C41.9501 299.822 41.2481 300.434 39.9881 300.434C38.4761 300.434 37.3061 299.444 37.1621 297.806H44.7401C44.7941 297.464 44.8121 297.14 44.8121 296.798C44.8121 293.882 42.8141 291.92 39.9881 291.92C37.0541 291.92 35.0381 293.918 35.0381 297.032C35.0381 300.146 37.1441 302.162 39.9881 302.162C42.4181 302.162 43.9841 300.776 44.5421 299.048ZM46.1474 296.996C46.1474 300.056 48.2174 302.162 50.8274 302.162C52.4474 302.162 53.6354 301.352 54.2654 300.506V302.162C54.2654 304.142 53.0774 305.114 51.4934 305.114C50.0714 305.114 48.9734 304.412 48.6674 303.386H46.6334C46.8854 305.582 48.8474 306.896 51.4934 306.896C54.5894 306.896 56.3354 304.862 56.3354 302.162V292.082H54.2654V293.522C53.6534 292.676 52.4474 291.92 50.8274 291.92C48.2174 291.92 46.1474 293.936 46.1474 296.996ZM54.2654 297.032C54.2654 299.174 52.8074 300.38 51.2594 300.38C49.7294 300.38 48.2534 299.138 48.2534 296.996C48.2534 294.854 49.7294 293.702 51.2594 293.702C52.8074 293.702 54.2654 294.908 54.2654 297.032ZM58.3467 296.996C58.3467 300.056 60.4167 302.162 62.9907 302.162C64.6467 302.162 65.8347 301.37 66.4647 300.524V302H68.5347V292.082H66.4647V293.522C65.8527 292.712 64.7007 291.92 63.0267 291.92C60.4167 291.92 58.3467 293.936 58.3467 296.996ZM66.4647 297.032C66.4647 299.174 65.0067 300.38 63.4587 300.38C61.9287 300.38 60.4527 299.138 60.4527 296.996C60.4527 294.854 61.9287 293.702 63.4587 293.702C65.0067 293.702 66.4647 294.908 66.4647 297.032ZM71.2299 302H73.2819V288.68H71.2299V302Z" fill="#989DAE"/>
<path fill-rule="evenodd" clip-rule="evenodd" d="M271.848 232.117L275.681 202.332C278.054 202.771 280.5 203 283 203C287.19 203 291.23 202.356 295.026 201.161L304.923 229.498C298.027 231.771 290.657 233 283 233C279.204 233 275.48 232.698 271.848 232.117Z" fill="#BDBDBD"/>
<mask id="mask0" mask-type="alpha" maskUnits="userSpaceOnUse" x="271" y="201" width="34" height="32">
<path fill-rule="evenodd" clip-rule="evenodd" d="M271.848 232.117L275.681 202.332C278.054 202.771 280.5 203 283 203C287.19 203 291.23 202.356 295.026 201.161L304.923 229.498C298.027 231.771 290.657 233 283 233C279.204 233 275.48 232.698 271.848 232.117Z" fill="white"/>
</mask>
<g mask="url(#mask0)">
<g filter="url(#filter0_f)">
<path fill-rule="evenodd" clip-rule="evenodd" d="M291.009 189.988L300.59 253.273L316.284 221.826L291.009 189.988Z" fill="#939393"/>
</g>
<g filter="url(#filter1_f)">
<path fill-rule="evenodd" clip-rule="evenodd" d="M279.236 197.731L281.788 245.145L257.864 235.895L279.236 197.731Z" fill="#939393"/>
</g>
</g>
<g clip-path="url(#clip0)">
<path fill-rule="evenodd" clip-rule="evenodd" d="M308.4 238.8C320.4 234.7 331.2 227.9 339.9 219.1L311.4 191C306.4 196.1 300.1 199.8 293 201.7L303.3 236.2C303.9 238.3 306.2 239.5 308.4 238.8Z" fill="#A5A5A5"/>
<mask id="mask1" mask-type="alpha" maskUnits="userSpaceOnUse" x="293" y="191" width="47" height="49">
<path fill-rule="evenodd" clip-rule="evenodd" d="M308.4 238.8C320.4 234.7 331.2 227.9 339.9 219.1L311.4 191C306.4 196.1 300.1 199.8 293 201.7L303.3 236.2C303.9 238.3 306.2 239.5 308.4 238.8Z" fill="white"/>
</mask>
<g mask="url(#mask1)">
<g filter="url(#filter2_f)">
<path fill-rule="evenodd" clip-rule="evenodd" d="M301 179L346.15 243.101L365.568 220.433L301 179Z" fill="#5F5F5F"/>
</g>
</g>
</g>
<path fill-rule="evenodd" clip-rule="evenodd" d="M348.9 224.3C362.9 209.3 371.8 189.4 372.9 167.5L323 164C322.7 174.8 318.2 184.6 311 191.6L343.2 224.4C344.7 226 347.4 225.9 348.9 224.3Z" fill="#27272F"/>
<mask id="mask2" mask-type="alpha" maskUnits="userSpaceOnUse" x="311" y="164" width="62" height="62">
<path fill-rule="evenodd" clip-rule="evenodd" d="M348.9 224.3C362.9 209.3 371.8 189.4 372.9 167.5L323 164C322.7 174.8 318.2 184.6 311 191.6L343.2 224.4C344.7 226 347.4 225.9 348.9 224.3Z" fill="white"/>
</mask>
<g mask="url(#mask2)">
<g filter="url(#filter3_f)">
<path fill-rule="evenodd" clip-rule="evenodd" d="M320.027 165.398L389.094 179.387L397.902 143.797L320.027 165.398Z" fill="black"/>
</g>
</g>
<path fill-rule="evenodd" clip-rule="evenodd" d="M378.6 169.9C380.9 170.1 382.9 168.4 383 166.1C383 165.1 383 164 383 163C383 135.8 372.2 111.2 354.6 93.2C353 91.6 350.5 91.6 348.9 93.2L309.2 132.8C317.6 140.1 323 150.9 323 163C323 163.6 323 164.2 323 164.8L378.6 169.9Z" fill="#F99B01"/>
<mask id="mask3" mask-type="alpha" maskUnits="userSpaceOnUse" x="309" y="92" width="74" height="78">
<path fill-rule="evenodd" clip-rule="evenodd" d="M378.6 169.9C380.9 170.1 382.9 168.4 383 166.1C383 165.1 383 164 383 163C383 135.8 372.2 111.2 354.6 93.2C353 91.6 350.5 91.6 348.9 93.2L309.2 132.8C317.6 140.1 323 150.9 323 163C323 163.6 323 164.2 323 164.8L378.6 169.9Z" fill="white"/>
</mask>
<g mask="url(#mask3)">
</g>
<path fill-rule="evenodd" clip-rule="evenodd" d="M191.499 70.9886C167.799 94.4886 153.199 127.089 153.199 163.089C153.199 231.089 205.399 286.889 271.999 292.589C274.299 292.789 276.299 290.989 276.299 288.689L279.199 202.789C258.999 200.789 243.099 183.789 243.099 162.989C243.099 151.489 247.999 141.089 255.699 133.789L197.299 71.0886C195.799 69.3886 193.099 69.3886 191.499 70.9886Z" fill="#F17001"/>
<line x1="300" y1="258.5" x2="476" y2="258.5" stroke="white"/>
<line x1="305" y1="302.5" x2="81" y2="302.5" stroke="white"/>
<g filter="url(#filter4_d)">
<path fill-rule="evenodd" clip-rule="evenodd" d="M369.26 101.899C371.16 100.599 371.66 97.9992 370.26 96.0992C350.06 69.9992 318.56 53.1992 283.06 53.1992C249.46 53.1992 219.36 68.2992 199.16 91.9992C197.66 93.6992 197.96 96.3992 199.76 97.6992L251.76 138.199C259.06 128.999 270.36 123.099 283.06 123.099C295.76 123.099 307.06 128.999 314.36 138.199L369.26 101.899Z" fill="#F37E01"/>
</g>
<path fill-rule="evenodd" clip-rule="evenodd" d="M283 205C306.196 205 325 186.196 325 163C325 139.804 306.196 121 283 121C259.804 121 241 139.804 241 163C241 186.196 259.804 205 283 205Z" fill="#252730"/>
<path fill-rule="evenodd" clip-rule="evenodd" d="M283 196C301.225 196 316 181.225 316 163C316 144.775 301.225 130 283 130C264.775 130 250 144.775 250 163C250 181.225 264.775 196 283 196Z" fill="white"/>
<line x1="230" y1="30.5" x2="86" y2="30.5" stroke="white"/>
<line x1="470" y1="27.5" x2="409" y2="27.5" stroke="white"/>
<line x1="149" y1="140.5" x2="75" y2="140.5" stroke="white"/>
<line x1="387.504" y1="195.938" x2="408.504" y2="26.9384" stroke="white"/>
<line x1="229.384" y1="30.6799" x2="249.384" y2="54.6799" stroke="white"/>
<line x1="300.562" y1="259.241" x2="289.562" y2="239.241" stroke="white"/>
<line x1="304.522" y1="301.853" x2="324.522" y2="236.853" stroke="white"/>
<defs>
<filter id="filter0_f" x="280.136" y="179.115" width="47.0216" height="85.031" filterUnits="userSpaceOnUse" color-interpolation-filters="sRGB">
<feFlood flood-opacity="0" result="BackgroundImageFix"/>
<feBlend mode="normal" in="SourceGraphic" in2="BackgroundImageFix" result="shape"/>
<feGaussianBlur stdDeviation="5.43656" result="effect1_foregroundBlur"/>
</filter>
<filter id="filter1_f" x="246.991" y="186.858" width="45.6701" height="69.1593" filterUnits="userSpaceOnUse" color-interpolation-filters="sRGB">
<feFlood flood-opacity="0" result="BackgroundImageFix"/>
<feBlend mode="normal" in="SourceGraphic" in2="BackgroundImageFix" result="shape"/>
<feGaussianBlur stdDeviation="5.43656" result="effect1_foregroundBlur"/>
</filter>
<filter id="filter2_f" x="290.127" y="168.127" width="86.3144" height="85.8476" filterUnits="userSpaceOnUse" color-interpolation-filters="sRGB">
<feFlood flood-opacity="0" result="BackgroundImageFix"/>
<feBlend mode="normal" in="SourceGraphic" in2="BackgroundImageFix" result="shape"/>
<feGaussianBlur stdDeviation="5.43656" result="effect1_foregroundBlur"/>
</filter>
<filter id="filter3_f" x="309.154" y="132.924" width="99.6214" height="57.3363" filterUnits="userSpaceOnUse" color-interpolation-filters="sRGB">
<feFlood flood-opacity="0" result="BackgroundImageFix"/>
<feBlend mode="normal" in="SourceGraphic" in2="BackgroundImageFix" result="shape"/>
<feGaussianBlur stdDeviation="5.43656" result="effect1_foregroundBlur"/>
</filter>
<filter id="filter4_d" x="184.199" y="39.1992" width="204.861" height="117" filterUnits="userSpaceOnUse" color-interpolation-filters="sRGB">
<feFlood flood-opacity="0" result="BackgroundImageFix"/>
<feColorMatrix in="SourceAlpha" type="matrix" values="0 0 0 0 0 0 0 0 0 0 0 0 0 0 0 0 0 0 127 0"/>
<feOffset dx="2" dy="2"/>
<feGaussianBlur stdDeviation="8"/>
<feColorMatrix type="matrix" values="0 0 0 0 0 0 0 0 0 0 0 0 0 0 0 0 0 0 0.3 0"/>
<feBlend mode="normal" in2="BackgroundImageFix" result="effect1_dropShadow"/>
<feBlend mode="normal" in="SourceGraphic" in2="effect1_dropShadow" result="shape"/>
</filter>
<clipPath id="clip0">
<rect width="47" height="48" fill="white" transform="translate(293 191)"/>
</clipPath>
</defs>
</svg>
