<svg width="554" height="270" viewBox="0 0 554 270" fill="none" xmlns="http://www.w3.org/2000/svg">
<g clip-path="url(#clip0)">
<path fill-rule="evenodd" clip-rule="evenodd" d="M263.341 219.457C320.873 219.457 367.883 172.447 367.883 114.916C367.883 56.4671 320.873 9.45703 263.341 9.45703C204.893 9.45703 157.883 56.4671 157.883 114.916C157.883 172.447 204.893 219.457 263.341 219.457Z" fill="#F99B01"/>
<mask id="mask0" mask-type="alpha" maskUnits="userSpaceOnUse" x="157" y="9" width="211" height="211">
<path fill-rule="evenodd" clip-rule="evenodd" d="M263.341 219.457C320.873 219.457 367.883 172.447 367.883 114.916C367.883 56.4671 320.873 9.45703 263.341 9.45703C204.893 9.45703 157.883 56.4671 157.883 114.916C157.883 172.447 204.893 219.457 263.341 219.457Z" fill="white"/>
</mask>
<g mask="url(#mask0)">
</g>
</g>
<path fill-rule="evenodd" clip-rule="evenodd" d="M288.573 91.1463L267.023 119.916L147.999 93.3201C140.904 124.262 145.833 157.852 164.428 186.485C172.982 199.657 183.669 210.613 195.749 219.199C196.051 219.414 196.355 219.627 196.659 219.839L272.969 118.571C272.969 118.571 279.193 106.896 288.573 91.1463Z" fill="#F17001"/>
<path fill-rule="evenodd" clip-rule="evenodd" d="M202.059 211.848C238.775 239.877 290.728 243.282 331.845 216.58C384.067 182.666 399.033 113.029 365.271 61.0404C357.839 49.5966 348.666 39.9619 338.321 32.256L270.71 122.447L202.059 211.848Z" fill="#27272F"/>
<path fill-rule="evenodd" clip-rule="evenodd" d="M244.68 231.227C253.397 233.369 262.521 234.507 271.921 234.507C333.427 234.507 383.684 184.249 383.684 122.743C383.684 60.2575 333.427 10 271.921 10C271.339 10 270.758 10.0044 270.178 10.0131L271.925 122.25L244.68 231.227Z" fill="#B9B9B9"/>
<path d="M346.667 121.954V127.427H348.071C348.318 126.725 348.903 126.244 349.774 126.244C351.009 126.244 351.62 126.946 351.62 128.181C351.62 129.351 351.048 130.222 349.774 130.222C348.773 130.222 348.097 129.702 347.902 128.896H346.459C346.68 130.378 347.811 131.457 349.761 131.457C351.958 131.457 353.037 130.027 353.037 128.142C353.037 126.712 352.322 124.983 349.995 124.983C349.15 124.983 348.383 125.373 348.032 125.841V123.254H352.387V121.954H346.667ZM354.892 121.954V127.427H356.296C356.543 126.725 357.128 126.244 357.999 126.244C359.234 126.244 359.845 126.946 359.845 128.181C359.845 129.351 359.273 130.222 357.999 130.222C356.998 130.222 356.322 129.702 356.127 128.896H354.684C354.905 130.378 356.036 131.457 357.986 131.457C360.183 131.457 361.262 130.027 361.262 128.142C361.262 126.712 360.547 124.983 358.22 124.983C357.375 124.983 356.608 125.373 356.257 125.841V123.254H360.612V121.954H354.892ZM362.493 124.268C362.493 125.568 363.338 126.309 364.469 126.309C365.6 126.309 366.445 125.568 366.445 124.268C366.445 122.981 365.6 122.24 364.469 122.24C363.338 122.24 362.493 122.981 362.493 124.268ZM364.469 123.137C364.963 123.137 365.288 123.462 365.288 124.268C365.288 125.074 364.963 125.412 364.469 125.412C363.962 125.412 363.65 125.074 363.65 124.268C363.65 123.462 363.962 123.137 364.469 123.137ZM363.78 131.457H365.236L370.423 122.409H368.967L363.78 131.457ZM367.784 129.585C367.784 130.885 368.629 131.626 369.76 131.626C370.878 131.626 371.723 130.885 371.723 129.585C371.723 128.285 370.878 127.557 369.76 127.557C368.629 127.557 367.784 128.285 367.784 129.585ZM369.747 128.454C370.241 128.454 370.566 128.779 370.566 129.585C370.566 130.391 370.241 130.716 369.747 130.716C369.253 130.716 368.928 130.391 368.928 129.585C368.928 128.779 369.253 128.454 369.747 128.454Z" fill="white"/>
<path d="M209.548 58.327H215.866V57.092H211.745C213.266 55.701 215.606 53.946 215.606 51.645C215.606 49.942 214.514 48.785 212.59 48.785C210.913 48.785 209.587 49.786 209.535 51.84H210.965C211.004 50.774 211.563 50.046 212.603 50.046C213.708 50.046 214.137 50.722 214.137 51.71C214.137 53.569 211.784 55.285 209.548 57.248V58.327ZM217.09 53.595C217.09 56.351 217.818 58.431 220.47 58.431C223.122 58.431 223.85 56.351 223.85 53.595C223.85 50.891 223.122 48.811 220.47 48.811C217.818 48.811 217.09 50.891 217.09 53.595ZM222.394 53.595C222.394 55.454 222.199 57.079 220.47 57.079C218.741 57.079 218.546 55.454 218.546 53.595C218.546 51.827 218.741 50.163 220.47 50.163C222.199 50.163 222.394 51.827 222.394 53.595ZM225.106 51.268C225.106 52.568 225.951 53.309 227.082 53.309C228.213 53.309 229.058 52.568 229.058 51.268C229.058 49.981 228.213 49.24 227.082 49.24C225.951 49.24 225.106 49.981 225.106 51.268ZM227.082 50.137C227.576 50.137 227.901 50.462 227.901 51.268C227.901 52.074 227.576 52.412 227.082 52.412C226.575 52.412 226.263 52.074 226.263 51.268C226.263 50.462 226.575 50.137 227.082 50.137ZM226.393 58.457H227.849L233.036 49.409H231.58L226.393 58.457ZM230.397 56.585C230.397 57.885 231.242 58.626 232.373 58.626C233.491 58.626 234.336 57.885 234.336 56.585C234.336 55.285 233.491 54.557 232.373 54.557C231.242 54.557 230.397 55.285 230.397 56.585ZM232.36 55.454C232.854 55.454 233.179 55.779 233.179 56.585C233.179 57.391 232.854 57.716 232.36 57.716C231.866 57.716 231.541 57.391 231.541 56.585C231.541 55.779 231.866 55.454 232.36 55.454Z" fill="white"/>
<path d="M171.151 153.457H172.646V143.98H169.942V145.332H171.151V153.457ZM181.065 146.177C180.909 144.916 179.986 143.746 178.14 143.746C175.774 143.746 174.786 145.54 174.786 148.504C174.786 151.52 175.501 153.457 178.257 153.457C180.285 153.457 181.364 152.092 181.364 150.298C181.364 148.322 180.155 147.178 178.452 147.178C177.464 147.178 176.528 147.594 176.06 148.374C176.099 145.891 176.788 144.981 178.127 144.981C179.063 144.981 179.518 145.41 179.7 146.177H181.065ZM178.127 148.426C179.375 148.426 179.947 149.232 179.947 150.363C179.947 151.481 179.271 152.222 178.179 152.222C176.918 152.222 176.229 151.442 176.229 150.272C176.229 149.011 177.152 148.426 178.127 148.426ZM182.633 146.268C182.633 147.568 183.478 148.309 184.609 148.309C185.74 148.309 186.585 147.568 186.585 146.268C186.585 144.981 185.74 144.24 184.609 144.24C183.478 144.24 182.633 144.981 182.633 146.268ZM184.609 145.137C185.103 145.137 185.428 145.462 185.428 146.268C185.428 147.074 185.103 147.412 184.609 147.412C184.102 147.412 183.79 147.074 183.79 146.268C183.79 145.462 184.102 145.137 184.609 145.137ZM183.92 153.457H185.376L190.563 144.409H189.107L183.92 153.457ZM187.924 151.585C187.924 152.885 188.769 153.626 189.9 153.626C191.018 153.626 191.863 152.885 191.863 151.585C191.863 150.285 191.018 149.557 189.9 149.557C188.769 149.557 187.924 150.285 187.924 151.585ZM189.887 150.454C190.381 150.454 190.706 150.779 190.706 151.585C190.706 152.391 190.381 152.716 189.887 152.716C189.393 152.716 189.068 152.391 189.068 151.585C189.068 150.779 189.393 150.454 189.887 150.454Z" fill="white"/>
<path d="M224.396 200.883C224.513 202.235 225.423 203.444 227.386 203.444C229.869 203.444 230.545 201.741 230.545 198.543C230.545 195.436 229.726 193.759 227.282 193.759C225.293 193.759 224.136 195.007 224.136 196.892C224.136 198.894 225.488 199.921 227.152 199.921C228.01 199.921 228.829 199.596 229.258 198.998C229.258 201.416 228.66 202.209 227.477 202.209C226.489 202.209 225.93 201.728 225.761 200.883H224.396ZM227.412 198.673C226.099 198.673 225.553 197.828 225.553 196.853C225.553 195.761 226.216 194.994 227.321 194.994C228.4 194.994 229.089 195.683 229.089 196.892C229.089 197.958 228.465 198.673 227.412 198.673ZM231.855 196.268C231.855 197.568 232.7 198.309 233.831 198.309C234.962 198.309 235.807 197.568 235.807 196.268C235.807 194.981 234.962 194.24 233.831 194.24C232.7 194.24 231.855 194.981 231.855 196.268ZM233.831 195.137C234.325 195.137 234.65 195.462 234.65 196.268C234.65 197.074 234.325 197.412 233.831 197.412C233.324 197.412 233.012 197.074 233.012 196.268C233.012 195.462 233.324 195.137 233.831 195.137ZM233.142 203.457H234.598L239.785 194.409H238.329L233.142 203.457ZM237.146 201.585C237.146 202.885 237.991 203.626 239.122 203.626C240.24 203.626 241.085 202.885 241.085 201.585C241.085 200.285 240.24 199.557 239.122 199.557C237.991 199.557 237.146 200.285 237.146 201.585ZM239.109 200.454C239.603 200.454 239.928 200.779 239.928 201.585C239.928 202.391 239.603 202.716 239.109 202.716C238.615 202.716 238.29 202.391 238.29 201.585C238.29 200.779 238.615 200.454 239.109 200.454Z" fill="white"/>
<path fill-rule="evenodd" clip-rule="evenodd" d="M270.383 185.457C306.005 185.457 334.883 156.579 334.883 120.957C334.883 85.3347 306.005 56.457 270.383 56.457C234.76 56.457 205.883 85.3347 205.883 120.957C205.883 156.579 234.76 185.457 270.383 185.457Z" fill="white"/>
<path d="M223.907 114.436H219.515V127H223.907C227.921 127 230.531 124.534 230.531 120.736C230.531 116.92 227.921 114.436 223.907 114.436ZM222.035 124.858V116.56H223.817C226.463 116.56 227.957 118.126 227.957 120.736C227.957 123.346 226.463 124.858 223.817 124.858H222.035ZM232.418 127H234.938V117.028H232.418V127ZM233.696 115.84C234.578 115.84 235.244 115.192 235.244 114.364C235.244 113.536 234.578 112.888 233.696 112.888C232.796 112.888 232.148 113.536 232.148 114.364C232.148 115.192 232.796 115.84 233.696 115.84ZM245.168 124.156C245.096 120.502 239.57 121.636 239.57 119.818C239.57 119.242 240.056 118.864 240.992 118.864C241.982 118.864 242.594 119.386 242.666 120.16H245.078C244.934 118.18 243.476 116.866 241.064 116.866C238.598 116.866 237.122 118.198 237.122 119.854C237.122 123.508 242.756 122.374 242.756 124.156C242.756 124.732 242.216 125.182 241.226 125.182C240.218 125.182 239.516 124.606 239.426 123.85H236.888C236.996 125.704 238.742 127.162 241.244 127.162C243.674 127.162 245.168 125.866 245.168 124.156ZM247.632 123.904C247.632 126.19 248.91 127 250.818 127H252.402V124.876H251.232C250.44 124.876 250.17 124.588 250.17 123.922V119.098H252.402V117.028H250.17V114.562H247.632V117.028H246.444V119.098H247.632V123.904ZM256.735 122.032C256.735 120.106 257.635 119.53 259.129 119.53H259.795V116.884C258.409 116.884 257.365 117.55 256.735 118.576V117.028H254.215V127H256.735V122.032ZM261.492 127H264.012V117.028H261.492V127ZM262.77 115.84C263.652 115.84 264.318 115.192 264.318 114.364C264.318 113.536 263.652 112.888 262.77 112.888C261.87 112.888 261.222 113.536 261.222 114.364C261.222 115.192 261.87 115.84 262.77 115.84ZM269.022 118.486V113.68H266.502V127H269.022V125.578C269.634 126.442 270.75 127.162 272.316 127.162C274.872 127.162 276.87 125.092 276.87 121.978C276.87 118.864 274.872 116.866 272.316 116.866C270.804 116.866 269.634 117.568 269.022 118.486ZM274.296 121.978C274.296 123.868 273.018 124.948 271.65 124.948C270.3 124.948 269.022 123.904 269.022 122.014C269.022 120.124 270.3 119.08 271.65 119.08C273.018 119.08 274.296 120.088 274.296 121.978ZM288.115 117.028H285.577V122.518C285.577 124.12 284.713 124.984 283.345 124.984C282.013 124.984 281.131 124.12 281.131 122.518V117.028H278.611V122.878C278.611 125.614 280.285 127.126 282.607 127.126C283.849 127.126 284.947 126.586 285.577 125.74V127H288.115V117.028ZM290.997 123.904C290.997 126.19 292.275 127 294.183 127H295.767V124.876H294.597C293.805 124.876 293.535 124.588 293.535 123.922V119.098H295.767V117.028H293.535V114.562H290.997V117.028H289.809V119.098H290.997V123.904ZM297.58 127H300.1V117.028H297.58V127ZM298.858 115.84C299.74 115.84 300.406 115.192 300.406 114.364C300.406 113.536 299.74 112.888 298.858 112.888C297.958 112.888 297.31 113.536 297.31 114.364C297.31 115.192 297.958 115.84 298.858 115.84ZM312.22 122.014C312.22 118.864 309.97 116.866 307.09 116.866C304.21 116.866 301.96 118.864 301.96 122.014C301.96 125.146 304.138 127.162 307.018 127.162C309.916 127.162 312.22 125.146 312.22 122.014ZM304.516 122.014C304.516 120.016 305.722 119.062 307.054 119.062C308.386 119.062 309.628 120.016 309.628 122.014C309.628 123.994 308.35 124.966 307.018 124.966C305.668 124.966 304.516 123.994 304.516 122.014ZM321.052 127H323.572V121.15C323.572 118.396 321.916 116.884 319.594 116.884C318.316 116.884 317.236 117.424 316.588 118.27V117.028H314.068V127H316.588V121.492C316.588 119.89 317.47 119.026 318.838 119.026C320.17 119.026 321.052 119.89 321.052 121.492V127Z" fill="#27272F"/>
<path d="M462.024 113V109.368H464.04C465.464 109.368 466.104 110.04 466.104 111.192C466.104 112.312 465.464 113 464.04 113H462.024ZM467.976 111.192C467.976 109.384 466.68 107.88 464.04 107.88H460.2V119H462.024V114.488H464.04C466.936 114.488 467.976 112.776 467.976 111.192ZM471.54 114.36C471.54 112.488 472.372 111.928 473.716 111.928H474.18V110.04C472.932 110.04 472.052 110.584 471.54 111.464V110.184H469.716V119H471.54V114.36ZM479.568 111.576C480.928 111.576 482 112.44 482.032 113.8H477.152C477.344 112.408 478.336 111.576 479.568 111.576ZM483.696 116.376H481.728C481.392 117.064 480.768 117.608 479.648 117.608C478.304 117.608 477.264 116.728 477.136 115.272H483.872C483.92 114.968 483.936 114.68 483.936 114.376C483.936 111.784 482.16 110.04 479.648 110.04C477.04 110.04 475.248 111.816 475.248 114.584C475.248 117.352 477.12 119.144 479.648 119.144C481.808 119.144 483.2 117.912 483.696 116.376ZM492.307 116.536C492.211 113.352 487.235 114.344 487.235 112.568C487.235 111.976 487.747 111.576 488.723 111.576C489.715 111.576 490.307 112.104 490.371 112.872H492.195C492.099 111.112 490.787 110.04 488.787 110.04C486.707 110.04 485.395 111.176 485.395 112.584C485.395 115.816 490.515 114.824 490.515 116.552C490.515 117.16 489.955 117.608 488.899 117.608C487.891 117.608 487.203 117.016 487.139 116.296H485.251C485.331 117.896 486.819 119.144 488.931 119.144C491.011 119.144 492.307 118.024 492.307 116.536ZM493.67 114.552C493.67 117.272 495.51 119.144 497.798 119.144C499.27 119.144 500.326 118.44 500.886 117.688V119H502.726V110.184H500.886V111.464C500.342 110.744 499.318 110.04 497.83 110.04C495.51 110.04 493.67 111.832 493.67 114.552ZM500.886 114.584C500.886 116.488 499.59 117.56 498.214 117.56C496.854 117.56 495.542 116.456 495.542 114.552C495.542 112.648 496.854 111.624 498.214 111.624C499.59 111.624 500.886 112.696 500.886 114.584ZM505.122 119H506.946V107.16H505.122V119ZM513.053 111.576C514.413 111.576 515.485 112.44 515.517 113.8H510.637C510.829 112.408 511.821 111.576 513.053 111.576ZM517.181 116.376H515.213C514.877 117.064 514.253 117.608 513.133 117.608C511.789 117.608 510.749 116.728 510.621 115.272H517.357C517.405 114.968 517.421 114.68 517.421 114.376C517.421 111.784 515.645 110.04 513.133 110.04C510.525 110.04 508.733 111.816 508.733 114.584C508.733 117.352 510.605 119.144 513.133 119.144C515.293 119.144 516.685 117.912 517.181 116.376ZM522.764 114.552C522.764 117.272 524.604 119.144 526.892 119.144C528.364 119.144 529.42 118.44 529.98 117.688V119H531.82V110.184H529.98V111.464C529.436 110.744 528.412 110.04 526.924 110.04C524.604 110.04 522.764 111.832 522.764 114.552ZM529.98 114.584C529.98 116.488 528.684 117.56 527.308 117.56C525.948 117.56 524.636 116.456 524.636 114.552C524.636 112.648 525.948 111.624 527.308 111.624C528.684 111.624 529.98 112.696 529.98 114.584ZM540.472 119H542.28V113.8C542.28 111.336 540.728 110.04 538.664 110.04C537.608 110.04 536.632 110.472 536.04 111.192V110.184H534.216V119H536.04V114.072C536.04 112.456 536.92 111.624 538.264 111.624C539.592 111.624 540.472 112.456 540.472 114.072V119ZM543.998 114.552C543.998 117.272 545.838 119.144 548.158 119.144C549.598 119.144 550.654 118.472 551.214 117.672V119H553.054V107.16H551.214V111.416C550.542 110.584 549.326 110.04 548.174 110.04C545.838 110.04 543.998 111.832 543.998 114.552ZM551.214 114.584C551.214 116.488 549.918 117.56 548.542 117.56C547.182 117.56 545.87 116.456 545.87 114.552C545.87 112.648 547.182 111.624 548.542 111.624C549.918 111.624 551.214 112.696 551.214 114.584ZM459.592 137.416C459.592 140.76 462.136 143.096 465.272 143.096C467.592 143.096 469.592 141.944 470.44 139.768H468.248C467.656 140.952 466.6 141.512 465.272 141.512C463.064 141.512 461.464 139.928 461.464 137.416C461.464 134.904 463.064 133.336 465.272 133.336C466.6 133.336 467.656 133.896 468.248 135.08H470.44C469.592 132.904 467.592 131.736 465.272 131.736C462.136 131.736 459.592 134.088 459.592 137.416ZM474.399 138.36C474.399 136.488 475.231 135.928 476.575 135.928H477.039V134.04C475.791 134.04 474.911 134.584 474.399 135.464V134.184H472.575V143H474.399V138.36ZM487.116 138.584C487.116 135.816 485.132 134.04 482.62 134.04C480.108 134.04 478.124 135.816 478.124 138.584C478.124 141.352 480.028 143.144 482.54 143.144C485.068 143.144 487.116 141.352 487.116 138.584ZM479.98 138.584C479.98 136.584 481.212 135.624 482.588 135.624C483.948 135.624 485.244 136.584 485.244 138.584C485.244 140.584 483.9 141.56 482.54 141.56C481.164 141.56 479.98 140.584 479.98 138.584ZM490.631 143H492.551L494.327 136.488L496.103 143H498.023L500.759 134.184H498.967L497.143 141.24L495.351 134.184H493.447L491.575 141.272L489.735 134.184H487.879L490.631 143ZM501.514 138.552C501.514 141.272 503.354 143.144 505.674 143.144C507.114 143.144 508.17 142.472 508.73 141.672V143H510.57V131.16H508.73V135.416C508.058 134.584 506.842 134.04 505.69 134.04C503.354 134.04 501.514 135.832 501.514 138.552ZM508.73 138.584C508.73 140.488 507.434 141.56 506.058 141.56C504.698 141.56 503.386 140.456 503.386 138.552C503.386 136.648 504.698 135.624 506.058 135.624C507.434 135.624 508.73 136.696 508.73 138.584ZM519.542 140.536C519.446 137.352 514.47 138.344 514.47 136.568C514.47 135.976 514.982 135.576 515.958 135.576C516.95 135.576 517.542 136.104 517.606 136.872H519.43C519.334 135.112 518.022 134.04 516.022 134.04C513.942 134.04 512.63 135.176 512.63 136.584C512.63 139.816 517.75 138.824 517.75 140.552C517.75 141.16 517.19 141.608 516.134 141.608C515.126 141.608 514.438 141.016 514.374 140.296H512.486C512.566 141.896 514.054 143.144 516.166 143.144C518.246 143.144 519.542 142.024 519.542 140.536ZM520.905 138.552C520.905 141.272 522.745 143.144 525.033 143.144C526.505 143.144 527.561 142.44 528.121 141.688V143H529.961V134.184H528.121V135.464C527.577 134.744 526.553 134.04 525.065 134.04C522.745 134.04 520.905 135.832 520.905 138.552ZM528.121 138.584C528.121 140.488 526.825 141.56 525.449 141.56C524.089 141.56 522.777 140.456 522.777 138.552C522.777 136.648 524.089 135.624 525.449 135.624C526.825 135.624 528.121 136.696 528.121 138.584ZM532.356 143H534.18V131.16H532.356V143ZM540.287 135.576C541.647 135.576 542.719 136.44 542.751 137.8H537.871C538.063 136.408 539.055 135.576 540.287 135.576ZM544.415 140.376H542.447C542.111 141.064 541.487 141.608 540.367 141.608C539.023 141.608 537.983 140.728 537.855 139.272H544.591C544.639 138.968 544.655 138.68 544.655 138.376C544.655 135.784 542.879 134.04 540.367 134.04C537.759 134.04 535.967 135.816 535.967 138.584C535.967 141.352 537.839 143.144 540.367 143.144C542.527 143.144 543.919 141.912 544.415 140.376Z" fill="#989DAE"/>
<path d="M1.2 12H3.024V7.136H6.704V5.648H3.024V2.368H7.744V0.879999H1.2V12ZM17.4184 3.184H15.5944V8.096C15.5944 9.712 14.7144 10.544 13.3704 10.544C12.0424 10.544 11.1624 9.712 11.1624 8.096V3.184H9.35438V8.368C9.35438 10.832 10.9224 12.128 12.9864 12.128C14.0264 12.128 15.0184 11.696 15.5944 10.944V12H17.4184V3.184ZM20.113 9.552C20.113 11.344 21.089 12 22.657 12H24.097V10.48H22.977C22.209 10.48 21.953 10.208 21.953 9.552V4.672H24.097V3.184H21.953V0.992H20.113V3.184H19.073V4.672H20.113V9.552ZM33.7621 3.184H31.9381V8.096C31.9381 9.712 31.0581 10.544 29.7141 10.544C28.3861 10.544 27.5061 9.712 27.5061 8.096V3.184H25.6981V8.368C25.6981 10.832 27.2661 12.128 29.3301 12.128C30.3701 12.128 31.3621 11.696 31.9381 10.944V12H33.7621V3.184ZM37.9928 7.36C37.9928 5.488 38.8248 4.928 40.1688 4.928H40.6328V3.04C39.3848 3.04 38.5048 3.584 37.9928 4.464V3.184H36.1688V12H37.9928V7.36ZM46.0214 4.576C47.3814 4.576 48.4534 5.44 48.4854 6.8H43.6054C43.7974 5.408 44.7894 4.576 46.0214 4.576ZM50.1494 9.376H48.1814C47.8454 10.064 47.2214 10.608 46.1014 10.608C44.7574 10.608 43.7174 9.728 43.5894 8.272H50.3254C50.3734 7.968 50.3894 7.68 50.3894 7.376C50.3894 4.784 48.6134 3.04 46.1014 3.04C43.4934 3.04 41.7014 4.816 41.7014 7.584C41.7014 10.352 43.5734 12.144 46.1014 12.144C48.2614 12.144 49.6534 10.912 50.1494 9.376ZM4.832 24.88H1.2V36H4.832C8.4 36 10.736 33.904 10.736 30.48C10.736 27.04 8.4 24.88 4.832 24.88ZM3.024 34.512V26.368H4.832C7.456 26.368 8.864 27.936 8.864 30.48C8.864 33.008 7.456 34.512 4.832 34.512H3.024ZM16.2558 28.576C17.6158 28.576 18.6878 29.44 18.7198 30.8H13.8398C14.0318 29.408 15.0238 28.576 16.2558 28.576ZM20.3837 33.376H18.4158C18.0798 34.064 17.4558 34.608 16.3358 34.608C14.9918 34.608 13.9518 33.728 13.8238 32.272H20.5598C20.6078 31.968 20.6238 31.68 20.6238 31.376C20.6238 28.784 18.8478 27.04 16.3358 27.04C13.7278 27.04 11.9358 28.816 11.9358 31.584C11.9358 34.352 13.8078 36.144 16.3358 36.144C18.4958 36.144 19.8878 34.912 20.3837 33.376ZM21.3788 27.184L24.7228 36H26.8988L30.2587 27.184H28.3228L25.8268 34.368L23.3307 27.184H21.3788ZM35.3495 28.576C36.7095 28.576 37.7815 29.44 37.8135 30.8H32.9335C33.1255 29.408 34.1175 28.576 35.3495 28.576ZM39.4775 33.376H37.5095C37.1735 34.064 36.5495 34.608 35.4295 34.608C34.0855 34.608 33.0455 33.728 32.9175 32.272H39.6535C39.7015 31.968 39.7175 31.68 39.7175 31.376C39.7175 28.784 37.9415 27.04 35.4295 27.04C32.8215 27.04 31.0295 28.816 31.0295 31.584C31.0295 34.352 32.9015 36.144 35.4295 36.144C37.5895 36.144 38.9815 34.912 39.4775 33.376ZM41.5125 36H43.3365V24.16H41.5125V36ZM54.1313 31.584C54.1313 28.816 52.1473 27.04 49.6353 27.04C47.1233 27.04 45.1393 28.816 45.1393 31.584C45.1393 34.352 47.0433 36.144 49.5553 36.144C52.0833 36.144 54.1313 34.352 54.1313 31.584ZM46.9953 31.584C46.9953 29.584 48.2273 28.624 49.6033 28.624C50.9633 28.624 52.2593 29.584 52.2593 31.584C52.2593 33.584 50.9153 34.56 49.5553 34.56C48.1793 34.56 46.9953 33.584 46.9953 31.584ZM57.7584 28.48V27.184H55.9344V40.192H57.7584V34.72C58.3344 35.408 59.3744 36.144 60.8304 36.144C63.1504 36.144 64.9744 34.272 64.9744 31.552C64.9744 28.832 63.1504 27.04 60.8304 27.04C59.3904 27.04 58.3184 27.744 57.7584 28.48ZM63.1184 31.552C63.1184 33.456 61.8064 34.56 60.4304 34.56C59.0704 34.56 57.7584 33.488 57.7584 31.584C57.7584 29.696 59.0704 28.624 60.4304 28.624C61.8064 28.624 63.1184 29.648 63.1184 31.552ZM79.2741 36H81.0821V30.8C81.0821 28.336 79.5141 27.04 77.4501 27.04C76.1701 27.04 74.9221 27.712 74.3781 28.784C73.7701 27.632 72.6021 27.04 71.2101 27.04C70.1541 27.04 69.1941 27.472 68.6021 28.192V27.184H66.7781V36H68.6021V31.072C68.6021 29.456 69.4821 28.624 70.8261 28.624C72.1541 28.624 73.0341 29.456 73.0341 31.072V36H74.8421V31.072C74.8421 29.456 75.7221 28.624 77.0661 28.624C78.3941 28.624 79.2741 29.456 79.2741 31.072V36ZM87.1151 28.576C88.4751 28.576 89.5471 29.44 89.5791 30.8H84.6991C84.8911 29.408 85.8831 28.576 87.1151 28.576ZM91.2431 33.376H89.2751C88.9391 34.064 88.3151 34.608 87.1951 34.608C85.8511 34.608 84.8111 33.728 84.6831 32.272H91.4191C91.4671 31.968 91.4831 31.68 91.4831 31.376C91.4831 28.784 89.7071 27.04 87.1951 27.04C84.5871 27.04 82.7951 28.816 82.7951 31.584C82.7951 34.352 84.6671 36.144 87.1951 36.144C89.3551 36.144 90.7471 34.912 91.2431 33.376ZM99.5341 36H101.342V30.8C101.342 28.336 99.7901 27.04 97.7261 27.04C96.6701 27.04 95.6941 27.472 95.1021 28.192V27.184H93.2781V36H95.1021V31.072C95.1021 29.456 95.9821 28.624 97.3261 28.624C98.6541 28.624 99.5341 29.456 99.5341 31.072V36ZM103.957 33.552C103.957 35.344 104.933 36 106.501 36H107.941V34.48H106.821C106.053 34.48 105.797 34.208 105.797 33.552V28.672H107.941V27.184H105.797V24.992H103.957V27.184H102.917V28.672H103.957V33.552Z" fill="#989DAE"/>
<path d="M1.2 241H3.024V236.136H6.704V234.648H3.024V231.368H7.744V229.88H1.2V241ZM17.8344 236.584C17.8344 233.816 15.8504 232.04 13.3384 232.04C10.8264 232.04 8.84238 233.816 8.84238 236.584C8.84238 239.352 10.7464 241.144 13.2584 241.144C15.7864 241.144 17.8344 239.352 17.8344 236.584ZM10.6984 236.584C10.6984 234.584 11.9304 233.624 13.3064 233.624C14.6664 233.624 15.9624 234.584 15.9624 236.584C15.9624 238.584 14.6184 239.56 13.2584 239.56C11.8824 239.56 10.6984 238.584 10.6984 236.584ZM27.6215 232.184H25.7975V237.096C25.7975 238.712 24.9175 239.544 23.5735 239.544C22.2455 239.544 21.3655 238.712 21.3655 237.096V232.184H19.5575V237.368C19.5575 239.832 21.1255 241.128 23.1895 241.128C24.2295 241.128 25.2215 240.696 25.7975 239.944V241H27.6215V232.184ZM36.2841 241H38.0921V235.8C38.0921 233.336 36.5401 232.04 34.4761 232.04C33.4201 232.04 32.4441 232.472 31.8521 233.192V232.184H30.0281V241H31.8521V236.072C31.8521 234.456 32.7321 233.624 34.0761 233.624C35.4041 233.624 36.2841 234.456 36.2841 236.072V241ZM39.8108 236.552C39.8108 239.272 41.6508 241.144 43.9708 241.144C45.4108 241.144 46.4668 240.472 47.0268 239.672V241H48.8668V229.16H47.0268V233.416C46.3548 232.584 45.1388 232.04 43.9868 232.04C41.6508 232.04 39.8108 233.832 39.8108 236.552ZM47.0268 236.584C47.0268 238.488 45.7308 239.56 44.3548 239.56C42.9948 239.56 41.6828 238.456 41.6828 236.552C41.6828 234.648 42.9948 233.624 44.3548 233.624C45.7308 233.624 47.0268 234.696 47.0268 236.584ZM54.9745 233.576C56.3345 233.576 57.4065 234.44 57.4385 235.8H52.5585C52.7505 234.408 53.7425 233.576 54.9745 233.576ZM59.1025 238.376H57.1345C56.7985 239.064 56.1745 239.608 55.0545 239.608C53.7105 239.608 52.6705 238.728 52.5425 237.272H59.2785C59.3265 236.968 59.3425 236.68 59.3425 236.376C59.3425 233.784 57.5665 232.04 55.0545 232.04C52.4465 232.04 50.6545 233.816 50.6545 236.584C50.6545 239.352 52.5265 241.144 55.0545 241.144C57.2145 241.144 58.6065 239.912 59.1025 238.376ZM62.9615 236.36C62.9615 234.488 63.7935 233.928 65.1375 233.928H65.6015V232.04C64.3535 232.04 63.4735 232.584 62.9615 233.464V232.184H61.1375V241H62.9615V236.36ZM73.8541 238.536C73.7581 235.352 68.7821 236.344 68.7821 234.568C68.7821 233.976 69.2941 233.576 70.2701 233.576C71.2621 233.576 71.8541 234.104 71.9181 234.872H73.7421C73.6461 233.112 72.3341 232.04 70.3341 232.04C68.2541 232.04 66.9421 233.176 66.9421 234.584C66.9421 237.816 72.0621 236.824 72.0621 238.552C72.0621 239.16 71.5021 239.608 70.4461 239.608C69.4381 239.608 68.7501 239.016 68.6861 238.296H66.7981C66.8781 239.896 68.3661 241.144 70.4781 241.144C72.5581 241.144 73.8541 240.024 73.8541 238.536ZM87.0533 232.36C87.1653 230.84 86.1253 229.624 84.1893 229.624C82.2853 229.624 81.1013 230.728 81.1013 232.184C81.1013 232.968 81.3253 233.56 81.9493 234.312C80.1893 235.032 79.3413 236.296 79.3413 237.8C79.3413 239.88 80.9413 241.208 83.3413 241.208C84.8933 241.208 86.1253 240.696 87.1973 239.624L88.5733 241H90.9573L88.2533 238.312C88.3813 238.104 88.5253 237.88 88.6533 237.656L90.0933 235.192H88.1253L86.9893 237.064L84.0453 234.136C83.2613 233.288 82.9253 232.792 82.9253 232.184C82.9253 231.592 83.3893 231.112 84.1093 231.112C84.7973 231.112 85.2613 231.544 85.2293 232.36H87.0533ZM83.3413 239.656C82.0293 239.656 81.1653 238.808 81.1653 237.736C81.1653 236.744 81.7573 235.976 83.0533 235.464L85.9973 238.424C85.2293 239.24 84.3813 239.656 83.3413 239.656ZM98.1334 235V231.368H100.149C101.573 231.368 102.213 232.04 102.213 233.192C102.213 234.312 101.573 235 100.149 235H98.1334ZM104.085 233.192C104.085 231.384 102.789 229.88 100.149 229.88H96.3094V241H98.1334V236.488H100.149C103.045 236.488 104.085 234.776 104.085 233.192ZM107.649 236.36C107.649 234.488 108.481 233.928 109.825 233.928H110.289V232.04C109.041 232.04 108.161 232.584 107.649 233.464V232.184H105.825V241H107.649V236.36ZM115.678 233.576C117.038 233.576 118.11 234.44 118.142 235.8H113.262C113.454 234.408 114.446 233.576 115.678 233.576ZM119.806 238.376H117.838C117.502 239.064 116.878 239.608 115.758 239.608C114.414 239.608 113.374 238.728 113.246 237.272H119.982C120.03 236.968 120.046 236.68 120.046 236.376C120.046 233.784 118.27 232.04 115.758 232.04C113.15 232.04 111.358 233.816 111.358 236.584C111.358 239.352 113.23 241.144 115.758 241.144C117.918 241.144 119.31 239.912 119.806 238.376ZM121.841 241H123.665V229.88H121.841V241ZM125.451 235.416C125.451 238.76 127.995 241.096 131.131 241.096C133.451 241.096 135.451 239.944 136.299 237.768H134.107C133.515 238.952 132.459 239.512 131.131 239.512C128.923 239.512 127.323 237.928 127.323 235.416C127.323 232.904 128.923 231.336 131.131 231.336C132.459 231.336 133.515 231.896 134.107 233.08H136.299C135.451 230.904 133.451 229.736 131.131 229.736C127.995 229.736 125.451 232.088 125.451 235.416ZM149.186 235.416C149.186 232.088 146.674 229.736 143.506 229.736C140.37 229.736 137.826 232.088 137.826 235.416C137.826 238.76 140.37 241.112 143.506 241.112C146.674 241.112 149.186 238.76 149.186 235.416ZM139.698 235.416C139.698 232.904 141.298 231.336 143.506 231.336C145.714 231.336 147.314 232.904 147.314 235.416C147.314 237.928 145.714 239.528 143.506 239.528C141.298 239.528 139.698 237.928 139.698 235.416ZM0.592 259.416C0.592 262.76 3.136 265.096 6.272 265.096C8.592 265.096 10.592 263.944 11.44 261.768H9.248C8.656 262.952 7.6 263.512 6.272 263.512C4.064 263.512 2.464 261.928 2.464 259.416C2.464 256.904 4.064 255.336 6.272 255.336C7.6 255.336 8.656 255.896 9.248 257.08H11.44C10.592 254.904 8.592 253.736 6.272 253.736C3.136 253.736 0.592 256.088 0.592 259.416ZM21.975 260.584C21.975 257.816 19.991 256.04 17.479 256.04C14.967 256.04 12.983 257.816 12.983 260.584C12.983 263.352 14.887 265.144 17.399 265.144C19.927 265.144 21.975 263.352 21.975 260.584ZM14.839 260.584C14.839 258.584 16.071 257.624 17.447 257.624C18.807 257.624 20.103 258.584 20.103 260.584C20.103 262.584 18.759 263.56 17.399 263.56C16.023 263.56 14.839 262.584 14.839 260.584ZM30.0341 265H31.8421V259.8C31.8421 257.336 30.2901 256.04 28.2261 256.04C27.1701 256.04 26.1941 256.472 25.6021 257.192V256.184H23.7781V265H25.6021V260.072C25.6021 258.456 26.4821 257.624 27.8261 257.624C29.1541 257.624 30.0341 258.456 30.0341 260.072V265ZM34.4568 262.552C34.4568 264.344 35.4328 265 37.0008 265H38.4408V263.48H37.3208C36.5528 263.48 36.2968 263.208 36.2968 262.552V257.672H38.4408V256.184H36.2968V253.992H34.4568V256.184H33.4168V257.672H34.4568V262.552ZM41.9459 260.36C41.9459 258.488 42.7779 257.928 44.1219 257.928H44.5859V256.04C43.3379 256.04 42.4579 256.584 41.9459 257.464V256.184H40.1219V265H41.9459V260.36ZM46.2625 265H48.0865V256.184H46.2625V265ZM47.1905 255.016C47.8305 255.016 48.3425 254.504 48.3425 253.848C48.3425 253.192 47.8305 252.68 47.1905 252.68C46.5345 252.68 46.0225 253.192 46.0225 253.848C46.0225 254.504 46.5345 255.016 47.1905 255.016ZM52.3053 257.496V253.16H50.4813V265H52.3053V263.72C52.8813 264.488 53.9213 265.144 55.3773 265.144C57.6973 265.144 59.5213 263.272 59.5213 260.552C59.5213 257.832 57.7133 256.04 55.3773 256.04C53.9852 256.04 52.8813 256.696 52.3053 257.496ZM57.6653 260.552C57.6653 262.456 56.3533 263.56 54.9773 263.56C53.6173 263.56 52.3053 262.488 52.3053 260.584C52.3053 258.696 53.6173 257.624 54.9773 257.624C56.3533 257.624 57.6653 258.648 57.6653 260.552ZM69.309 256.184H67.485V261.096C67.485 262.712 66.605 263.544 65.261 263.544C63.933 263.544 63.053 262.712 63.053 261.096V256.184H61.245V261.368C61.245 263.832 62.813 265.128 64.877 265.128C65.917 265.128 66.909 264.696 67.485 263.944V265H69.309V256.184ZM72.0036 262.552C72.0036 264.344 72.9796 265 74.5476 265H75.9876V263.48H74.8676C74.0996 263.48 73.8436 263.208 73.8436 262.552V257.672H75.9876V256.184H73.8436V253.992H72.0036V256.184H70.9636V257.672H72.0036V262.552ZM86.0688 260.584C86.0688 257.816 84.0848 256.04 81.5728 256.04C79.0608 256.04 77.0768 257.816 77.0768 260.584C77.0768 263.352 78.9808 265.144 81.4928 265.144C84.0208 265.144 86.0688 263.352 86.0688 260.584ZM78.9328 260.584C78.9328 258.584 80.1648 257.624 81.5408 257.624C82.9008 257.624 84.1968 258.584 84.1968 260.584C84.1968 262.584 82.8528 263.56 81.4928 263.56C80.1168 263.56 78.9328 262.584 78.9328 260.584ZM89.6959 260.36C89.6959 258.488 90.5279 257.928 91.8719 257.928H92.3359V256.04C91.0879 256.04 90.2079 256.584 89.6959 257.464V256.184H87.8719V265H89.6959V260.36ZM100.589 262.536C100.493 259.352 95.5165 260.344 95.5165 258.568C95.5165 257.976 96.0285 257.576 97.0045 257.576C97.9965 257.576 98.5885 258.104 98.6525 258.872H100.477C100.381 257.112 99.0685 256.04 97.0685 256.04C94.9885 256.04 93.6765 257.176 93.6765 258.584C93.6765 261.816 98.7965 260.824 98.7965 262.552C98.7965 263.16 98.2365 263.608 97.1805 263.608C96.1725 263.608 95.4845 263.016 95.4205 262.296H93.5325C93.6125 263.896 95.1005 265.144 97.2125 265.144C99.2925 265.144 100.589 264.024 100.589 262.536Z" fill="#989DAE"/>
<path d="M326.2 253.88V265H331.784V263.528H328.024V253.88H326.2ZM333.309 265H335.133V256.184H333.309V265ZM334.237 255.016C334.877 255.016 335.389 254.504 335.389 253.848C335.389 253.192 334.877 252.68 334.237 252.68C333.581 252.68 333.069 253.192 333.069 253.848C333.069 254.504 333.581 255.016 334.237 255.016ZM336.92 260.552C336.92 263.272 338.76 265.144 341.032 265.144C342.52 265.144 343.624 264.408 344.136 263.72V269.192H345.976V256.184H344.136V257.464C343.624 256.744 342.552 256.04 341.096 256.04C338.76 256.04 336.92 257.832 336.92 260.552ZM344.136 260.584C344.136 262.488 342.84 263.56 341.464 263.56C340.104 263.56 338.792 262.456 338.792 260.552C338.792 258.648 340.104 257.624 341.464 257.624C342.84 257.624 344.136 258.696 344.136 260.584ZM356.356 256.184H354.532V261.096C354.532 262.712 353.652 263.544 352.308 263.544C350.98 263.544 350.1 262.712 350.1 261.096V256.184H348.292V261.368C348.292 263.832 349.86 265.128 351.924 265.128C352.964 265.128 353.956 264.696 354.532 263.944V265H356.356V256.184ZM358.763 265H360.587V256.184H358.763V265ZM359.691 255.016C360.331 255.016 360.843 254.504 360.843 253.848C360.843 253.192 360.331 252.68 359.691 252.68C359.035 252.68 358.523 253.192 358.523 253.848C358.523 254.504 359.035 255.016 359.691 255.016ZM362.373 260.552C362.373 263.272 364.213 265.144 366.533 265.144C367.973 265.144 369.029 264.472 369.589 263.672V265H371.429V253.16H369.589V257.416C368.917 256.584 367.701 256.04 366.549 256.04C364.213 256.04 362.373 257.832 362.373 260.552ZM369.589 260.584C369.589 262.488 368.293 263.56 366.917 263.56C365.557 263.56 364.245 262.456 364.245 260.552C364.245 258.648 365.557 257.624 366.917 257.624C368.293 257.624 369.589 258.696 369.589 260.584ZM373.825 265H375.649V256.184H373.825V265ZM374.753 255.016C375.393 255.016 375.905 254.504 375.905 253.848C375.905 253.192 375.393 252.68 374.753 252.68C374.097 252.68 373.585 253.192 373.585 253.848C373.585 254.504 374.097 255.016 374.753 255.016ZM378.332 262.552C378.332 264.344 379.308 265 380.876 265H382.316V263.48H381.196C380.428 263.48 380.172 263.208 380.172 262.552V257.672H382.316V256.184H380.172V253.992H378.332V256.184H377.292V257.672H378.332V262.552ZM387.469 262.904L384.989 256.184H382.957L386.429 264.856L384.637 269.144H386.525L391.933 256.184H390.045L387.469 262.904ZM399.29 259V255.368H401.306C402.73 255.368 403.37 256.04 403.37 257.192C403.37 258.312 402.73 259 401.306 259H399.29ZM405.242 257.192C405.242 255.384 403.946 253.88 401.306 253.88H397.466V265H399.29V260.488H401.306C404.202 260.488 405.242 258.776 405.242 257.192ZM415.381 260.584C415.381 257.816 413.397 256.04 410.885 256.04C408.373 256.04 406.389 257.816 406.389 260.584C406.389 263.352 408.293 265.144 410.805 265.144C413.333 265.144 415.381 263.352 415.381 260.584ZM408.245 260.584C408.245 258.584 409.477 257.624 410.853 257.624C412.213 257.624 413.509 258.584 413.509 260.584C413.509 262.584 412.165 263.56 410.805 263.56C409.429 263.56 408.245 262.584 408.245 260.584ZM425.584 260.584C425.584 257.816 423.6 256.04 421.088 256.04C418.576 256.04 416.592 257.816 416.592 260.584C416.592 263.352 418.496 265.144 421.008 265.144C423.536 265.144 425.584 263.352 425.584 260.584ZM418.448 260.584C418.448 258.584 419.68 257.624 421.056 257.624C422.416 257.624 423.712 258.584 423.712 260.584C423.712 262.584 422.368 263.56 421.008 263.56C419.632 263.56 418.448 262.584 418.448 260.584ZM427.388 265H429.212V253.16H427.388V265ZM442.835 256.36C442.947 254.84 441.907 253.624 439.971 253.624C438.067 253.624 436.883 254.728 436.883 256.184C436.883 256.968 437.107 257.56 437.731 258.312C435.971 259.032 435.123 260.296 435.123 261.8C435.123 263.88 436.723 265.208 439.123 265.208C440.675 265.208 441.907 264.696 442.979 263.624L444.355 265H446.739L444.035 262.312C444.163 262.104 444.307 261.88 444.435 261.656L445.875 259.192H443.907L442.771 261.064L439.827 258.136C439.043 257.288 438.707 256.792 438.707 256.184C438.707 255.592 439.171 255.112 439.891 255.112C440.579 255.112 441.043 255.544 441.011 256.36H442.835ZM439.123 263.656C437.811 263.656 436.947 262.808 436.947 261.736C436.947 260.744 437.539 259.976 438.835 259.464L441.779 262.424C441.011 263.24 440.163 263.656 439.123 263.656ZM451.515 255.368H454.491V265H456.315V255.368H459.275V253.88H451.515V255.368ZM464.834 257.576C466.194 257.576 467.266 258.44 467.298 259.8H462.418C462.61 258.408 463.602 257.576 464.834 257.576ZM468.962 262.376H466.994C466.658 263.064 466.034 263.608 464.914 263.608C463.57 263.608 462.53 262.728 462.402 261.272H469.138C469.186 260.968 469.202 260.68 469.202 260.376C469.202 257.784 467.426 256.04 464.914 256.04C462.306 256.04 460.514 257.816 460.514 260.584C460.514 263.352 462.386 265.144 464.914 265.144C467.074 265.144 468.466 263.912 468.962 262.376ZM470.389 260.552C470.389 263.272 472.229 265.144 474.517 265.144C475.989 265.144 477.045 264.44 477.605 263.688V265H479.445V256.184H477.605V257.464C477.061 256.744 476.037 256.04 474.549 256.04C472.229 256.04 470.389 257.832 470.389 260.552ZM477.605 260.584C477.605 262.488 476.309 263.56 474.933 263.56C473.573 263.56 472.261 262.456 472.261 260.552C472.261 258.648 473.573 257.624 474.933 257.624C476.309 257.624 477.605 258.696 477.605 260.584ZM494.337 265H496.145V259.8C496.145 257.336 494.577 256.04 492.513 256.04C491.233 256.04 489.985 256.712 489.441 257.784C488.833 256.632 487.665 256.04 486.273 256.04C485.217 256.04 484.257 256.472 483.665 257.192V256.184H481.841V265H483.665V260.072C483.665 258.456 484.545 257.624 485.889 257.624C487.217 257.624 488.097 258.456 488.097 260.072V265H489.905V260.072C489.905 258.456 490.785 257.624 492.129 257.624C493.457 257.624 494.337 258.456 494.337 260.072V265Z" fill="#989DAE"/>
<line x1="115" y1="32.5" x2="181" y2="32.5" stroke="white"/>
<line x1="323" y1="264.5" x2="232" y2="264.5" stroke="white"/>
<line x1="230.524" y1="264.154" x2="218.524" y2="227.154" stroke="white"/>
<line x1="141.5" y1="222" x2="141.5" y2="169" stroke="white"/>
<line x1="141.723" y1="168.584" x2="165.723" y2="152.584" stroke="white"/>
<line x1="452" y1="131.5" x2="395" y2="131.5" stroke="white"/>
<defs>
<clipPath id="clip0">
<rect width="225" height="224" fill="white" transform="translate(157.883 9.45703)"/>
</clipPath>
</defs>
</svg>
