<svg width="1578" height="1063" viewBox="0 0 1578 1063" fill="none" xmlns="http://www.w3.org/2000/svg">
<g clip-path="url(#clip0)">
<path d="M217.099 210.752C210.498 208.264 203.53 207.553 196.562 208.264C190.328 213.95 179.327 215.372 170.892 216.083C162.457 207.909 151.822 200.445 141.188 195.114C134.22 191.56 125.785 188.006 123.585 180.543C119.918 168.815 99.0146 163.839 86.5461 166.682C70.7771 162.418 52.8078 167.749 39.9726 178.055C34.4718 182.32 40.706 193.337 45.4734 198.668C50.2408 203.999 56.475 209.686 55.0081 216.438C49.1406 219.281 41.0727 219.637 34.8385 219.281C30.8045 219.281 27.1373 218.215 23.4701 219.637C20.1696 220.348 17.2359 224.257 18.336 227.456C15.769 231.72 12.8352 233.853 15.769 238.118C17.9693 241.316 22.0032 243.804 22.0032 247.713C22.0032 250.912 19.4362 253.4 16.5024 254.466C13.5687 255.888 10.6349 256.598 7.70113 258.02C-0.733448 262.996 -0.733448 274.724 0.366714 284.32C5.86753 290.717 6.60097 301.734 4.03392 309.553C2.93376 312.396 1.46688 315.595 2.56704 318.793C3.6672 322.347 8.06785 323.413 11.3683 324.48C19.0695 326.257 28.2375 328.034 34.105 323.058C50.2408 310.264 75.1778 316.661 95.7141 321.281C102.682 322.703 110.016 325.19 114.417 331.232C119.918 339.051 117.717 349.713 112.95 357.887C108.549 366.061 101.948 373.525 99.0146 382.41C96.4476 390.939 97.181 399.824 97.9145 408.354C99.0146 419.016 100.115 430.389 106.349 439.274C112.95 448.514 117.351 462.375 116.617 473.392C116.251 482.277 112.95 491.517 113.683 500.402C115.15 516.751 129.819 529.19 144.855 537.009C160.624 545.183 173.826 559.399 179.327 575.747C181.894 583.921 182.994 592.806 185.194 600.981C189.228 615.552 198.396 628.346 210.498 637.942C219.299 644.695 233.601 647.182 244.97 648.959C250.837 650.026 257.071 650.736 261.105 654.646C262.939 656.423 264.406 658.555 266.606 660.332C275.774 669.217 293.01 665.663 302.178 674.193C304.745 676.325 306.212 679.524 308.412 682.012C314.28 688.764 323.448 692.674 332.249 691.963C330.049 698.715 338.483 706.534 335.916 712.931C333.716 718.262 327.848 720.395 323.448 724.304C316.113 731.057 315.013 742.074 317.947 751.314C321.247 760.555 327.848 768.018 334.449 775.482C346.918 788.987 361.954 795.384 375.522 807.823C387.991 819.196 390.924 838.032 387.991 854.38C385.057 870.729 377.723 886.366 372.588 902.359C362.687 932.213 360.12 964.91 369.655 994.763C379.189 1024.62 401.559 1051.27 431.264 1063C434.564 1064.42 438.598 1061.93 441.165 1059.45C443.732 1056.96 444.099 1052.69 442.265 1049.85C436.765 1040.25 427.23 1032.08 420.262 1023.55C418.062 1020.71 415.861 1017.86 415.861 1014.31C416.228 1010.4 419.529 1007.56 422.096 1004.71C425.763 1000.09 427.963 994.408 427.963 988.366C427.963 982.68 424.663 977.349 424.663 972.018C425.03 966.687 427.963 960.645 433.464 958.868C436.031 958.157 438.598 958.157 441.165 957.091C448.866 953.892 447.766 942.164 453.267 936.122C455.834 933.279 459.868 931.857 463.168 930.081C478.204 922.973 490.673 909.112 492.139 893.119C493.24 880.325 488.472 864.687 498.374 856.157C507.542 848.339 521.844 853.67 533.946 851.537C538.713 850.826 542.013 846.206 544.581 841.941C546.781 837.677 547.148 832.701 546.414 827.725C545.314 821.684 542.747 815.997 543.48 810.311C544.214 802.137 551.182 795.384 556.316 788.987C562.55 781.168 566.951 771.928 569.151 762.332C571.718 751.315 564.383 738.165 554.115 732.834C543.847 727.503 531.745 727.147 520.01 726.792C508.275 726.437 495.807 725.726 486.272 718.973C477.471 712.931 472.703 703.336 465.736 695.161C454 681.656 437.131 674.193 420.629 666.729C414.395 663.886 407.427 661.043 401.193 663.175C398.626 663.886 396.425 665.663 393.858 666.019C386.524 667.44 380.656 660.688 374.422 657.489C360.853 650.381 341.784 660.688 340.317 675.259C333.349 677.747 320.514 675.614 316.48 669.573C313.546 665.308 312.446 659.266 307.679 657.134C305.112 656.067 301.811 656.423 299.611 654.646C295.944 651.803 298.878 646.116 299.611 641.851C300.711 634.743 295.21 627.991 288.243 624.792C281.642 621.594 273.574 621.238 266.239 621.238C258.905 620.883 250.837 620.527 244.236 617.329C231.034 610.932 225.9 593.872 231.401 580.723C237.268 567.573 251.937 559.754 266.606 560.11C280.908 560.465 295.944 570.772 295.944 584.632C295.944 588.186 301.811 588.542 305.112 586.765C308.412 584.988 309.879 581.434 310.613 578.235C311.346 574.681 311.346 571.127 312.446 567.928C315.013 560.11 323.081 554.423 331.516 554.423C340.317 554.423 346.551 545.894 352.785 540.207C359.02 534.165 362.687 525.28 360.12 517.106C358.653 512.841 355.719 508.221 357.186 503.956C358.286 500.402 361.954 498.625 365.254 497.204C374.789 493.294 385.057 491.517 395.325 491.873C404.126 492.228 408.894 486.897 413.294 479.434C416.595 474.103 418.062 467.35 423.196 463.796C430.897 458.465 441.899 463.086 451.433 462.375C465.369 461.309 476.37 446.026 472.337 433.232C470.503 426.835 466.102 421.859 462.435 416.528C457.301 409.065 454 400.535 452.167 392.006C450.333 383.831 449.967 374.946 444.466 368.905C436.031 369.26 425.396 368.905 418.062 372.814C416.595 364.284 414.761 355.399 409.627 348.647C404.126 341.894 393.858 337.985 386.157 342.25C378.823 346.514 376.989 356.466 378.456 364.64C379.923 372.814 383.223 380.988 383.223 389.162C382.857 397.692 376.989 406.932 368.188 406.577C363.787 406.577 359.753 403.734 356.453 400.535C352.052 396.27 348.385 390.584 342.517 387.741C338.117 385.608 332.983 385.608 328.215 384.542C311.713 380.988 300.344 362.863 305.112 346.87C309.512 331.232 328.949 321.281 345.084 326.257C364.521 319.504 372.222 295.692 364.521 277.212C356.819 258.731 335.916 247.358 315.38 246.292C309.512 245.936 303.278 246.647 297.411 245.226C280.908 241.316 272.107 223.546 257.805 214.661C249.37 208.975 227.734 214.661 217.099 210.752Z" fill="#1B1B39"/>
<path d="M477.47 153.533C471.236 162.773 478.204 175.567 487.372 182.32C496.54 189.073 508.275 192.982 515.609 201.867C527.345 215.728 524.044 236.696 517.443 253.4C510.842 270.459 502.041 287.518 504.241 305.288C505.341 313.818 509.008 321.637 513.409 329.1C517.81 336.208 524.044 342.961 532.479 344.738C543.114 347.225 553.748 341.184 561.45 334.076C569.517 326.968 576.485 318.438 586.02 313.818C599.955 307.065 617.925 309.553 630.026 300.313C645.062 288.584 642.862 266.55 646.896 248.069C653.863 217.505 681.367 194.759 692.002 165.261C694.203 159.574 695.669 153.533 695.303 147.135C694.936 127.233 677.7 110.885 658.264 104.132C634.427 95.9579 610.223 100.933 586.02 99.8673C572.818 99.1565 558.149 93.8255 545.314 99.1565C525.511 107.331 531.378 126.167 518.177 137.54C507.175 147.846 486.272 140.383 477.47 153.533Z" fill="#1B1B39"/>
<path d="M1013.25 273.658C1001.88 262.996 983.179 273.302 971.444 283.609C959.709 293.916 947.974 303.867 936.239 314.173C927.437 321.992 917.903 329.811 906.168 331.588C894.432 333.365 880.497 326.257 880.13 314.884C888.198 307.421 903.967 318.438 911.302 310.619C917.903 303.511 908.368 293.56 899.933 288.94C884.531 280.41 868.762 271.525 850.793 269.038C833.19 266.55 813.02 272.592 803.852 287.163C796.151 299.957 797.618 316.306 789.55 329.1C784.783 336.919 776.715 342.605 771.214 350.424C765.713 357.887 763.513 369.26 770.114 376.013C775.615 381.344 784.783 381.344 790.284 386.675C794.318 390.94 795.785 397.692 801.285 399.825C807.52 402.312 814.487 396.626 815.954 390.229C817.421 383.832 815.221 377.079 814.121 370.682C810.82 351.49 821.088 327.678 840.891 324.835C845.292 324.835 847.125 331.232 844.925 335.142C842.725 339.051 839.058 341.894 836.857 345.804C832.823 353.267 837.591 363.574 845.659 365.706C854.46 367.839 868.762 366.062 867.662 374.591C866.562 383.832 848.959 377.79 843.458 385.253C840.158 389.518 843.092 395.915 843.092 401.246C843.092 411.908 830.99 418.661 819.988 419.727C808.987 420.438 797.985 417.239 786.983 418.305C775.982 419.372 764.247 426.835 764.613 437.497C749.578 444.25 733.809 449.936 717.673 454.201C718.406 465.573 740.776 466.64 740.776 478.368C740.776 485.12 731.975 489.03 724.641 488.319C717.673 487.964 710.339 485.12 703.371 486.897C691.269 490.096 687.235 506.089 693.836 516.396C700.437 526.347 714.006 530.612 726.474 529.545C731.242 529.19 736.742 527.768 739.676 524.214C742.61 520.66 742.977 515.685 744.077 511.42C747.011 501.469 755.445 493.295 765.713 491.162C771.581 489.741 778.549 489.741 781.849 484.765C795.051 491.873 804.586 505.378 806.053 519.95C810.453 525.281 819.988 518.528 818.888 511.775C817.788 505.023 811.92 500.403 807.153 495.427C802.386 490.451 798.352 482.988 802.019 477.302C824.755 483.699 843.092 502.89 848.226 525.281C856.294 523.859 860.694 513.197 855.927 506.8C858.494 501.469 867.295 504.667 869.862 509.643C872.429 514.619 872.062 521.371 876.096 525.991C886.731 539.497 915.702 523.148 924.504 537.72C930.738 548.026 916.802 560.11 904.334 559.754C892.232 559.399 880.864 552.646 868.762 551.58C855.193 550.159 841.991 555.845 828.789 557.267C815.221 558.688 798.718 553.713 795.785 540.918C795.051 537.364 795.418 533.81 793.584 530.612C791.017 526.347 784.783 525.281 779.649 525.991C757.279 528.479 734.542 550.869 715.839 538.43C704.104 560.821 675.133 568.995 658.998 588.897C641.395 610.221 642.862 643.273 660.098 664.953C676.967 686.632 707.405 696.939 735.276 693.385C741.51 692.674 748.478 691.252 754.345 693.74C760.213 696.228 763.88 701.559 769.014 705.468C773.781 709.378 782.216 711.51 786.25 706.534C781.482 717.907 782.949 731.057 789.55 741.364C796.885 752.381 810.453 760.911 810.087 774.06C810.087 780.813 806.053 786.855 803.852 793.252C795.051 823.105 831.356 847.273 837.224 877.837C838.691 886.011 838.691 895.962 846.025 900.583C849.326 902.715 853.36 903.07 857.394 903.426C877.563 904.847 903.234 898.806 907.268 879.614C908.368 874.283 907.634 868.597 907.634 862.91C908.001 846.206 918.636 830.213 934.038 822.75C938.072 820.618 942.84 819.196 946.14 815.997C953.475 808.889 952.008 797.161 947.974 787.921C944.307 778.68 938.806 769.44 939.906 759.489C942.106 743.496 959.709 735.322 972.911 725.726C993.08 711.51 1006.65 689.12 1010.32 665.308C991.98 670.994 969.244 675.615 955.308 662.82C950.541 658.2 947.607 652.514 944.673 646.472C935.872 628.702 927.437 611.287 918.636 593.517C917.536 591.03 916.436 588.542 917.169 586.054C919.736 579.657 930.004 584.988 933.672 590.674C947.607 611.643 960.075 633.322 971.077 656.068C993.447 652.158 1015.08 642.918 1033.42 629.768C1039.29 625.503 1045.15 620.528 1046.99 613.775C1048.82 607.022 1045.15 598.138 1038.19 597.071C1035.25 596.716 1032.69 597.427 1029.75 597.427C1012.88 599.204 998.215 586.765 986.846 573.97C994.547 565.796 1008.12 570.416 1018.75 575.037C1037.45 583.211 1056.89 589.253 1077.06 592.451C1082.19 593.162 1087.33 593.873 1091.73 596.361C1095.03 597.782 1097.6 600.27 1100.16 602.402C1123.27 623.016 1140.5 650.026 1149.3 679.524C1158.1 681.301 1164.34 670.994 1165.07 662.109C1165.81 653.224 1164.71 643.273 1171.31 637.231C1176.44 632.256 1184.88 631.9 1189.28 626.214C1194.78 619.461 1191.84 608.089 1198.44 602.047C1206.88 594.583 1220.08 603.824 1224.48 613.775C1228.88 623.726 1230.35 636.165 1239.88 642.207C1245.02 641.496 1249.79 640.785 1254.92 640.075C1254.92 664.597 1263.72 689.12 1279.49 708.667C1287.92 704.402 1284.26 691.608 1278.76 683.789C1273.26 675.97 1268.12 664.242 1275.82 658.555C1286.46 658.555 1291.22 672.771 1301.49 675.259C1311.76 677.747 1320.93 666.019 1319.1 655.712C1317.26 645.761 1308.46 638.298 1299.29 633.322C1290.86 624.437 1302.96 610.577 1315.06 608.444C1327.16 606.312 1340.37 609.866 1351.37 604.535C1364.57 598.138 1368.97 581.434 1366.04 567.573C1363.1 553.713 1354.67 541.629 1347.7 529.19C1341.83 518.528 1338.9 501.824 1350.27 497.204C1353.2 495.782 1356.87 496.138 1360.17 495.782C1403.81 494.005 1440.11 449.225 1431.31 407.643C1429.48 399.825 1426.54 392.006 1420.68 386.319C1410.41 376.013 1392.81 373.525 1384.74 361.441C1375.2 346.515 1386.94 326.612 1402.34 317.016C1417.38 307.421 1436.08 303.156 1450.38 292.139C1454.05 292.139 1456.25 288.585 1456.98 284.675C1457.35 282.543 1456.98 280.055 1456.98 277.923C1456.98 271.525 1461.75 265.484 1467.98 263.707C1474.22 261.93 1481.55 264.417 1485.22 270.104C1489.62 276.856 1487.79 285.386 1484.49 292.494C1481.19 299.602 1476.79 306.71 1476.05 314.173C1475.32 321.992 1479.72 330.877 1487.79 331.943C1497.69 333.009 1503.92 321.637 1504.66 312.396C1505.39 302.801 1503.56 292.494 1508.69 284.32C1516.76 272.236 1538.76 269.393 1539.49 254.822C1539.86 243.093 1524.83 236.341 1521.89 224.968C1520.79 220.348 1521.89 215.728 1522.26 210.752C1524.09 193.337 1516.02 174.857 1501.72 164.195C1487.42 153.177 1467.62 149.623 1450.01 155.31C1444.51 157.087 1439.01 159.93 1433.15 161.351C1424.71 163.484 1415.91 162.773 1407.11 162.418C1391.34 161.351 1375.94 160.285 1360.17 159.219C1346.23 158.153 1331.2 157.442 1319.1 163.839C1301.13 173.08 1290.86 196.181 1270.32 198.313C1256.02 200.09 1243.18 190.494 1229.62 185.163C1207.98 176.989 1181.57 180.898 1163.61 195.114C1156.64 191.916 1158.84 181.965 1156.64 174.857C1154.07 167.393 1146 163.128 1137.94 162.418C1129.87 161.707 1122.17 164.195 1114.46 166.327C1097.96 171.658 1079.26 180.188 1077.79 196.891C1077.43 201.512 1078.53 206.487 1076.33 210.752C1073.39 216.794 1065.69 218.926 1060.92 223.546C1055.06 229.233 1054.32 237.762 1053.96 245.937C1053.59 253.755 1053.59 262.285 1048.82 269.038C1044.05 276.146 1019.12 279.344 1013.25 273.658Z" fill="#1B1B39"/>
<path d="M1319.1 732.123C1322.76 737.454 1329 740.653 1335.23 743.141C1342.57 746.339 1351.73 748.472 1358.33 744.207C1362.74 741.364 1378.14 720.751 1379.24 716.486C1381.44 707.956 1378.5 708.311 1369.7 706.89C1355.03 703.691 1302.59 709.022 1319.1 732.123Z" fill="#1B1B39"/>
<path d="M1267.39 729.28C1287.56 765.175 1329.36 788.632 1371.54 788.276C1374.47 785.433 1370.07 780.813 1366.4 779.391C1355.77 775.126 1344.4 772.994 1333.4 769.085C1322.4 765.531 1311.76 759.844 1305.16 750.604C1302.59 746.694 1300.76 742.43 1298.56 738.165C1292.32 726.081 1267.02 695.872 1251.25 703.336C1255.29 711.155 1262.25 720.395 1267.39 729.28Z" fill="#1B1B39"/>
<path d="M1377.77 812.799C1372.27 818.84 1367.14 825.948 1359.43 827.725C1354.67 828.792 1349.9 827.725 1345.13 828.792C1331.2 831.99 1328.26 849.76 1331.2 863.265C1334.5 876.771 1340.73 890.631 1335.6 903.426C1334.5 905.913 1333.03 908.401 1333.03 911.244C1333.03 914.443 1335.6 917.286 1338.16 919.419C1350.63 928.659 1368.6 921.906 1382.54 914.798C1396.47 907.69 1412.98 899.516 1426.91 906.98C1441.58 914.798 1443.05 934.701 1452.22 948.206C1460.28 960.289 1477.89 967.397 1490.35 959.934C1494.75 957.446 1497.69 953.537 1500.62 949.628C1506.86 941.809 1513.09 933.634 1519.32 925.816C1527.76 915.509 1536.19 904.136 1537.66 890.987C1540.59 865.753 1517.49 845.495 1496.59 829.858C1495.49 821.684 1494.39 813.509 1489.99 806.401C1481.55 792.185 1463.95 790.764 1468.72 810.666C1455.15 811.022 1444.15 791.475 1428.74 789.698C1411.14 787.565 1389.51 800.004 1377.77 812.799Z" fill="#1B1B39"/>
<path d="M433.831 732.479C433.831 732.479 433.097 745.984 431.997 747.05C430.897 748.472 427.23 748.116 426.13 746.339C425.03 744.562 429.063 732.834 429.063 732.834L433.831 732.479Z" fill="#5D569C"/>
<path d="M458.035 613.064L462.435 639.364L459.135 692.318L456.201 731.768C455.834 733.545 456.934 734.611 455.101 734.966C452.534 735.322 449.967 733.545 450.333 730.701L451.434 689.12L452.9 650.737L443.366 651.447L438.965 696.939L433.464 732.834L429.43 733.9L430.53 694.806L434.931 642.562L437.498 625.503L446.666 623.726L458.035 613.064Z" fill="#EAC1CE"/>
<path d="M456.201 732.123L466.103 737.099L465.369 738.165C462.802 738.52 461.702 738.52 459.135 737.454L450.7 733.9V731.057L456.201 732.123Z" fill="#5D569C"/>
<path d="M444.099 615.197L431.631 634.033L424.663 682.722C424.663 682.722 446.299 689.475 455.834 684.499C465.369 679.168 465.002 676.681 465.002 676.681L463.169 634.743L452.534 606.312C452.167 602.758 451.067 597.427 447.4 596.716L445.933 592.451L436.398 594.939H437.498C434.564 596.716 436.765 595.65 435.664 598.848L444.099 615.197Z" fill="#5D569C"/>
<path d="M437.865 587.475L453.634 586.054L448.867 601.691L437.865 587.475Z" fill="#EAC1CE"/>
<path d="M430.897 565.796C430.897 573.259 437.131 579.657 445.199 579.657C452.9 579.657 459.501 573.615 459.501 565.796C459.501 558.333 453.267 551.936 445.199 551.936C437.131 551.936 430.897 558.333 430.897 565.796Z" fill="#5D569C"/>
<path d="M428.33 556.2C428.33 560.465 431.997 564.019 436.398 564.019C440.799 564.019 444.466 560.465 444.466 556.2C444.466 551.936 440.799 548.382 436.398 548.382C431.997 548.382 428.33 551.936 428.33 556.2Z" fill="#5D569C"/>
<path d="M455.467 585.698C455.467 585.698 480.038 608.089 480.404 607.022C480.771 605.956 492.139 586.765 492.139 586.765L495.44 588.542L484.438 614.13C483.705 616.263 481.138 616.974 478.937 616.263L454.734 606.667L455.467 585.698Z" fill="#FDFEFE"/>
<path d="M446.666 554.423C453.267 554.423 458.768 559.754 458.768 566.151V573.615C458.768 580.012 453.267 585.343 446.666 585.343C440.065 585.343 434.564 580.012 434.564 573.615V566.151C434.564 559.754 440.065 554.423 446.666 554.423Z" fill="#EAC1CE"/>
<path d="M446.666 554.423C440.065 554.423 434.564 559.754 434.564 566.151V572.193C438.231 570.772 440.798 566.862 440.798 562.597C440.798 561.531 440.798 560.82 440.432 559.754C442.265 560.82 444.099 561.531 446.666 561.531C449.966 561.531 452.9 560.109 455.101 557.622C452.9 555.845 449.966 554.423 446.666 554.423Z" fill="#5D569C"/>
<path d="M460.601 613.775L464.269 608.799C466.102 606.312 466.102 603.468 464.635 600.625L462.435 596.716C459.135 592.806 459.135 586.409 455.467 585.698L431.264 587.831L430.53 588.186C428.697 589.608 427.596 597.427 430.164 605.245C431.63 609.155 437.498 616.263 437.498 616.263L430.897 634.033C431.997 635.454 434.197 636.876 438.231 637.231C444.832 637.587 459.135 636.876 463.535 634.033L460.601 613.775Z" fill="#FDFEFE"/>
<path d="M430.531 588.542L412.195 616.974L418.796 647.183L423.93 647.894L422.83 617.685L438.232 598.138L430.531 588.542Z" fill="#FDFEFE"/>
<path d="M410.728 645.406L435.298 653.935L430.897 676.681L405.594 667.441L410.728 645.406Z" fill="#E48F9B"/>
<path d="M420.996 654.291C423.224 654.291 425.03 652.54 425.03 650.381C425.03 648.222 423.224 646.472 420.996 646.472C418.768 646.472 416.962 648.222 416.962 650.381C416.962 652.54 418.768 654.291 420.996 654.291Z" fill="#EAC1CE"/>
<path d="M486.118 575.605L485.416 576.426L500.941 588.904L501.643 588.084L486.118 575.605Z" fill="#5D569C"/>
<path d="M494.706 589.608C496.934 589.608 498.74 587.858 498.74 585.699C498.74 583.539 496.934 581.789 494.706 581.789C492.479 581.789 490.673 583.539 490.673 585.699C490.673 587.858 492.479 589.608 494.706 589.608Z" fill="#EAC1CE"/>
<path d="M1379.6 254.111C1379.6 254.111 1380.34 267.26 1381.44 268.327C1382.54 269.748 1386.21 269.393 1387.31 267.616C1388.41 265.839 1384.37 254.466 1384.37 254.466L1379.6 254.111Z" fill="#5D569C"/>
<path d="M1356.13 138.25L1351 159.219L1352.47 214.306L1357.97 254.111C1358.34 255.888 1357.24 256.599 1359.07 256.954C1361.64 257.309 1363.84 255.532 1363.84 253.045V215.372V175.212L1368.6 175.567L1372.27 219.992L1379.97 254.822L1384.01 255.532L1382.91 217.505L1382.54 159.219L1376.3 149.979L1367.5 148.202L1356.13 138.25Z" fill="#5D569C"/>
<path d="M1357.97 253.755L1348.43 258.731L1349.17 259.797C1351.73 260.152 1352.83 260.152 1355.4 259.086L1363.84 255.532V252.689L1357.97 253.755Z" fill="#5D569C"/>
<path d="M1375.94 113.017L1360.54 111.595L1365.3 126.522L1375.94 113.017Z" fill="#EAC1CE"/>
<path d="M1382.54 92.0484C1382.54 99.5118 1376.3 105.554 1368.6 105.554C1360.9 105.554 1354.67 99.5118 1354.67 92.0484C1354.67 84.585 1360.9 78.5432 1368.6 78.5432C1376.67 78.5432 1382.54 84.585 1382.54 92.0484Z" fill="#5D569C"/>
<path d="M1385.11 82.4527C1385.11 86.7174 1381.44 89.916 1377.4 89.916C1373 89.916 1369.7 86.362 1369.7 82.4527C1369.7 78.1879 1373.37 74.9893 1377.4 74.9893C1381.44 74.9893 1385.11 78.1879 1385.11 82.4527Z" fill="#5D569C"/>
<path d="M1358.7 111.595C1358.7 111.595 1334.86 133.275 1334.5 132.564C1334.13 131.498 1323.13 112.662 1323.13 112.662L1319.83 114.439L1330.46 139.317C1331.2 141.449 1333.76 142.16 1335.6 141.449L1359.07 131.853L1358.7 111.595Z" fill="#FDFEFE"/>
<path d="M1367.5 81.031C1360.9 81.031 1355.77 86.0066 1355.77 92.4038V99.5118C1355.77 105.909 1360.9 110.885 1367.5 110.885C1374.1 110.885 1379.24 105.909 1379.24 99.5118V92.4038C1378.87 86.0066 1373.74 81.031 1367.5 81.031Z" fill="#EAC1CE"/>
<path d="M1367.5 81.031C1374.1 81.031 1379.24 86.0066 1379.24 92.4038V98.0902C1375.57 96.6686 1373 93.1146 1373 88.8498C1373 87.7836 1373 87.0728 1373.37 86.362C1371.54 87.4282 1369.7 88.139 1367.5 88.139C1364.2 88.139 1361.27 86.7174 1359.44 84.2296C1361.27 82.0972 1364.2 81.031 1367.5 81.031Z" fill="#5D569C"/>
<path d="M1353.93 138.606L1350.27 133.63C1348.8 131.142 1348.43 128.299 1349.9 125.811L1352.1 121.902C1355.03 117.992 1355.4 111.951 1358.7 111.24L1382.17 113.372L1382.91 113.728C1384.74 114.794 1385.84 122.613 1383.27 130.431C1381.81 134.341 1376.3 141.093 1376.3 141.093L1382.54 158.508C1381.44 159.93 1379.24 161.351 1375.2 161.707C1368.97 162.062 1355.03 161.351 1350.63 158.508L1353.93 138.606Z" fill="#FDFEFE"/>
<path d="M1382.91 114.083L1400.87 141.804L1394.27 171.302L1389.51 172.013L1390.24 142.515L1375.57 123.324L1382.91 114.083Z" fill="#FDFEFE"/>
<path d="M1402.34 169.526L1378.5 177.7L1382.54 199.734L1407.11 190.849L1402.34 169.526Z" fill="#E48F9B"/>
<path d="M1392.44 178.055C1394.67 178.055 1396.47 176.305 1396.47 174.146C1396.47 171.987 1394.67 170.236 1392.44 170.236C1390.21 170.236 1388.41 171.987 1388.41 174.146C1388.41 176.305 1390.21 178.055 1392.44 178.055Z" fill="#EAC1CE"/>
<path d="M1328.97 101.406L1314.01 113.431L1314.71 114.252L1329.67 102.227L1328.97 101.406Z" fill="#5D569C"/>
<path d="M1320.56 115.149C1322.79 115.149 1324.6 113.399 1324.6 111.24C1324.6 109.081 1322.79 107.331 1320.56 107.331C1318.34 107.331 1316.53 109.081 1316.53 111.24C1316.53 113.399 1318.34 115.149 1320.56 115.149Z" fill="#EAC1CE"/>
<path d="M1074.13 278.633L1068.62 323.413L1080.73 323.058C1080.73 323.058 1088.43 313.818 1088.43 312.041C1088.43 310.619 1096.13 305.999 1091.73 301.023C1087.69 295.692 1074.13 278.633 1074.13 278.633Z" fill="#5D569C"/>
<path d="M1085.86 269.393L1075.23 271.525C1073.03 272.591 1071.56 274.724 1071.19 277.212L1062.39 336.208L1068.62 336.563L1077.43 288.94L1085.86 269.393Z" fill="#5D569C"/>
<path d="M1077.43 289.295L1074.86 312.751L1077.06 356.821L1081.83 393.072C1082.19 394.493 1083.29 395.559 1084.76 395.915C1086.96 396.27 1089.16 394.493 1088.79 392.361L1087.69 356.821L1086.59 324.124L1094.66 324.835L1098.33 360.02L1103.1 408.709C1103.46 410.842 1105.3 412.619 1107.5 412.619C1110.8 412.974 1113.36 410.131 1113 407.288L1108.96 358.598L1106.4 315.239L1100.16 302.445L1092.46 300.668L1077.43 289.295Z" fill="#5D569C"/>
<path d="M1077.79 275.79C1078.53 271.525 1082.93 269.037 1086.96 270.459C1088.79 270.814 1101.63 271.525 1101.63 271.525L1105.66 278.633L1103.83 284.675L1105.66 317.016C1105.66 317.016 1090.26 321.281 1085.13 319.149C1079.99 317.016 1074.49 311.685 1074.49 311.685L1076.69 277.922L1077.79 275.79Z" fill="#FDFEFE"/>
<path d="M1083.66 393.427L1073.03 398.403L1074.49 398.758C1076.69 399.113 1079.26 398.758 1081.46 398.047L1088.79 394.849V392.361L1083.66 393.427Z" fill="#5D569C"/>
<path d="M1104.93 409.776C1104.93 409.776 1106.03 418.661 1106.76 420.082C1107.86 421.148 1110.8 421.148 1111.9 419.371C1113 417.95 1109.33 407.999 1109.33 407.999L1104.93 409.776Z" fill="#5D569C"/>
<path d="M1083.66 268.327C1083.66 267.971 1084.39 264.773 1084.39 264.773C1084.39 264.773 1093.93 264.417 1094.3 264.773C1094.66 265.483 1095.76 275.79 1095.76 275.79C1095.76 275.79 1088.06 275.435 1087.69 275.435C1087.33 275.435 1084.39 274.013 1084.39 274.013L1083.66 268.327Z" fill="#FDFEFE"/>
<path d="M1084.39 268.327L1089.16 268.682L1086.59 272.591L1084.39 268.327Z" fill="#E48F9B"/>
<path d="M1081.46 300.668L1083.29 304.577L1087.33 301.023V272.236L1085.86 272.591L1081.46 300.668Z" fill="#E48F9B"/>
<path d="M1090.26 243.449C1084.76 243.093 1079.99 247.003 1079.63 251.978L1079.26 258.02C1078.89 263.351 1082.93 267.971 1088.06 268.327C1093.56 268.682 1098.33 264.773 1098.7 259.797L1099.06 253.755C1099.8 248.78 1095.76 244.16 1090.26 243.449Z" fill="#EAC1CE"/>
<path d="M1099.43 253.4C1099.8 248.424 1095.76 243.804 1090.63 243.449C1088.06 243.093 1085.86 244.159 1084.03 245.226C1085.13 246.647 1088.43 248.424 1089.53 248.78C1090.99 249.49 1092.46 250.201 1093.93 250.912C1095.4 251.978 1097.6 252.689 1099.43 253.4Z" fill="#5D569C"/>
<path d="M1099.43 253.755C1099.43 251.978 1099.06 250.201 1098.33 248.78C1097.96 249.49 1097.6 250.201 1097.6 250.912C1097.23 252.334 1097.6 253.4 1097.96 254.821C1098.33 255.532 1098.33 256.243 1099.06 256.598C1099.06 256.598 1099.43 256.598 1099.43 256.954V253.755Z" fill="#5D569C"/>
<path d="M1102 271.17C1099.43 272.947 1042.95 312.752 1042.95 312.752L1044.42 317.727L1104.56 284.32L1106.4 278.278L1102 271.17Z" fill="#5D569C"/>
<path d="M1094.3 270.104L1096.86 331.232L1113.73 326.612L1106.03 278.278L1104.93 274.013C1103.83 272.236 1102 270.814 1099.8 270.459L1094.3 270.104Z" fill="#5D569C"/>
<path d="M1069.36 340.828C1069.36 343.316 1067.16 345.448 1064.59 345.448C1062.02 345.448 1059.82 343.316 1059.82 340.828C1059.82 338.34 1062.02 336.208 1064.59 336.208C1067.16 336.208 1069.36 338.34 1069.36 340.828Z" fill="#EAC1CE"/>
<path d="M1046.99 315.595C1046.99 318.083 1044.79 320.215 1042.22 320.215C1039.65 320.215 1037.45 318.083 1037.45 315.595C1037.45 313.107 1039.65 310.975 1042.22 310.975C1044.79 310.975 1046.99 313.107 1046.99 315.595Z" fill="#EAC1CE"/>
<path d="M993.447 289.651L1042.22 318.793L1043.69 313.818C1043.69 313.818 998.214 278.278 995.647 276.501L991.98 274.368H983.546L981.712 281.476C981.712 281.476 983.545 288.229 984.279 288.584C985.012 289.295 993.447 289.651 993.447 289.651Z" fill="#FDFEFE"/>
<path d="M983.179 274.013L972.544 274.724C970.344 275.79 968.143 277.567 965.943 280.41L946.14 306.354L969.243 330.166L971.444 319.859L956.042 306.354L973.644 287.874L983.179 274.013Z" fill="#FDFEFE"/>
<path d="M995.647 315.95L1000.05 319.504V362.152L995.281 398.403C994.914 399.824 993.814 400.891 992.347 401.246C990.146 401.601 987.946 399.824 988.313 397.692L989.413 362.152L990.513 329.455L982.445 330.166L978.778 365.351L974.011 414.04C973.644 416.173 971.81 417.95 969.61 417.95C966.309 418.305 963.742 415.462 964.109 412.619L968.143 363.929L970.71 320.57L976.944 307.776L984.646 305.999L995.647 315.95Z" fill="#5D569C"/>
<path d="M997.114 282.898C996.381 278.633 993.814 274.013 989.413 275.435C987.58 275.79 974.744 276.501 974.744 276.501L970.71 283.609L972.544 289.651L970.71 321.992C970.71 321.992 986.113 326.257 991.247 324.124C996.014 321.992 1000.41 319.504 1000.41 319.504L998.948 291.783L997.114 282.898Z" fill="#FDFEFE"/>
<path d="M993.08 398.758L1003.72 403.734L1002.25 404.089C1000.05 404.445 997.481 404.089 995.281 403.378L987.946 400.18V397.692L993.08 398.758Z" fill="#5D569C"/>
<path d="M971.811 414.751C971.811 414.751 970.71 423.636 969.977 425.058C968.877 426.124 965.943 426.124 964.843 424.347C963.743 422.925 967.41 412.974 967.41 412.974L971.811 414.751Z" fill="#5D569C"/>
<path d="M993.08 273.302C993.08 272.947 992.347 269.748 992.347 269.748C992.347 269.748 982.812 269.393 982.445 269.748C982.079 270.459 980.979 280.766 980.979 280.766C980.979 280.766 988.68 280.41 989.046 280.41C989.413 280.41 992.347 278.989 992.347 278.989L993.08 273.302Z" fill="#FDFEFE"/>
<path d="M994.547 272.591L989.78 272.947L992.347 276.856L994.547 272.591Z" fill="#E48F9B"/>
<path d="M997.848 304.933L995.647 308.842L991.613 305.288V276.501L993.08 276.856L997.848 304.933Z" fill="#E48F9B"/>
<path d="M986.479 248.779C991.98 248.423 996.747 252.333 997.114 257.308L997.481 263.35C997.848 268.681 993.814 273.301 988.68 273.657C983.179 274.012 978.411 270.103 978.045 265.127L977.678 259.085C976.945 253.754 980.978 249.134 986.479 248.779Z" fill="#EAC1CE"/>
<path d="M977.311 258.375C976.945 253.4 980.978 248.78 986.113 248.424C988.68 248.069 990.88 249.135 992.714 250.201C991.613 251.623 988.313 253.4 987.213 253.755C985.746 254.466 984.279 255.177 982.812 255.888C981.345 257.309 979.145 257.665 977.311 258.375Z" fill="#5D569C"/>
<path d="M977.311 258.731C977.311 256.954 977.678 255.177 978.411 253.755C978.778 254.466 979.145 255.177 979.145 255.532C979.512 256.954 979.145 258.02 978.778 259.442C978.411 260.153 978.411 260.863 977.678 261.219C977.678 261.219 977.311 261.219 977.311 261.574V258.731Z" fill="#5D569C"/>
<path d="M971.077 330.877C973.71 330.877 975.844 328.808 975.844 326.257C975.844 323.705 973.71 321.637 971.077 321.637C968.444 321.637 966.31 323.705 966.31 326.257C966.31 328.808 968.444 330.877 971.077 330.877Z" fill="#EAC1CE"/>
<path d="M1041.85 318.793C1044.49 318.793 1046.62 316.725 1046.62 314.173C1046.62 311.621 1044.49 309.553 1041.85 309.553C1039.22 309.553 1037.09 311.621 1037.09 314.173C1037.09 316.725 1039.22 318.793 1041.85 318.793Z" fill="#EAC1CE"/>
<path d="M219.666 118.703L214.165 163.484L226.267 163.128C226.267 163.128 233.968 153.888 233.968 152.111C233.968 150.689 241.669 146.069 237.268 141.093C233.234 135.762 219.666 118.703 219.666 118.703Z" fill="#5D569C"/>
<path d="M231.401 109.463L220.766 111.595C218.566 112.661 217.099 114.794 216.732 117.282L207.931 176.278L214.165 176.633L222.966 129.01L231.401 109.463Z" fill="#5D569C"/>
<path d="M222.966 129.365L220.399 152.822L222.599 196.891L227.367 233.142C227.733 234.563 228.834 235.63 230.301 235.985C232.501 236.34 234.701 234.563 234.334 232.431L233.234 196.891L232.134 164.194L240.202 164.905L243.869 200.09L248.637 248.779C249.003 250.912 250.837 252.689 253.037 252.689C256.338 253.044 258.905 250.201 258.538 247.358L254.137 199.024L251.57 155.665L245.336 142.87L237.635 141.093L222.966 129.365Z" fill="#5D569C"/>
<path d="M223.333 115.86C224.067 111.595 228.467 109.107 232.501 110.529C234.335 110.884 247.17 111.595 247.17 111.595L251.204 118.703L249.37 124.745L251.204 157.086C251.204 157.086 235.802 161.351 230.668 159.219C225.9 157.086 220.033 151.755 220.033 151.755L222.233 117.992L223.333 115.86Z" fill="#FDFEFE"/>
<path d="M229.2 233.497L218.565 238.473L220.032 238.828C222.233 239.184 224.8 238.828 227 238.118L234.334 234.919V232.431L229.2 233.497Z" fill="#5D569C"/>
<path d="M250.47 249.846C250.47 249.846 251.57 258.731 252.304 260.152C253.404 261.218 256.338 261.218 257.438 259.441C258.538 258.02 254.871 248.069 254.871 248.069L250.47 249.846Z" fill="#5D569C"/>
<path d="M229.201 108.397C229.201 108.041 229.934 104.843 229.934 104.843C229.934 104.843 239.469 104.487 239.836 104.843C240.202 105.554 241.302 115.86 241.302 115.86C241.302 115.86 233.601 115.505 233.235 115.505C232.868 115.505 229.934 114.083 229.934 114.083L229.201 108.397Z" fill="#FDFEFE"/>
<path d="M229.934 108.397L234.701 108.752L232.134 112.662L229.934 108.397Z" fill="#E48F9B"/>
<path d="M227 140.738L228.834 144.648L232.868 141.094V112.306L231.401 112.662L227 140.738Z" fill="#E48F9B"/>
<path d="M235.802 83.519C230.301 83.1636 225.533 87.073 225.167 92.0486L224.8 98.0904C224.433 103.421 228.467 108.042 233.601 108.397C239.102 108.752 243.869 104.843 244.236 99.8674L244.603 93.8256C245.336 88.85 241.302 84.2298 235.802 83.519Z" fill="#EAC1CE"/>
<path d="M244.969 93.47C245.336 88.4944 241.302 83.8742 236.168 83.5188C233.601 83.1634 231.401 84.2296 229.567 85.2958C230.667 86.7174 233.968 88.4944 235.068 88.8498C236.535 89.5606 238.002 90.2714 239.469 90.9822C240.935 92.0484 243.136 92.7592 244.969 93.47Z" fill="#5D569C"/>
<path d="M244.97 93.8255C244.97 92.0485 244.603 90.2715 243.869 88.8499C243.503 89.5607 243.136 90.2715 243.136 90.6269C242.769 92.0485 243.136 93.1147 243.503 94.5363C243.87 95.2471 243.869 95.9579 244.603 96.3133C244.603 96.3133 244.97 96.3133 244.97 96.6687V93.8255Z" fill="#5D569C"/>
<path d="M247.537 111.24C244.97 113.017 188.495 152.822 188.495 152.822L189.961 157.797L250.104 124.39L251.937 118.348L247.537 111.24Z" fill="#5D569C"/>
<path d="M239.835 110.174L242.402 171.303L259.272 166.682L251.57 118.348L250.47 114.083C249.37 112.306 247.537 110.885 245.336 110.529L239.835 110.174Z" fill="#5D569C"/>
<path d="M214.899 180.898C214.899 183.386 212.698 185.518 210.131 185.518C207.564 185.518 205.364 183.386 205.364 180.898C205.364 178.41 207.564 176.278 210.131 176.278C212.698 176.278 214.899 178.41 214.899 180.898Z" fill="#EAC1CE"/>
<path d="M192.528 155.665C192.528 158.153 190.328 160.285 187.761 160.285C185.194 160.285 182.994 158.153 182.994 155.665C182.994 153.177 185.194 151.045 187.761 151.045C190.328 151.045 192.528 153.177 192.528 155.665Z" fill="#EAC1CE"/>
<path d="M138.987 129.721L187.761 158.864L189.228 153.888C189.228 153.888 143.755 118.348 141.188 116.571L137.52 114.439H129.086L127.252 121.547C127.252 121.547 129.086 128.299 129.819 128.655C130.553 129.365 138.987 129.721 138.987 129.721Z" fill="#5D569C"/>
<path d="M128.719 114.083L118.084 114.794C115.884 115.86 113.684 117.637 111.483 120.48L91.6803 146.425L114.784 170.236L116.984 159.93L101.582 146.425L119.184 127.944L128.719 114.083Z" fill="#5D569C"/>
<path d="M141.187 156.02L145.588 159.574V202.222L140.821 238.473C140.454 239.895 139.354 240.961 137.887 241.316C135.687 241.672 133.486 239.895 133.853 237.762L134.953 202.222L136.053 169.526L127.985 170.236L124.318 205.421L119.551 254.111C119.184 256.243 117.351 258.02 115.15 258.02C111.85 258.375 109.283 255.532 109.649 252.689L113.683 203.999L116.25 160.641L122.485 147.846L130.186 146.069L141.187 156.02Z" fill="#5D569C"/>
<path d="M142.654 122.968C141.921 118.703 139.354 114.083 134.953 115.505C133.12 115.86 120.284 116.571 120.284 116.571L116.25 123.679L118.084 129.721L116.25 162.062C116.25 162.062 131.653 166.327 136.787 164.195C141.554 162.062 145.955 159.574 145.955 159.574L144.121 131.498L142.654 122.968Z" fill="#5D569C"/>
<path d="M138.62 238.829L149.255 243.804L147.788 244.16C145.588 244.515 143.021 244.16 140.821 243.449L133.486 240.25V237.762L138.62 238.829Z" fill="#5D569C"/>
<path d="M117.351 254.821C117.351 254.821 116.251 263.706 115.517 265.128C114.417 266.194 111.483 266.194 110.383 264.417C109.283 262.996 112.95 253.044 112.95 253.044L117.351 254.821Z" fill="#5D569C"/>
<path d="M138.621 113.373C138.621 113.017 137.887 109.819 137.887 109.819C137.887 109.819 128.352 109.463 127.986 109.819C127.619 110.529 126.519 117.282 126.519 117.282C126.519 117.282 134.587 120.481 134.953 120.481C135.32 120.481 138.254 119.059 138.254 119.059L138.621 113.373Z" fill="#FDFEFE"/>
<path d="M140.087 112.662L135.32 113.017L137.887 116.926L140.087 112.662Z" fill="#E48F9B"/>
<path d="M132.019 88.849C137.52 88.4936 142.288 92.403 142.654 97.3786L143.021 103.42C143.388 108.751 139.354 113.372 134.22 113.727C128.719 114.082 123.952 110.173 123.585 105.197L123.218 99.1556C122.485 93.8246 126.519 89.2044 132.019 88.849Z" fill="#EAC1CE"/>
<path d="M122.852 98.4457C122.485 93.4701 126.519 88.8499 131.653 88.4945C134.22 88.1391 136.42 89.2053 138.254 90.2715C137.154 91.6931 133.853 93.4701 132.753 93.8255C131.286 94.5363 129.819 95.2471 128.352 95.9579C126.885 97.3795 124.685 97.7349 122.852 98.4457Z" fill="#5D569C"/>
<path d="M122.852 98.8013C122.852 97.0243 123.218 95.2473 123.952 93.8257C124.318 94.5365 124.685 95.2473 124.685 95.9581C125.052 97.3797 124.685 98.4459 124.318 99.8675C123.952 100.578 123.952 101.289 123.218 101.644C123.218 101.644 122.852 101.644 122.852 102V98.8013Z" fill="#5D569C"/>
<path d="M116.617 170.947C119.25 170.947 121.385 168.879 121.385 166.327C121.385 163.775 119.25 161.707 116.617 161.707C113.984 161.707 111.85 163.775 111.85 166.327C111.85 168.879 113.984 170.947 116.617 170.947Z" fill="#EAC1CE"/>
<path d="M187.395 158.864C190.028 158.864 192.162 156.795 192.162 154.243C192.162 151.692 190.028 149.623 187.395 149.623C184.762 149.623 182.627 151.692 182.627 154.243C182.627 156.795 184.762 158.864 187.395 158.864Z" fill="#EAC1CE"/>
<path d="M126.519 117.282L138.254 143.226L138.987 129.721L137.887 116.216L126.519 117.282Z" fill="#FDFEFE"/>
<path d="M143.388 145.003L141.187 148.912L137.153 145.358V116.571L138.62 116.926L143.388 145.003Z" fill="#E48F9B"/>
<path d="M213.431 496.848C213.431 496.848 212.698 510.354 211.598 511.42C210.498 512.841 206.83 512.486 205.73 510.709C204.63 508.932 208.664 497.204 208.664 497.204L213.431 496.848Z" fill="#5D569C"/>
<path d="M238.002 377.79L242.403 404.089L239.102 457.044L236.168 496.493C235.802 498.27 236.902 499.336 235.068 499.692C232.501 500.047 229.934 498.27 230.301 495.427L231.401 453.845L232.868 415.462L223.333 416.173L218.932 461.664L213.432 497.559L209.398 498.625L210.498 459.531L214.899 407.288L217.466 390.229L226.634 388.452L238.002 377.79Z" fill="#5D569C"/>
<path d="M235.802 496.493L245.703 501.469L244.97 502.535C242.403 502.89 241.302 502.89 238.735 501.824L230.301 498.27V495.427L235.802 496.493Z" fill="#5D569C"/>
<path d="M208.297 328.034C208.297 332.298 211.965 335.852 216.365 335.852C220.766 335.852 224.433 332.298 224.433 328.034C224.433 323.769 220.766 320.215 216.365 320.215C211.598 320.215 208.297 323.769 208.297 328.034Z" fill="#5D569C"/>
<path d="M229.934 349.357C229.934 349.357 231.768 361.796 230.667 362.863C229.567 363.929 224.8 360.73 224.433 360.019C224.066 356.821 222.966 345.803 222.966 345.803L229.934 349.357Z" fill="#EAC1CE"/>
<path d="M215.998 341.184C217.832 347.936 224.066 352.556 229.934 351.135C236.168 349.713 239.469 342.961 238.002 336.208C236.168 329.455 229.934 324.835 224.066 326.257C217.832 327.678 214.165 334.076 215.998 341.184Z" fill="#EAC1CE"/>
<path d="M230.301 352.912C230.301 352.912 229.934 361.797 229.2 361.086C228.1 360.375 223.7 353.978 223.7 353.978L214.532 365.351L218.566 385.964L210.864 398.403C227.367 411.553 243.869 399.114 243.869 399.114L240.202 382.054C239.835 380.277 240.202 378.5 240.935 377.079L242.402 374.236C243.136 372.814 243.503 371.037 243.136 369.26L241.669 361.797L242.036 350.068L230.301 352.912Z" fill="#FDFEFE"/>
<path d="M221.133 331.232C224.066 330.877 227.367 330.521 230.301 330.166C231.768 329.811 233.234 329.811 234.335 329.455C232.501 327.323 229.567 325.19 226.633 325.19C223.7 325.19 220.766 326.967 218.199 328.744C217.465 329.455 216.365 330.166 215.999 331.232C215.632 331.943 214.532 333.72 214.532 334.431C214.532 338.34 214.898 343.316 218.199 346.159C218.566 345.093 219.666 342.96 219.299 341.894C218.932 340.828 217.099 340.117 216.732 339.051C216.732 337.985 217.099 336.919 217.832 336.208C218.932 335.852 220.032 338.34 220.766 339.051C221.499 336.919 221.133 334.786 221.133 331.232Z" fill="#5D569C"/>
<path d="M235.068 335.852C235.435 337.985 236.901 339.406 238.735 339.406C240.569 339.406 241.302 337.274 240.935 335.142C240.569 333.009 239.102 331.588 237.268 331.588C235.435 331.588 234.701 333.72 235.068 335.852Z" stroke="#0F1E51" stroke-width="0.25" stroke-miterlimit="10"/>
<path d="M227.733 337.985C228.1 340.117 229.567 341.539 231.401 341.539C232.868 341.184 233.968 339.407 233.601 337.274C233.234 335.142 231.767 333.72 229.934 333.72C228.467 334.075 227.367 335.852 227.733 337.985Z" stroke="#0F1E51" stroke-width="0.25" stroke-miterlimit="10"/>
<path d="M267.339 304.933L257.805 331.588L241.669 350.779L240.936 363.218L265.139 336.563C265.139 336.563 273.207 310.264 272.474 309.197C271.74 308.131 267.339 304.933 267.339 304.933Z" fill="#FDFEFE"/>
<path d="M221.133 363.929L219.299 360.73L214.898 365.706L200.963 390.584L196.196 412.974C196.196 412.974 201.33 416.173 201.696 414.751C202.063 413.33 206.097 399.469 209.764 393.072C213.065 386.675 221.866 374.946 221.866 374.946L221.133 363.929Z" fill="#FDFEFE"/>
<path d="M270.64 308.487C272.868 308.487 274.674 306.736 274.674 304.577C274.674 302.418 272.868 300.668 270.64 300.668C268.412 300.668 266.606 302.418 266.606 304.577C266.606 306.736 268.412 308.487 270.64 308.487Z" fill="#EAC1CE"/>
<path d="M197.663 421.148C199.89 421.148 201.697 419.398 201.697 417.239C201.697 415.08 199.89 413.33 197.663 413.33C195.435 413.33 193.629 415.08 193.629 417.239C193.629 419.398 195.435 421.148 197.663 421.148Z" fill="#EAC1CE"/>
<path d="M159.157 256.599C160.257 255.177 161.357 253.755 162.824 252.334" stroke="white" stroke-miterlimit="10"/>
<path d="M169.791 244.515C286.042 119.414 481.871 101.289 620.491 203.999" stroke="white" stroke-miterlimit="10" stroke-dasharray="2.98 2.98"/>
<path d="M624.525 207.198C625.992 208.264 627.459 209.331 628.926 210.397C628.926 210.397 630.026 208.975 632.593 206.487" stroke="white" stroke-miterlimit="10"/>
<path d="M633.246 206.347C670.652 173.295 795.821 171.672 852.666 439.411" stroke="white" stroke-miterlimit="10" stroke-dasharray="3.02 3.02"/>
<path d="M1110.8 483.699C1108.96 482.988 1107.5 482.277 1105.66 481.922" stroke="white" stroke-miterlimit="10"/>
<path d="M1095.03 478.368C983.408 422.926 970.902 426.905 851.529 445.664" stroke="white" stroke-miterlimit="10" stroke-dasharray="3.03 3.03"/>
<path d="M1305.89 403.378C1304.06 402.668 1302.59 401.957 1300.76 401.601" stroke="white" stroke-miterlimit="10"/>
<path d="M1290.49 398.403C1221.18 380.277 1148.2 412.974 1117.4 475.88" stroke="white" stroke-miterlimit="10" stroke-dasharray="2.9 2.9"/>
<path d="M1115.2 480.856C1114.47 482.633 1113.73 484.054 1113 485.831" stroke="white" stroke-miterlimit="10"/>
<path d="M844.707 443.39C678.722 335.953 473.437 393.427 304.378 473.037" stroke="white" stroke-miterlimit="10" stroke-dasharray="2.95 2.95"/>
<path d="M299.611 475.524C298.144 476.235 296.31 477.301 294.843 478.012" stroke="white" stroke-miterlimit="10"/>
<path d="M1132.43 483.699C1132.43 495.072 1122.9 504.312 1111.16 504.312C1099.43 504.312 1089.89 495.072 1089.89 483.699C1089.89 472.326 1099.43 463.086 1111.16 463.086C1122.9 463.441 1132.43 472.326 1132.43 483.699Z" fill="#FE7B02"/>
<path d="M1328.2 404.613C1328.2 415.986 1318.66 425.226 1306.93 425.226C1295.19 425.226 1285.66 415.986 1285.66 404.613C1285.66 393.24 1295.19 384 1306.93 384C1318.66 384 1328.2 393.24 1328.2 404.613Z" fill="#FE7B02"/>
<path d="M638.094 208.264C638.094 219.637 628.56 228.877 616.824 228.877C605.089 228.877 595.555 219.637 595.555 208.264C595.555 196.891 605.089 187.651 616.824 187.651C628.56 187.651 638.094 196.891 638.094 208.264Z" fill="#FE7B02"/>
<path d="M627 208.5C627 213.741 622.517 218 617 218C611.483 218 607 213.741 607 208.5C607 203.259 611.483 199 617 199C622.517 199 627 203.259 627 208.5Z" fill="white"/>
<path d="M183.727 259.797C183.727 271.17 174.192 280.41 162.457 280.41C150.722 280.41 141.188 271.17 141.188 259.797C141.188 248.424 150.722 239.184 162.457 239.184C174.192 239.184 183.727 248.424 183.727 259.797Z" fill="#FE7B02"/>
<path d="M319.414 476.235C319.414 487.608 309.879 496.848 298.144 496.848C286.409 496.848 276.874 487.608 276.874 476.235C276.874 464.862 286.409 455.622 298.144 455.622C309.879 455.622 319.414 464.862 319.414 476.235Z" fill="#FE7B02"/>
<path d="M703.004 639.364C703.004 639.364 704.104 650.026 705.204 651.447C706.304 652.869 709.972 652.513 711.072 650.736C712.172 648.959 708.138 637.231 708.138 637.231L703.004 639.364Z" fill="#5D569C"/>
<path d="M670.732 515.685L667.432 543.406L669.999 595.294L675.5 637.942C675.867 639.719 676.967 641.141 678.8 641.496C681.367 641.852 683.934 640.075 683.568 637.231L682.468 595.65L681.001 557.266L690.535 557.977L694.936 599.559L700.437 639.364C700.804 641.852 703.004 643.984 705.938 643.984C709.605 644.339 712.905 641.141 712.539 637.587L707.771 597.782L708.505 532.388L697.136 532.033L687.968 530.256L670.732 515.685Z" fill="#5D569C"/>
<path d="M677.7 637.942L665.231 643.984L667.065 644.339C669.632 644.695 672.566 644.695 675.133 643.273L683.568 639.719V636.876L677.7 637.942Z" fill="#5D569C"/>
<path d="M675.133 491.873L670.732 494.361C666.331 496.848 663.031 500.758 662.298 505.378L659.364 519.949L676.966 525.991L682.467 511.064L675.133 491.873Z" fill="#5D569C"/>
<path d="M731.975 566.151L710.338 502.18C708.505 496.849 703.737 492.939 697.87 492.228L690.169 491.162L675.133 491.518L669.266 498.981L667.432 539.852C667.432 539.852 670.732 550.869 685.401 550.514C699.703 549.803 708.505 534.876 708.505 534.876V531.322C715.839 546.604 727.207 568.995 727.207 568.995L731.975 566.151Z" fill="#5D569C"/>
<path d="M686.501 493.294L680.634 518.528L676.233 492.228L678.067 489.74L682.834 489.385L686.501 493.294Z" fill="#FDFEFE"/>
<path d="M735.642 570.416C735.642 573.259 733.075 575.747 730.141 575.747C727.207 575.747 724.64 573.259 724.64 570.416C724.64 567.573 727.207 565.085 730.141 565.085C733.075 564.73 735.642 567.218 735.642 570.416Z" fill="#EAC1CE"/>
<path d="M675.133 491.873L674.766 487.608L679.901 486.542L688.335 486.897L690.169 491.517L683.201 497.559C683.201 497.559 681.734 494.716 681.367 494.716C681.001 494.716 676.967 497.559 676.967 497.559L675.133 491.873Z" fill="#FDFEFE"/>
<path d="M677.333 494.361L680.267 491.873L682.834 494.005L681 498.981L685.768 528.123L681 532.388L676.967 528.834L679.167 498.625L677.333 494.361Z" fill="#5D569C"/>
<path d="M656.431 508.932L682.468 510.709L685.768 541.629L661.565 539.141L656.431 508.932Z" fill="#E48F9B"/>
<path d="M661.198 526.702C661.198 529.545 659.364 531.678 656.797 531.678C654.597 531.678 652.396 529.545 652.396 526.702C652.396 523.859 654.23 521.726 656.797 521.726C659.364 522.082 661.198 524.214 661.198 526.702Z" fill="#EAC1CE"/>
<path d="M692.736 475.524C693.102 483.699 687.602 490.451 680.634 490.451C673.299 490.807 667.432 484.409 667.065 476.591C666.698 468.416 672.199 461.664 679.167 461.664C686.135 461.308 692.369 467.35 692.736 475.524Z" fill="#EAC1CE"/>
<path d="M668.899 468.061C672.933 471.26 679.534 471.615 685.035 469.128C686.501 468.417 687.968 467.351 689.068 466.285C686.501 463.441 682.834 461.664 679.167 461.664C674.766 461.664 671.099 464.152 668.899 468.061Z" fill="#5D569C"/>
<path d="M687.235 464.507C685.035 468.772 685.768 474.814 689.435 479.434C690.169 480.145 690.902 480.855 691.636 481.566C692.369 479.789 692.736 477.657 692.369 475.524C692.369 470.904 690.169 466.995 687.235 464.507Z" fill="#5D569C"/>
<path d="M466.103 799.649C466.469 797.872 467.203 796.095 467.569 794.673" stroke="white" stroke-miterlimit="10"/>
<path d="M470.87 784.367C513.41 666.019 532.063 567.312 841.865 452.485" stroke="white" stroke-miterlimit="10" stroke-dasharray="3.03 3.03"/>
<path d="M844.139 455.328C882.793 447.369 1101.63 382.765 1426.18 845.851" stroke="white" stroke-miterlimit="10" stroke-dasharray="2.98 2.98"/>
<path d="M1429.48 850.116C1430.58 851.537 1431.68 852.959 1432.41 854.38" stroke="white" stroke-miterlimit="10"/>
<path d="M408.16 721.106L372.589 741.364L336.65 721.106L372.222 701.203L408.16 721.106Z" fill="#23A2F8"/>
<path d="M408.16 721.106L407.794 762.687L372.222 782.59L372.588 741.363L408.16 721.106Z" fill="#058DD8"/>
<path d="M372.589 741.363L372.222 782.59L336.65 762.687V721.106L372.589 741.363Z" fill="#2161EC"/>
<path d="M1453.68 854.736C1453.68 866.109 1444.15 875.349 1432.41 875.349C1420.68 875.349 1411.14 866.109 1411.14 854.736C1411.14 843.363 1420.68 834.123 1432.41 834.123C1444.15 834.123 1453.68 843.363 1453.68 854.736Z" fill="#FE7B02"/>
<path d="M1303.33 270.814L1267.75 290.717L1231.82 270.814L1267.39 250.557L1303.33 270.814Z" fill="#FCD67A"/>
<path d="M1303.33 270.814V312.041L1267.75 331.943V290.717L1303.33 270.814Z" fill="#ECB329"/>
<path d="M1267.75 290.717V331.943L1231.82 312.041V270.814L1267.75 290.717Z" fill="#C35C3A"/>
<path d="M865.095 660.688L829.523 680.946L793.584 660.688L829.156 640.785L865.095 660.688Z" fill="#FCD67A"/>
<path d="M865.094 660.688L864.728 701.914L829.156 722.172L829.522 680.946L865.094 660.688Z" fill="#ECB329"/>
<path d="M829.523 680.946L829.156 722.172L793.584 701.914V660.688L829.523 680.946Z" fill="#C35C3A"/>
<path d="M871.331 445.813C871.331 457.186 861.796 466.426 850.061 466.426C838.326 466.426 828.791 457.186 828.791 445.813C828.791 434.44 838.326 425.2 850.061 425.2C861.796 425.2 871.331 434.44 871.331 445.813Z" fill="#FE7B02"/>
<path d="M486.639 797.872C486.639 809.245 477.104 818.485 465.369 818.485C453.634 818.485 444.099 809.245 444.099 797.872C444.099 786.499 453.634 777.259 465.369 777.259C477.104 777.259 486.639 786.499 486.639 797.872Z" fill="#FE7B02"/>
<path d="M1515.66 869.307L1480.09 889.565L1444.15 869.307L1480.09 849.405L1515.66 869.307Z" fill="#FCD67A"/>
<path d="M1515.66 869.307V910.889L1480.09 930.791V889.565L1515.66 869.307Z" fill="#ECB329"/>
<path d="M1480.09 889.565V930.791L1444.15 910.534V869.307L1480.09 889.565Z" fill="#C35C3A"/>
<path d="M399.726 673.838L364.154 693.74L328.215 673.838L363.787 653.58L399.726 673.838Z" fill="#FCD67A"/>
<path d="M399.726 673.838V715.064L364.154 734.966V693.74L399.726 673.838Z" fill="#ECB329"/>
<path d="M364.154 693.74V734.966L328.215 715.064V673.838L364.154 693.74Z" fill="#C35C3A"/>
<path d="M1255.65 298.891L1220.08 319.149L1184.14 298.891L1219.71 278.989L1255.65 298.891Z" fill="#23A2F8"/>
<path d="M1255.65 298.891V340.117L1220.08 360.375V319.149L1255.65 298.891Z" fill="#058DD8"/>
<path d="M1220.08 319.149V360.375L1184.14 340.117V298.891L1220.08 319.149Z" fill="#2161EC"/>
<path d="M860 445.5C860 450.741 855.517 455 850 455C844.483 455 840 450.741 840 445.5C840 440.259 844.483 436 850 436C855.517 436 860 440.259 860 445.5Z" fill="white"/>
<path d="M1121 483.5C1121 488.741 1116.52 493 1111 493C1105.48 493 1101 488.741 1101 483.5C1101 478.259 1105.48 474 1111 474C1116.52 474 1121 478.259 1121 483.5Z" fill="white"/>
<path d="M1317 404.024C1317 409.265 1312.52 413.524 1307 413.524C1301.48 413.524 1297 409.265 1297 404.024C1297 398.783 1301.48 394.524 1307 394.524C1312.52 394.524 1317 398.783 1317 404.024Z" fill="white"/>
<path d="M1444 855.5C1444 860.741 1439.52 865 1434 865C1428.48 865 1424 860.741 1424 855.5C1424 850.259 1428.48 846 1434 846C1439.52 846 1444 850.259 1444 855.5Z" fill="white"/>
<path d="M476 797.5C476 802.741 471.517 807 466 807C460.483 807 456 802.741 456 797.5C456 792.259 460.483 788 466 788C471.517 788 476 792.259 476 797.5Z" fill="white"/>
<path d="M308 477.5C308 482.741 303.517 487 298 487C292.483 487 288 482.741 288 477.5C288 472.259 292.483 468 298 468C303.517 468 308 472.259 308 477.5Z" fill="white"/>
<path d="M172 260.5C172 265.741 167.517 270 162 270C156.483 270 152 265.741 152 260.5C152 255.259 156.483 251 162 251C167.517 251 172 255.259 172 260.5Z" fill="white"/>
<path d="M359.02 374.947L323.448 395.204L287.509 374.947L323.081 355.044L359.02 374.947Z" fill="#23A2F8"/>
<path d="M359.019 374.947L358.653 416.173L323.081 436.431L323.448 395.204L359.019 374.947Z" fill="#058DD8"/>
<path d="M323.448 395.204L323.081 436.431L287.509 416.173V374.947L323.448 395.204Z" fill="#2161EC"/>
<path d="M1466.15 836.255C1466.15 836.255 1465.05 846.917 1463.95 848.339C1462.85 849.76 1459.18 849.405 1458.08 847.628C1456.98 845.851 1461.02 834.123 1461.02 834.123L1466.15 836.255Z" fill="#5D569C"/>
<path d="M1498.79 710.799L1502.09 738.876L1499.52 791.119L1494.02 834.123C1493.65 835.9 1492.55 837.321 1490.72 837.677C1488.15 838.032 1485.59 836.255 1485.59 833.412L1486.69 791.119L1488.15 752.381L1478.62 753.092L1474.22 795.029L1468.72 835.189C1468.35 837.677 1466.15 839.809 1463.22 839.809C1459.55 840.165 1456.25 836.966 1456.62 833.412L1461.38 793.252L1460.65 727.147L1472.02 726.792L1481.19 725.015L1498.79 710.799Z" fill="#5D569C"/>
<path d="M1491.82 834.833L1504.29 840.875L1502.46 841.231C1499.89 841.586 1496.96 841.586 1494.39 840.164L1485.59 836.61V833.767L1491.82 834.833Z" fill="#5D569C"/>
<path d="M1494.39 686.987L1498.79 689.475C1503.19 691.963 1506.49 695.872 1507.59 700.848L1510.52 715.419L1492.92 721.461L1487.05 706.179L1494.39 686.987Z" fill="#5D569C"/>
<path d="M1436.81 762.332L1458.82 697.649C1460.65 692.318 1465.42 688.053 1471.65 687.343L1479.35 686.276L1494.39 686.632L1500.62 694.095L1502.46 735.321C1502.46 735.321 1498.79 746.694 1484.49 745.983C1470.18 745.273 1461.02 729.99 1461.02 729.99V726.436C1453.68 741.719 1442.31 764.464 1442.31 764.464L1436.81 762.332Z" fill="#5D569C"/>
<path d="M1483.02 688.409L1488.89 713.998L1493.29 687.343L1491.45 684.855L1486.69 684.144L1483.02 688.409Z" fill="#FDFEFE"/>
<path d="M1433.51 766.241C1433.51 769.44 1436.08 771.572 1439.01 771.572C1442.31 771.572 1444.51 769.085 1444.51 766.241C1444.51 763.398 1441.95 760.91 1439.01 760.91C1436.08 760.91 1433.51 763.398 1433.51 766.241Z" fill="#EAC1CE"/>
<path d="M1494.39 686.987L1494.75 682.367L1489.25 681.301L1480.82 681.656L1478.99 686.276L1485.95 692.674L1487.79 689.83C1488.15 689.83 1492.19 692.674 1492.19 692.674L1494.39 686.987Z" fill="#FDFEFE"/>
<path d="M1492.19 689.475L1489.25 686.987L1486.69 689.119L1488.52 694.095L1483.39 723.949L1488.52 727.858L1492.55 724.304L1490.35 693.74L1492.19 689.475Z" fill="#5D569C"/>
<path d="M1513.09 704.047L1487.05 706.179L1483.39 737.454L1507.96 734.966L1513.09 704.047Z" fill="#E48F9B"/>
<path d="M1508.32 722.172C1508.32 725.015 1510.16 727.147 1512.72 727.147C1515.29 727.147 1517.12 725.015 1517.12 722.172C1517.12 719.328 1515.29 717.196 1512.72 717.196C1510.16 717.551 1508.32 719.684 1508.32 722.172Z" fill="#EAC1CE"/>
<path d="M1476.79 670.284C1476.42 678.458 1481.92 685.21 1489.25 685.566C1496.59 685.921 1502.82 679.524 1503.19 671.35C1503.56 663.175 1498.06 656.423 1490.72 656.068C1483.39 656.068 1477.15 662.465 1476.79 670.284Z" fill="#EAC1CE"/>
<path d="M1500.62 662.819C1496.59 666.018 1489.99 666.729 1484.49 663.886C1483.02 663.175 1481.55 662.108 1480.45 661.042C1483.02 658.199 1486.69 656.422 1490.35 656.422C1494.75 656.422 1498.42 659.265 1500.62 662.819Z" fill="#5D569C"/>
<path d="M1481.92 659.266C1484.12 663.886 1483.39 669.573 1479.72 674.193C1478.99 674.904 1478.25 675.614 1477.52 676.325C1476.79 674.548 1476.42 672.416 1476.42 670.283C1476.79 665.663 1478.99 661.754 1481.92 659.266Z" fill="#5D569C"/>
<g opacity="0.1">
<path d="M696.77 15.2822H583.086C578.319 15.2822 574.285 19.1916 574.285 23.8118C574.285 28.432 578.319 32.3414 583.086 32.3414H696.77C701.537 32.3414 705.571 28.432 705.571 23.8118C705.571 19.1916 701.537 15.2822 696.77 15.2822Z" fill="white"/>
<path d="M741.877 0H628.193C623.426 0 619.392 3.9094 619.392 8.52959C619.392 13.1498 623.426 17.0592 628.193 17.0592H741.877C746.644 17.0592 750.678 13.1498 750.678 8.52959C750.311 3.9094 746.644 0 741.877 0Z" fill="white"/>
<path d="M775.615 31.6306H661.931C657.164 31.6306 653.13 35.54 653.13 40.1602C653.13 44.7804 657.164 48.6898 661.931 48.6898H775.615C780.382 48.6898 784.416 44.7804 784.416 40.1602C784.416 35.54 780.382 31.6306 775.615 31.6306Z" fill="white"/>
</g>
<g opacity="0.1">
<path d="M1478.62 578.235H1571.03C1575.07 578.235 1578 575.036 1578 571.482C1578 567.573 1574.7 564.73 1571.03 564.73H1478.62C1474.59 564.73 1471.65 567.928 1471.65 571.482C1471.65 575.392 1474.59 578.235 1478.62 578.235Z" fill="white"/>
<path d="M1441.95 590.674H1534.36C1538.39 590.674 1541.33 587.475 1541.33 583.921C1541.33 580.012 1538.03 577.169 1534.36 577.169H1441.95C1437.91 577.169 1434.98 580.367 1434.98 583.921C1434.98 587.831 1438.28 590.674 1441.95 590.674Z" fill="white"/>
<path d="M1414.44 565.085H1506.86C1510.89 565.085 1513.82 561.887 1513.82 558.333C1513.82 554.423 1510.52 551.58 1506.86 551.58H1414.44C1410.41 551.58 1407.48 554.779 1407.48 558.333C1407.48 561.887 1410.41 565.085 1414.44 565.085Z" fill="white"/>
</g>
<g opacity="0.1">
<path d="M1136.1 953.537H1043.69C1039.65 953.537 1036.72 956.736 1036.72 960.29C1036.72 964.199 1040.02 967.042 1043.69 967.042H1136.1C1140.14 967.042 1143.07 963.844 1143.07 960.29C1143.07 956.736 1139.77 953.537 1136.1 953.537Z" fill="white"/>
<path d="M1172.41 941.098H1079.99C1075.96 941.098 1073.03 944.297 1073.03 947.851C1073.03 951.76 1076.33 954.603 1079.99 954.603H1172.41C1176.44 954.603 1179.37 951.405 1179.37 947.851C1179.37 944.297 1176.44 941.098 1172.41 941.098Z" fill="white"/>
<path d="M1200.28 967.042H1107.86C1103.83 967.042 1100.9 970.241 1100.9 973.795C1100.9 977.704 1104.2 980.547 1107.86 980.547H1200.28C1204.31 980.547 1207.25 977.349 1207.25 973.795C1207.25 969.885 1203.94 967.042 1200.28 967.042Z" fill="white"/>
</g>
<g opacity="0.1">
<path d="M397.892 10.3066H305.478C301.444 10.3066 298.511 13.5052 298.511 17.0592C298.511 20.9686 301.811 23.8118 305.478 23.8118H397.892C401.926 23.8118 404.86 20.6132 404.86 17.0592C405.226 13.5052 401.926 10.3066 397.892 10.3066Z" fill="white"/>
<path d="M370.388 23.8119H277.974C273.94 23.8119 271.007 27.0105 271.007 30.5645C271.007 34.1185 274.307 37.3171 277.974 37.3171H370.388C374.422 37.3171 377.356 34.1185 377.356 30.5645C377.356 27.0105 374.422 23.8119 370.388 23.8119Z" fill="white"/>
</g>
<path opacity="0.1" d="M255.605 974.505H163.191C159.157 974.505 156.223 977.704 156.223 981.258C156.223 985.167 159.524 988.01 163.191 988.01H255.605C259.639 988.01 262.572 984.812 262.572 981.258C262.572 977.704 259.639 974.505 255.605 974.505Z" fill="white"/>
<path opacity="0.1" d="M140.087 860.778H75.9113C71.8774 860.778 68.9436 863.976 68.9436 867.53C68.9436 871.44 72.2441 874.283 75.9113 874.283H140.454C144.488 874.283 147.422 871.084 147.422 867.53C147.422 863.621 144.121 860.778 140.087 860.778Z" fill="white"/>
<path opacity="0.1" d="M676.233 879.969H611.69C607.656 879.969 604.723 883.168 604.723 886.722C604.723 890.631 608.023 893.474 611.69 893.474H676.233C680.267 893.474 683.201 890.276 683.201 886.722C683.201 883.168 680.267 879.969 676.233 879.969Z" fill="white"/>
<path opacity="0.1" d="M662.665 893.474H598.122C594.088 893.474 591.154 896.673 591.154 900.227C591.154 904.137 594.455 906.98 598.122 906.98H662.665C666.699 906.98 669.632 903.781 669.632 900.227C669.632 896.673 666.332 893.474 662.665 893.474Z" fill="white"/>
<path d="M393.125 125.101L367.821 139.672L342.151 125.101L367.454 110.885L393.125 125.101Z" fill="#FCD67A"/>
<path d="M393.125 125.1V154.599L367.821 168.815V139.672L393.125 125.1Z" fill="#ECB329"/>
<path d="M367.821 139.672V168.815L342.151 154.599V125.1L367.821 139.672Z" fill="#C35C3A"/>
<path d="M1119.23 548.026L1093.93 562.242L1068.26 548.026L1093.56 533.81L1119.23 548.026Z" fill="#FCD67A"/>
<path d="M1119.23 548.026V577.524L1093.56 591.74L1093.93 562.242L1119.23 548.026Z" fill="#ECB329"/>
<path d="M1093.93 562.242L1093.56 591.74L1068.26 577.524V548.026L1093.93 562.242Z" fill="#C35C3A"/>
<path d="M836.79 478.152C838.342 478.152 839.678 478.432 840.798 478.992C841.934 479.536 842.798 480.312 843.39 481.32C843.998 482.312 844.302 483.48 844.302 484.824C844.302 485.288 844.246 485.872 844.134 486.576C843.846 488.224 843.222 489.688 842.262 490.968C841.318 492.248 840.11 493.24 838.638 493.944C837.182 494.648 835.574 495 833.814 495H827.502L830.478 478.152H836.79ZM834.174 491.496C835.726 491.496 837.014 491.064 838.038 490.2C839.062 489.336 839.702 488.128 839.958 486.576C840.038 486.096 840.078 485.696 840.078 485.376C840.078 484.192 839.718 483.28 838.998 482.64C838.278 481.984 837.254 481.656 835.926 481.656H833.958L832.23 491.496H834.174ZM855.932 486.648L860.036 495H855.26L852.74 489.84L848.804 495H844.148L851.06 486.432L847.004 478.152H851.78L854.276 483.24L858.14 478.152H862.796L855.932 486.648ZM868.792 495.168C866.968 495.168 865.48 494.776 864.328 493.992C863.192 493.192 862.624 492.064 862.624 490.608C862.624 490.464 862.64 490.248 862.672 489.96H866.944C866.896 490.568 867.04 491.048 867.376 491.4C867.712 491.752 868.224 491.928 868.912 491.928C869.536 491.928 870.024 491.792 870.376 491.52C870.744 491.248 870.928 490.864 870.928 490.368C870.928 489.856 870.696 489.44 870.232 489.12C869.784 488.8 869.08 488.44 868.12 488.04C867.192 487.656 866.432 487.296 865.84 486.96C865.264 486.608 864.76 486.136 864.328 485.544C863.896 484.952 863.68 484.208 863.68 483.312C863.664 482.208 863.936 481.248 864.496 480.432C865.056 479.616 865.832 478.992 866.824 478.56C867.816 478.128 868.952 477.912 870.232 477.912C871.384 477.912 872.408 478.096 873.304 478.464C874.2 478.816 874.896 479.336 875.392 480.024C875.888 480.696 876.136 481.496 876.136 482.424C876.136 482.664 876.128 482.84 876.112 482.952H871.744C871.76 482.888 871.768 482.792 871.768 482.664C871.768 482.216 871.608 481.856 871.288 481.584C870.984 481.296 870.56 481.152 870.016 481.152C869.44 481.152 868.968 481.296 868.6 481.584C868.248 481.856 868.072 482.232 868.072 482.712C868.072 483.192 868.296 483.6 868.744 483.936C869.192 484.256 869.888 484.632 870.832 485.064C871.776 485.496 872.544 485.896 873.136 486.264C873.744 486.632 874.264 487.128 874.696 487.752C875.128 488.36 875.344 489.112 875.344 490.008C875.344 491 875.08 491.888 874.552 492.672C874.024 493.456 873.264 494.072 872.272 494.52C871.28 494.952 870.12 495.168 868.792 495.168Z" fill="#FFB800"/>
<path d="M599.79 242.152C601.342 242.152 602.678 242.432 603.798 242.992C604.934 243.536 605.798 244.312 606.39 245.32C606.998 246.312 607.302 247.48 607.302 248.824C607.302 249.288 607.246 249.872 607.134 250.576C606.846 252.224 606.222 253.688 605.262 254.968C604.318 256.248 603.11 257.24 601.638 257.944C600.182 258.648 598.574 259 596.814 259H590.502L593.478 242.152H599.79ZM597.174 255.496C598.726 255.496 600.014 255.064 601.038 254.2C602.062 253.336 602.702 252.128 602.958 250.576C603.038 250.096 603.078 249.696 603.078 249.376C603.078 248.192 602.718 247.28 601.998 246.64C601.278 245.984 600.254 245.656 598.926 245.656H596.958L595.23 255.496H597.174ZM618.932 250.648L623.036 259H618.26L615.74 253.84L611.804 259H607.148L614.06 250.432L610.004 242.152H614.78L617.276 247.24L621.14 242.152H625.796L618.932 250.648ZM631.792 259.168C629.968 259.168 628.48 258.776 627.328 257.992C626.192 257.192 625.624 256.064 625.624 254.608C625.624 254.464 625.64 254.248 625.672 253.96H629.944C629.896 254.568 630.04 255.048 630.376 255.4C630.712 255.752 631.224 255.928 631.912 255.928C632.536 255.928 633.024 255.792 633.376 255.52C633.744 255.248 633.928 254.864 633.928 254.368C633.928 253.856 633.696 253.44 633.232 253.12C632.784 252.8 632.08 252.44 631.12 252.04C630.192 251.656 629.432 251.296 628.84 250.96C628.264 250.608 627.76 250.136 627.328 249.544C626.896 248.952 626.68 248.208 626.68 247.312C626.664 246.208 626.936 245.248 627.496 244.432C628.056 243.616 628.832 242.992 629.824 242.56C630.816 242.128 631.952 241.912 633.232 241.912C634.384 241.912 635.408 242.096 636.304 242.464C637.2 242.816 637.896 243.336 638.392 244.024C638.888 244.696 639.136 245.496 639.136 246.424C639.136 246.664 639.128 246.84 639.112 246.952H634.744C634.76 246.888 634.768 246.792 634.768 246.664C634.768 246.216 634.608 245.856 634.288 245.584C633.984 245.296 633.56 245.152 633.016 245.152C632.44 245.152 631.968 245.296 631.6 245.584C631.248 245.856 631.072 246.232 631.072 246.712C631.072 247.192 631.296 247.6 631.744 247.936C632.192 248.256 632.888 248.632 633.832 249.064C634.776 249.496 635.544 249.896 636.136 250.264C636.744 250.632 637.264 251.128 637.696 251.752C638.128 252.36 638.344 253.112 638.344 254.008C638.344 255 638.08 255.888 637.552 256.672C637.024 257.456 636.264 258.072 635.272 258.52C634.28 258.952 633.12 259.168 631.792 259.168Z" fill="#FFB800"/>
<path d="M1292.79 438.676C1294.34 438.676 1295.68 438.956 1296.8 439.516C1297.93 440.06 1298.8 440.836 1299.39 441.844C1300 442.836 1300.3 444.004 1300.3 445.348C1300.3 445.812 1300.25 446.396 1300.13 447.1C1299.85 448.748 1299.22 450.212 1298.26 451.492C1297.32 452.772 1296.11 453.764 1294.64 454.468C1293.18 455.172 1291.57 455.524 1289.81 455.524H1283.5L1286.48 438.676H1292.79ZM1290.17 452.02C1291.73 452.02 1293.01 451.588 1294.04 450.724C1295.06 449.86 1295.7 448.652 1295.96 447.1C1296.04 446.62 1296.08 446.22 1296.08 445.9C1296.08 444.716 1295.72 443.804 1295 443.164C1294.28 442.508 1293.25 442.18 1291.93 442.18H1289.96L1288.23 452.02H1290.17ZM1311.93 447.172L1316.04 455.524H1311.26L1308.74 450.364L1304.8 455.524H1300.15L1307.06 446.956L1303 438.676H1307.78L1310.28 443.764L1314.14 438.676H1318.8L1311.93 447.172ZM1324.79 455.692C1322.97 455.692 1321.48 455.3 1320.33 454.516C1319.19 453.716 1318.62 452.588 1318.62 451.132C1318.62 450.988 1318.64 450.772 1318.67 450.484H1322.94C1322.9 451.092 1323.04 451.572 1323.38 451.924C1323.71 452.276 1324.22 452.452 1324.91 452.452C1325.54 452.452 1326.02 452.316 1326.38 452.044C1326.74 451.772 1326.93 451.388 1326.93 450.892C1326.93 450.38 1326.7 449.964 1326.23 449.644C1325.78 449.324 1325.08 448.964 1324.12 448.564C1323.19 448.18 1322.43 447.82 1321.84 447.484C1321.26 447.132 1320.76 446.66 1320.33 446.068C1319.9 445.476 1319.68 444.732 1319.68 443.836C1319.66 442.732 1319.94 441.772 1320.5 440.956C1321.06 440.14 1321.83 439.516 1322.82 439.084C1323.82 438.652 1324.95 438.436 1326.23 438.436C1327.38 438.436 1328.41 438.62 1329.3 438.988C1330.2 439.34 1330.9 439.86 1331.39 440.548C1331.89 441.22 1332.14 442.02 1332.14 442.948C1332.14 443.188 1332.13 443.364 1332.11 443.476H1327.74C1327.76 443.412 1327.77 443.316 1327.77 443.188C1327.77 442.74 1327.61 442.38 1327.29 442.108C1326.98 441.82 1326.56 441.676 1326.02 441.676C1325.44 441.676 1324.97 441.82 1324.6 442.108C1324.25 442.38 1324.07 442.756 1324.07 443.236C1324.07 443.716 1324.3 444.124 1324.74 444.46C1325.19 444.78 1325.89 445.156 1326.83 445.588C1327.78 446.02 1328.54 446.42 1329.14 446.788C1329.74 447.156 1330.26 447.652 1330.7 448.276C1331.13 448.884 1331.34 449.636 1331.34 450.532C1331.34 451.524 1331.08 452.412 1330.55 453.196C1330.02 453.98 1329.26 454.596 1328.27 455.044C1327.28 455.476 1326.12 455.692 1324.79 455.692Z" fill="#FFB800"/>
</g>
<defs>
<clipPath id="clip0">
<rect width="1578" height="1063" fill="white"/>
</clipPath>
</defs>
</svg>
